<mxfile host="app.diagrams.net" modified="2021-06-07T08:46:47.082Z" agent="5.0 (Windows NT 10.0; Win64; x64) AppleWebKit/537.36 (KHTML, like Gecko) Chrome/91.0.4472.77 Safari/537.36 Edg/91.0.864.41" etag="63O4DCsUsn4LS9l8qI-d" version="14.7.4" type="github">
  <diagram id="KmEDYAWZ4QAGdQ_ElDPz" name="Page-1">
    <mxGraphModel dx="1221" dy="681" grid="1" gridSize="10" guides="1" tooltips="1" connect="1" arrows="1" fold="1" page="1" pageScale="1" pageWidth="850" pageHeight="1100" math="0" shadow="0">
      <root>
        <mxCell id="0" />
        <mxCell id="1" parent="0" />
        <mxCell id="tPqwYIOhlPdfrOhZ3rKq-35" style="edgeStyle=none;rounded=0;orthogonalLoop=1;jettySize=auto;html=1;exitX=1;exitY=0.5;exitDx=0;exitDy=0;entryX=0.5;entryY=0;entryDx=0;entryDy=0;" parent="1" source="tPqwYIOhlPdfrOhZ3rKq-1" target="tPqwYIOhlPdfrOhZ3rKq-30" edge="1">
          <mxGeometry relative="1" as="geometry">
            <Array as="points">
              <mxPoint x="638" y="197" />
            </Array>
          </mxGeometry>
        </mxCell>
        <mxCell id="tPqwYIOhlPdfrOhZ3rKq-1" value="" style="shape=image;verticalLabelPosition=bottom;labelBackgroundColor=#ffffff;verticalAlign=top;aspect=fixed;imageAspect=0;image=data:image/png,iVBORw0KGgoAAAANSUhEUgAAAF4AAABeCAYAAACq0qNuAAAOu0lEQVR4Ae2dh3sU1RbA839YSEJ2A0QIAtIhtNBBUBRBihRBRTB0Q7U837MXpNlQ9AEBfCggvVsBG0+FBBBQn/Qm7VOKnvf97u5dJ5vZMnNnk02W+337zezszJ17fvfcc8+tmyZJGM6dOye79xTL6jVrZdac12T8xELp02+gtG7XQXLrNZRMfy25MT1LfTjnGr/dc+8AmfDoJPXMqtVrVRzElYwhLRkSdeLECQHUlGmPS+duPSQ7J1duTPfJTRl+uSnTLzdl+ORGPulZcgOfatVLf4KZwD3cG3jGr+Igrk5db5fJUx9T7+BdyRAqDPzJkydlUdESGTBoiNS4pW4IWAhwOFyX31XJCGWGT71rwKChsrBosZCGigrlDn7Hzi9l9LiJklOn3t/abKfFLkGXKQ1h8ZARulTk5NaXgrEThDSVdyg38GvWrpdevfsGTEgmZsDGZIRBigXR9HeVCSotPrnz7j6yes26cuOfcPAbN22R2++4K6BlGb7StrmcQUfLKFUKMnzSvWcv2bBxc8IzIGHg9+7dJ4OGDk964OGZoTOAtJeU7E1YBngO/tq1a/LSjJlSPTtHeSXhglWW73hUuKovz5gpyOR18BT8nuJiVVRx55LBhptmsq4DuvW4U3bv2eMpe8/A4xr6atZWpsVU4GR7HvODbAsXLfYMvjH4v/76SzVOqoqWR8p0pf0Zfpk0dbogs2kwAn/+wgXp2/8+uTnTn7TeSiSQbq8jKzKfO3/eiL1r8MeOH5eOXW9XjSC3QlTW5yjdyH78+HHX8F2BP3z4iOS1aV+pvRbTTMfradk6X2DhJjgGf/zECWnROj+loetMA36LVu0EJk6DI/AXLl6U9p27XYduaXEDHyawcRLiBk9NTn839k3n+PVjoHsaJrBx4u3EDb5w8tSU8l6cKhXeDoziDXGBL1qy1LGm6z4PiiIf+tmdClPe94cGX1SaA4MqTtKA5sMqnhAT/L59+1W/i5MuACCPnfCofLB8hbw9/z2ZNGW6GgVCCBLnJC4ngru5V3cLcGzVtoMaZnxr3jvy4YqVMmv2XEfKQhz0UcEsVogK/s8//5SOXbo7q0zTsySrxi1y3qaBUbJ3rzz7/IvSqFnLYAZUXCnQwHNy66mW99fffGtro9t36uqotFK6YQa7aCEqeHrmnLZKMTG9+/aP9k65ePGSzH9vgTRr2SauEgAk9dFjqjZHPWTIfbE0n1J3S9368vyLL0usMVju4f5YcVp/hxnsooWI4A8cPCjpWTUcmwUSGeulOkGXLl2SV2fNCY65BoRTmmgZI2VwO7tWHWnSvJXSpLvuuVfuGzJM7n9ghPoMGjpMzUDo0v0OaZbXRhjOA4KqY/RAeTAzuEb8hVOmydGjx3Qyoh4//exzRxrPu3kH7GAYKUQE32/gYGcmJujbItymzVsivc/2+s8//yJDhz+ohgVz6zeUewcMkmeee0FWfrRavv9ht5w8dUquXr1q+6z1IsX77Nmzsm//j8LIF1NDyKCmLVqruDt06e54fJVuAex2PCXJqvUoIAwjBVvwW7d97Lp7lwQy+uQmMJfGrm5wE5f1GTJtT3GJ/PHHH9bLcZ1fvXpNGjfPcwxelzpY2gVb8GgGmmvNwXjOgY52HDvmvvPILpEVfY15OW7cYRjC0i6UAb9+wyZXJoaMAXyNnFw5dfq03bsq7TUG692AD2i9X2AaHsqAZ5TdjbZr8Nc1vvQsN1jCNDyUAo8v6zZnraaoxKWND09cMnw3sfGaCUxhaw2lwI8aPdaxz6oj10dyeMPGskXL+tLKdI7bmeGr6apyDTHJ9AtsrSEE/syZs8pfduo26cj1ETfqX888Z31HpT7fuGmza9OrmcA0O6eOwFiHEPiFRUuMtZ0XofGMTsVqMusEJPtxzLiJcnNmtmMPT0PXRxRy0eK/O9BC4BnAdVup6sgV+Ey/vPLqLNt+j2SHbJc+GoN0ARhbggyfGiTX71Dgcf+YN2IeuV+GPThCx11ljm+8Oc/YGsAWxtrVVuBZeUGvmlVznZ4TMc393377rcoAtwpyd59+xoxgDGuCAj9pyjTjHMWGLVhYZE1rlTqnG6RadTNbDyNYh8DTf2zivzNy06RFK8HnrcrhoYcfMdJ6GMNagb9w4YJk1XDe+2Y1ReTk7LmvV2XmSjbVwEx33oelWWGOYc0MvDRmwZpWqvQ9/+/XX6s8eATMa9tedTFrmE6PsGZWdZppxYoLyiBEqoTHn3zKqD7UFWzazNlzzCLK9MtjTzyVKtxlzdp1Ru0dzPKsOXMlbdzEQrOIMvyyeOn7KQN+7779RqYZCwHzNGZAmXo0jEumSjh9+kxwAXTsQXU7+w9rmKexFN2kcuXZ777/IVW4y++//y71GzV1zQxeME9jHwDbZeqWiZl2OWe9VlxSkjLgGb9t1LSla/CwhnkaK9usEB2fp2d5vjArmXPx8uXL0rBJC/fgq1VXqwnTTMwMmcTz33y7K5lZeZo2JmPl1m9kBB5m5uAzfPLxJ596KlwyR0bvIhOsTBRWgTc1NbhHTE5NlXDw4CEj9xsrAXPjylX108x5LVW4y/btO4y0PVS5mrqTNIEZHkuVoNYKGIxdYGaUO2ncgMrwqV2VUgX81OmPG3WxhBpQLCAwGWslB5kPr4e0qnoGdO7e04hXqMvAtJOMyoLI1q3fWNWZq6ndzLExaXCGOslWrV5jNKoSAO+XgjHjqzz4RUWLPWFFV3xwIMT9qIpuRNWqUy8hU6yTKTd73tXbyMxoVmoghPno2GiTBoHS+ky/zHt7fjJx8jQt3333vTGjQH0YHPojdR06dzPqGtY52aBxM9V756nESRLZwMFDjc1MqcFu5CqcbD69Q2v9088+nySovEvG5q3bjE2M5jN56nSVMDWvxosKlohvqJalprt99fU33kldwTExQatB4+ZGA9wBNnh/fjV0iEihKXxe2HleQHG6rXFzo71cKph1qdcH5pSazbJTXIJT+E6fOaPiV+A569tvoCfFiZeQs/kdu8jJk6dKCVHZvjw8arRRK1VreoCJT61m1AxC4NnoDOfeerPJOfCZrl1cXPlGpzAvAwff7y0PNU17ieYeMDV8YxDXX8t8xrA1s2jR0ne9YFHlmVPJ2AKb/3iphLiRERcmAH9kwZiYLyQStBmogWP0ueP6fpbZf7F9RyjHk+1k/48HpGDseFWJUk9ZFcj0nEx8ZPS4UiKHTA1X8UaivRSIrdt1lLmvvykrPlql9mEcN6FQat96m8qEaAkko3ieymrlqtWOdzQqlWqPvrCDKlNTRhWMVYMTXmq5lQVMoy4+Qx52FQWS9UF9TsKmPfZkGbHZh52tUTRcfb/dMVBSfFK/YVN5ZMx4WfbBcjl46FBCtpEtk1AROXL0qKxbv0Ho3m3ZJl9pOCXXpOPLTk59DXlZJxseSmk8P9LLqBISYXoHvXNFlrU81gipoMldNFu/ONJRmyDexVKX5q3aqs0h/vHPp2XeO+96MgmWv6l4b8FCtUvHAyNGStsOndXKc5X5HiyviSSb9Try2a2CLAMekHQhkDhrBPo8AMwnI0YVyKlTZVdwszgh0rM6DrujjrdaVg3lDbFxhGlg8tHg+4dLtayawdLoS5hm28kEB/antAu24AObSER3LdFSpizbbf3ntgsC+HhBvx4+bJdWV9cuX7miShOLJ+zgJPIa4Ld9/Iltum3Bcydbl0QzOSQYm89y8fBtvtE0tQtThFITSVjiw9R4HZZ9uDymLJHS5PY6svS/b0hEUSKCj3ejINaA2nWM4TqiZWhxvImnFP144EDExLr9ge1S6jZo7Cgt8abZ7j5kpi7EaYgUIoLngZdeeTX21ljBPzux21996fvLgpVt7GJOpdwmv1OkdBpfHzGyoNy0HgWKtUtVVPCYkEBFG93eY5J69+1nC2f9ho2qd4/E2NlZa6U6euwE2zi8uPjmW2/HbBzaaa/Ta7Aw3gwOgePd/pCKJFLLlO6IF1+eoTRaZ4B2O2vVvlX9W85rb7wlJxL4v0y4dG68LSfgUSJPtj/UmhbPhp9UJkOGPagfsT2yBeyhn36S7Tt2qhYj+43pblLbBzy8qFrlDuobJ8D1vTDwbMNPLXs8W9zig7vdj0y/J1HHXbv+m9DKlZLs+Ra3wIhnU2eKcpfuPePaMS9RgCPFm0jwaDqdgE52LIlauYYLEc825lQu7AvJnpLJFBIFHnnzO3VVi4adyOsIPBEHNu5vF9U1IzFt23eWzVu2OklLQu/9dtcuz00NcjbPa+tqmNMxeOgE/qoi+r8mKK8lwyfdevSSOXNfV13ObCfLUhYdWE/EaA+NtS1bt3nSMabjDj96DR7oDJi4XdHuCjxCofmduvaI6RuTAdhAXC1GuFg/xJBgXpt8adwsT21JS91wc/VsWb5iZTgvz76zXIg0aA/E5Ig8tG/i3SbXTgjX4ImMzRDYxpUaPR5BEDzwoSsh0J2gYQBf7+Vil1DTa4ENIMzBIysVqek/IxuBBwbeztTpTyibryHGkwnh9wCe+T2JCl9+9bWRxiMbmj5x0pQynYJu0mwMXr+UhoO/Vh3XrUPAs4lzosLOL79yDZ60sW6JQRWvgmfgSRB/w9njzrtDNj1cq6N9R7jlKz/ySq4y8fAvxU5LJPdjWjp16+H56nVPwSMtjYgZM2erGcgUzWiwrb8BPpGrB3fs2OkIPF5LelZNee6Fl+TK1StlMtL0gufgdYLYw33o8IeU6QGqFbLdOfcs++BD/bjnRz0+YPdu6zXSwYdBjB92e/tXolahEgZevwT/vGeve2JmABq2ZOl/9GOeHz/7/AvbbmkNPQA8YFbYkybRIeHgtQD0y/fu018Vd+3Xa6E5YksZOElUQOOBa32n8lSCf5XEFIxEtiPC5So38PrFuHVslFO7bgPlgqLpDB8yW/nnX37Rt3l+pIV8621NVEONd5L52Tm5MmLUaPnk0888f1+sCMsdvE4QyzMXL3lfTW3DN6YTK9GB3ZUmFk6Rh0YWyPx3/y1HjhxN9Csjxl9h4COmKEV+uA6+gjL6/wnh0vT1igYmAAAAAElFTkSuQmCC;" parent="1" vertex="1">
          <mxGeometry x="350" y="150" width="94" height="94" as="geometry" />
        </mxCell>
        <mxCell id="tPqwYIOhlPdfrOhZ3rKq-23" style="edgeStyle=orthogonalEdgeStyle;rounded=0;orthogonalLoop=1;jettySize=auto;html=1;entryX=0;entryY=0.5;entryDx=0;entryDy=0;" parent="1" source="tPqwYIOhlPdfrOhZ3rKq-2" target="tPqwYIOhlPdfrOhZ3rKq-1" edge="1">
          <mxGeometry relative="1" as="geometry">
            <Array as="points">
              <mxPoint x="260" y="286" />
              <mxPoint x="260" y="197" />
            </Array>
          </mxGeometry>
        </mxCell>
        <mxCell id="tPqwYIOhlPdfrOhZ3rKq-2" value="" style="shape=image;verticalLabelPosition=bottom;labelBackgroundColor=#ffffff;verticalAlign=top;aspect=fixed;imageAspect=0;image=data:image/png,iVBORw0KGgoAAAANSUhEUgAAAHAAAABwCAYAAADG4PRLAAAVRElEQVR4Ae3d+at/Rf0H8P6KflJQ0zQts7TMvdRMs9TKwBXEDZXAxCW1QumHQE0FhVQ0KlM0VyyXAlGyyFxAUdOUSg0zy6WyNLc6Xx7D93mZz7nn/b7v7dz7/lzvwHxmzpyZ1/ac12xn3vfznmYtjG2B//73v404D+E94wrxv//9rxHfzWFewIPB2AC+9dZbzdtvv/2uxA9wb7755lx14LEA5Hn/+c9/GiC+G72Q3q+99tpc6T4SgMB65513iufFA/sEEG1Rj+ftiWTok++gYYUceEf31OtLllp/fBO7hu4lAUQswhs+osRyCY9nIt5RLkbsM8WrBo8cbJHQhw3CE9/wDoDStv5LAhjw3njjjYXhM4SiyCxTAnYJHMG9o1ieZ8m7TQsP3q/jRH/8E7yfdQho9ahT2yO6h++SABJezzP3Zf5DsA/hCbWUAgGwrUgUmmWKR7yf7kDsE0A2RT/gST23I7lEoRPAmhChKQHIWvhZGiq08K2FJmRbeM9RoO9OlM4b3fviF/3phRcb4LWU/p0AplGEB2CM6l2fYVQA1evDmLXR6Fx33L541vYMgHUnbXdgdWrdF3mgBsDLmB/w6kY101nm8Qi/KNFWoE9Dhj8Z6C+2DTZLfdu0AiD+ZPG8lP6LAIznZc5DALHlCDFghB6kQB+yxGC8Lp1Xfrl0p9NSAHrfDgVAQjJael6GDs/LHWLIgCgluNinMYFmk073119/vYxCy607ftG1S/8ueRYA1BBgAS+G62rUd1kbRM99gkcfI0+AYwP6r1To0n+QLAtDaBoBkfB9G2yQQCnHv44pn2UandGUT+eVT9ks+Y1Dq9Y98nS1XwTgPIAXQaNEnmedGnVqT5Ovpw3vVzKMov8CgCsp6BrvyS2wBuDktpuLlmsAzgUMkwuxBuDktpuLlmsAzgUMkwuxBuDktpuLlmsAzgUMkwsxMYDDNpe1OKPsZer6a/nxLDA2gACxwXX0JAagUVKijVJvXutE/nk5rSLP2AA6rQDcuznkzLg+tVkpe4wNIO8A4LPPPts8+uijze9+97t14lNPPdXU8cknn1znuV1/1s8173aeLNPwe+KJJ5rHHnusfLUA2Dx05LEBzPngV7/61WaDDTZott566+ZDH/pQ8+EPf7jkpXX03vM222xTYuprU+c9TxPREsOnliH51Em6FD/1Iqf8Bz/4wWbzzTcvIAIwtlgp78N3bAAj7Omnn9584AMfaHbcccdm2223bT7+8Y83O+ywQ3lWJv+JT3xinZj36qZ+u864zx/72McKre23377w2nnnnZuddtqpyIFfIplE9NVNHMQv8tNN3bT1zLPnJUwNIAMAgyH1fqCKW2yxxaKoXC/+yEc+UrxlUL2utoPKttxyy2arrbYqdNGWVxY5eIy2nr2L16mr3iC66r///e8vbQI6HVcdgJQyRH37299ufvaznzU//elPm1tvvbWk8nVUfvvtt5d6d9xxx8B6dZthefRuu+22QhNdND0r75LBO3VE9T0Poh8aN998c7PXXnsVHXXUVQfgLrvsUnrx1VdfPS+jyszl2G+//cqIwRPnAUALyYSJh9AzzjijDEEA3HTTTZsf/vCHobksafaKfTNzT+Zzn/tc8cB5AbD+6D41gBYN73vf+5of/OAHfduy0F8u4KLMPAFIdyvfevU7NYBWfJtssknz/e9/Pzr3llJguS8czQuAdLfvbO89pwLQSs3yerkANHS4/iddjsBoANxnn33K6pWu9Rzo/XIEfHhdfp9R8+wEMA0YSo+vY4T++te/Xja15oU+58BaFr2PLI6w6mGkVmgWeTzD96WXXmoOPfTQZrfddmu222675qMf/WjjRKfvEBnwoWsuG+f4Lu8HAgg8laV11FA488wzyz6pbwAJj3/Ak3qOHLM2JLrhifa//vWv5otf/GKz++67l2ivm408OfoMAQkOOm49+uTdIgCjgEYxVg1ger5V6GabbVZONvryQLJEjroHRoZZGy+6R198XPbdd999yyrUanTXXXdtnIkKfckRvchRj37waPPsBFBDhhOjTJ1i0DeAMWY8D4DpgW0lovC0KZ61nviYdw488MBykmP4/MxnPtP88Y9/LKzUT1B3VnJFd+Bl3mMHeLR5LAKQAioLKtcKJe9dnwBSgAyEp4Q83rXBYrhZpvStDYWfRczhhx9ezlTNg5/61KcWPLCWJ3ZDQ6zfjSsjWnQXI88g/ccGkHBCX3MgxQmbMT+jgPJpjDKKEbsA/Mc//tEcdthhzUEHHdR861vfKkdwhtWlZJlEXm3IQGejDRvU+nfpMDaAERyADopnuYhBm9CJy+V5MUwXgH//+9/LaHPLLbcUj0jdv/71r81dd93VXHHFFc25557bXHjhhc2PfvSj5te//nUD9HED3ePF9I7nkSk276LZCSDUNdIY0TqGyKwBxA9fvVvviwLDhI8ss0rT+8khLxjGnn766QUWPgh/85vfLCtS+2BfNMR8K/Td0GLn/PPPb/785z8vtIs9FwqqjHf1qBPPWwo8JBYBiFgI1sClPHx9D/Qphgc6SpvmLBRtgLXnvBgxPJcjJQu+IkOSKeHiiy8u+0CAWdDkGyEbJPp26OtMDjluuumm0hw9OnYFdtZxM+epp4wsS4VFAGpQK4Gx5zYxixhCzgpAAuv5YoRv81xKmVm9j77kEMhkxNloo40KcI4PfUYDVoDrSn33BDbghUH6BNx43jj6dwIYZlGkizGFCDctgDVt+QhfNF7Bf2q5zj777HJc6Ct9vuQ7lclX+y7wlPl+qN7GG2/cXHnllZ3a4CMCke7j6j8QwBrELs6O0gBoGJlmCK0NFZ5d/JarjCHrcN1115UDC2egvrwAUOoz2lIeGLB5oiH3wQcfLKTDI8DFBtLkaxmG5YcCOKxhhlAnE64eDOphw2jM2zvGqxcwVqAWJIwfsOJ1Oq6YZx6XOm2PVEdnP/bYYxfojwvUIFtNBaBFDCUId9VVVw3isV6VM6xhTLjhhhvKvMfj6FmDBBSxDWIbvDwD1+Lm/vvvL7R54SxAnAmA9oP2QKsh1HPQ8ccfX7YHuUFnPpOPpwGwfQMugHWlOvx3vvOdYqZZgIfQVABahVJgOb/I991JMj+98sorzZ577lmGzwDI29oAKksEaBdwKbNXPProo8uCZS4AnNU+sG9QxqEfw/7+978vXx4sXgLAoDRDaXs45anxVm2B79PUJCc1g3SYygNXM4C//e1vi2cZNgcBpzwAATFAtj0x5Wjx6r/85S+D8Bi7fA3AymS8Lx7ok5GvD8M8EHjtIbWeEwEc8JTbTriiaHU7q7AGYGVJ81/mQMPc3nvvvc4Wou2JXQBmGAVYVq9Sz1brRx555MIqN7wqEcbOrgFYmawGUPEJJ5xQLjNlSMxw2Qayfg6oNvpudAOUlzp6s1o/55xzCsfa2ysRxs6uAViZjFHrbcS1115bTmECgrQGqysPbDFeB0j1tPW7jHvvvbdwnIX3IbQGYAWgbA3iiy++2Hz6058u1+ozl3WBVpcZKoEGMIsW7VyIyvDppCd8Mt+2RBjrcQ3AlrnaQ5sPuYY+QyMwpMCRr4GLlzlaDIAWQEBM+tBDDxVuvC+nPS32Yz/OBMC+bqWNrU0PDQDqKoVPSeYyHiZmrguIADVsBlggm/e0cXvv8ssv70G6GQyhBCbgajjMHmRhH1i/9rWvlRMn90KBBkAAybNBvFI+APs6zzYXXXTRINJTl0/sgfkiT/DV8jWibc16PvTOh1mgGFKz/wtgQGMLgKrjx6T2kRZCwqwWLW0ZJwbQ5yQTM8FXM4AMXy82XOrVeYFDf+ebTqTk80thixYXnXLior3FS02nDcSkzxMDSAk9cTUDGM9h+NxTiaFfeOGFcivNXSBgXXDBBWUaufvuuxsH4QnaphPEC/OcOtOkYwMYIeohdLXOgXSNvtMYOW3jgTpDthN5N2k6FoAEcOVP+MY3vlE+UBr3V/MqlK5uZ9sC3Hnnnc0111zTXH/99Y3bZj/+8Y8bVy5uvPHGUuZZVMfcp/znP/958/jjjy+6kRYwJwUu7UYGUE+0d9F7BB5Y30rr+4v8rBSO4qOk9913X9HTFwR7O9fqzXU6rHnfd1Cjj6nEc533nDKd/LOf/Wz5mPvwww+vwzp6Jc1L9ual9clQ3tXpyAACzt1FV9+E+rcRFPje975XhhvvJ428W2//97//XXjh51D5n//8Z/Pqq68W73d3Up3cIaUk2Wr5hvFPXXXk0fETMvkEl3edg+qgdLPS3H///ZuDDz64nG9mPwgY75aKNvO5K6qtC2HmUAFweNM9IAKPfNHR+wCZOpF1SQBrz8uNaY0BSLkoscceezRf+tKXiqI+mUwSDzjggPJrWHSOOuqoQsulos9//vPFcIccckj5IIoXrxAddfn5l1/RShl6GG/vRTTVR8N1+ATDnq0A3RjeavPLX/5yg7dfKXkGQvZ/0lEjWzmV4bm+dLiaL+iEAJMCqLazZ+Clw3muQVwSQMTEEMBE0Iv0UEdHNrT2PqKeNklMWxtkoFCUsYBBcUOYn3YxplN+z95bsjsB0d5h8Si8U3fDDTcsq8fodMkll5Rhzy004KHN6/D0JR3/bNK953mjgpd62qBBBtuOn/zkJ8WemZ54WzwuziNNbHviQADTmBunR1AUAcHFXgIQSI+MJ0bQSVIdQc8EjviVr3ylOeaYY8o89PLLL5chJZ0pHYqyDJ/7OeTAO6ckbTl0EFH94447bkEfCxNepx1weCYv5a08D3g6VeipNy6A7JQ25HSqo9P96le/KjaNbmzM/uwdMON5eee9MBBADTPnhYhGcd9TTjmlbGAJlBjlJk0pyFA8i2ebh4B44oknNr/5zW/KXxp0OfaBBx4o1/MsMuSdVTKE9okxVC2LsgCo/iOPPFKMINUOQN7j/4UvfKEMywzN49FJ+5rmpHl8eKIRA/1s+tkacLE1wNox7zoB9FIDhOJ5ntMDAuCpp55aDnhdE5hVNKzo+YzGmIZS8yJPMCeaG/VaMcMg3ryBQYAg1VZZl1y8y+rw5JNPLuDxZLR5n/YA4XVWjTxPqo0Y754UtK52hn+8zzrrrCJPhnM4ZMSrAazB6wQQaHHleF5AKxz+/x+9PkZm6FlEc465xo8p0WM0vZQn+ksRDGB+CmCe1Ym3SXkPo1vU8OZaLj3dEM27ea9wzz33lKkATfS8s0jigeZfHSL8UqcLiEnKaq/X3upXCEg1cPIpr/EoQ2i8S4X2nFdXlldHsKx//vnnGz90/Nvf/jaTiJahxHxn46zHA+CII44oxmVAZRnKGEAEsjLD4nnnnVdkskxvy+ZZuahzCv7uqb2dORfwQEOv/jSENr59AEh+vJyn+pGoYFTIqFeDWGNRKpoDA14qZnEQxFNxuVN/n8WQaUjVOxmw9oauHm9hMs53N4Cibx7iebYstgs8F1izBqwtM32U6TAOxf0WPx0re8Dg0AUeTBZ5YMbdALvcwEVQf9KZ95nvKApAvTVKU5xn1EbhSVakCaHVfk75L3/5y+J9aIqGXzzl8cKzpt9Hng6iqQDPP/3pT0VcwNWLmejQThdWoQFMwyjYrrwcz+H93HPPlX2YOS/eR8EYUVnbwKMAaArINODM0vEX7zOfo4eHCMQ2/fCeRRr6hs/wtDCzqq5DcKnL6vwCgAqXqlw3nFU+xgxwofvMM8+UeYlyDJnhLD1WaujxjjEY1RB66aWXhsQ6+uiYQt1B1QU6GuZAafglPwyszL3hP6xu3qVu5EcjABrK/dFcgV0icykY8M86AA6o02sxQdNxMnxjaCixKuUZUb4r/eQnP1mAZBhgtAFEE31zS7uTXHbZZWXuAZbIqF08BpWpj/+o7cgILPV5HvBC2zse6C8FC7HJUsafCwD1tHZvsxIdBUAGYEQAWMm1FzEMkU4Sb49RgJ3TpFFBiMGT1iDGu/KuK1VfbHeYAOjPQK9XAAIuXuJTiyHEIa/vahYVJvcuQ6SM4iIQbdx95vrFL35Rvt2hY7sTELsA5LU1reRHTQPaKJ4ItGxPMmyGz3oNoK2LcNppp5XTnZy2UG5Uz1AP4OZKQDrdUJa/8ZLhuR5Gv/vd75ZFTEBIGqOOkkY+qcWQtI41jQAoVV7zkzcHxgN1tvaoVIzU+mdFh1DGJGQ846STTir/mYhhTbQ3GifayANPG59sgPmHP/yhqByD4BcQ3TJ773vfW3hpOwnPWj40gJBjPs/yynRKqbI6pj3eZHaRWCDn3ANI0AyfUgsX1w+m+e9x8t/roOM3fhlCgRbg0nFcPlIn/z1Q2k7KX/vEmkbKlqJPFj89S2eLvAXRAf+sqAemp9XGHSDnxMWMkU4S4Ebt3RMznbJh5MvINIzcigPIuBF0lB43TBnvQiv18iwV8UgafjFY2qxUGtlqWZeSZcUBXErAtffDLbAG4HD7zP3bNQDnHqLhAq4BONw+c/92DcC5h2i4gGsADrfP3L9dA3DuIRou4HoLoD1T9nHDVVz/39a6tnVerwCMIklteN8Ngb45bMghRPRerwAk/LCrjlFqtaTpqPRxYuWrTV2mfL0D0G3x3NxaLUAN0iNgBTx6j+WBtevGhZWtRMBfD3TdjkJ9B4bKOa0U/xi0L95d9PGls45LjnadTg9MJUowWh2VLUeIDHjhSQmRQp697yugTef8tCD6B9A++dZ60ZPX4T9o5FkEIAIaioxF6DqmJ/alBLpkqOXAP0YMgH3xxzfA4ZXhmj3IsBz8yRDe0TvDZ1vvRQC2gYsxkzIm4p77COjWHYgChBfx9q6vEJDwClDRW6osMvSlP93w0YnyS2TyDOI3EEBEokQMKl0OAAmLD/AMm9K++cZweOEvRu8a0FkCGD51h1SGnyEzwyYclHeFTgAjuDRA1qnyLuZdDCYpixL1r6TCcxJ6o7bBN51WHk+A1bF+r840QfuahjzwxAzj0buuV/McG8AQrInMKk9IBmKwKCKvbJACs+KNTvhHxzaANXiz5IsP2nQ2AojydCfTMN3HBnAYsWmUivEMmel9FIgxp6E9atvIEJ6e5evYh/70zJxn2ARgOi1+w3gOBBCBOkaJUY0xar3aSBShAGXko8SotKatV8uCd3Su02l5dLWP3gHPM57CMPC8XwSgBmIbvJR3CTBNGbqExY/gel8U8G65Qy1PbEC+vvSnH/oZdWpeo+i/CMAYLIqEYMr7SGMcBjP2S0cRvg9Z0Iw8dF8u/ek8Cb+hAEaRvgxV0w0vSsxDiDzS5QzhOyrPgQCOSmCt3spa4P8A0x3g4HsQsMUAAAAASUVORK5CYII=;" parent="1" vertex="1">
          <mxGeometry x="50" y="230" width="112" height="112" as="geometry" />
        </mxCell>
        <mxCell id="tPqwYIOhlPdfrOhZ3rKq-3" value="" style="shape=image;verticalLabelPosition=bottom;labelBackgroundColor=#ffffff;verticalAlign=top;aspect=fixed;imageAspect=0;image=data:image/png,iVBORw0KGgoAAAANSUhEUgAAAHAAAABwCAYAAADG4PRLAAAVRElEQVR4Ae3d+at/Rf0H8P6KflJQ0zQts7TMvdRMs9TKwBXEDZXAxCW1QumHQE0FhVQ0KlM0VyyXAlGyyFxAUdOUSg0zy6WyNLc6Xx7D93mZz7nn/b7v7dz7/lzvwHxmzpyZ1/ac12xn3vfznmYtjG2B//73v404D+E94wrxv//9rxHfzWFewIPB2AC+9dZbzdtvv/2uxA9wb7755lx14LEA5Hn/+c9/GiC+G72Q3q+99tpc6T4SgMB65513iufFA/sEEG1Rj+ftiWTok++gYYUceEf31OtLllp/fBO7hu4lAUQswhs+osRyCY9nIt5RLkbsM8WrBo8cbJHQhw3CE9/wDoDStv5LAhjw3njjjYXhM4SiyCxTAnYJHMG9o1ieZ8m7TQsP3q/jRH/8E7yfdQho9ahT2yO6h++SABJezzP3Zf5DsA/hCbWUAgGwrUgUmmWKR7yf7kDsE0A2RT/gST23I7lEoRPAmhChKQHIWvhZGiq08K2FJmRbeM9RoO9OlM4b3fviF/3phRcb4LWU/p0AplGEB2CM6l2fYVQA1evDmLXR6Fx33L541vYMgHUnbXdgdWrdF3mgBsDLmB/w6kY101nm8Qi/KNFWoE9Dhj8Z6C+2DTZLfdu0AiD+ZPG8lP6LAIznZc5DALHlCDFghB6kQB+yxGC8Lp1Xfrl0p9NSAHrfDgVAQjJael6GDs/LHWLIgCgluNinMYFmk073119/vYxCy607ftG1S/8ueRYA1BBgAS+G62rUd1kbRM99gkcfI0+AYwP6r1To0n+QLAtDaBoBkfB9G2yQQCnHv44pn2UandGUT+eVT9ks+Y1Dq9Y98nS1XwTgPIAXQaNEnmedGnVqT5Ovpw3vVzKMov8CgCsp6BrvyS2wBuDktpuLlmsAzgUMkwuxBuDktpuLlmsAzgUMkwuxBuDktpuLlmsAzgUMkwsxMYDDNpe1OKPsZer6a/nxLDA2gACxwXX0JAagUVKijVJvXutE/nk5rSLP2AA6rQDcuznkzLg+tVkpe4wNIO8A4LPPPts8+uijze9+97t14lNPPdXU8cknn1znuV1/1s8173aeLNPwe+KJJ5rHHnusfLUA2Dx05LEBzPngV7/61WaDDTZott566+ZDH/pQ8+EPf7jkpXX03vM222xTYuprU+c9TxPREsOnliH51Em6FD/1Iqf8Bz/4wWbzzTcvIAIwtlgp78N3bAAj7Omnn9584AMfaHbcccdm2223bT7+8Y83O+ywQ3lWJv+JT3xinZj36qZ+u864zx/72McKre23377w2nnnnZuddtqpyIFfIplE9NVNHMQv8tNN3bT1zLPnJUwNIAMAgyH1fqCKW2yxxaKoXC/+yEc+UrxlUL2utoPKttxyy2arrbYqdNGWVxY5eIy2nr2L16mr3iC66r///e8vbQI6HVcdgJQyRH37299ufvaznzU//elPm1tvvbWk8nVUfvvtt5d6d9xxx8B6dZthefRuu+22QhNdND0r75LBO3VE9T0Poh8aN998c7PXXnsVHXXUVQfgLrvsUnrx1VdfPS+jyszl2G+//cqIwRPnAUALyYSJh9AzzjijDEEA3HTTTZsf/vCHobksafaKfTNzT+Zzn/tc8cB5AbD+6D41gBYN73vf+5of/OAHfduy0F8u4KLMPAFIdyvfevU7NYBWfJtssknz/e9/Pzr3llJguS8czQuAdLfvbO89pwLQSs3yerkANHS4/iddjsBoANxnn33K6pWu9Rzo/XIEfHhdfp9R8+wEMA0YSo+vY4T++te/Xja15oU+58BaFr2PLI6w6mGkVmgWeTzD96WXXmoOPfTQZrfddmu222675qMf/WjjRKfvEBnwoWsuG+f4Lu8HAgg8laV11FA488wzyz6pbwAJj3/Ak3qOHLM2JLrhifa//vWv5otf/GKz++67l2ivm408OfoMAQkOOm49+uTdIgCjgEYxVg1ger5V6GabbVZONvryQLJEjroHRoZZGy+6R198XPbdd999yyrUanTXXXdtnIkKfckRvchRj37waPPsBFBDhhOjTJ1i0DeAMWY8D4DpgW0lovC0KZ61nviYdw488MBykmP4/MxnPtP88Y9/LKzUT1B3VnJFd+Bl3mMHeLR5LAKQAioLKtcKJe9dnwBSgAyEp4Q83rXBYrhZpvStDYWfRczhhx9ezlTNg5/61KcWPLCWJ3ZDQ6zfjSsjWnQXI88g/ccGkHBCX3MgxQmbMT+jgPJpjDKKEbsA/Mc//tEcdthhzUEHHdR861vfKkdwhtWlZJlEXm3IQGejDRvU+nfpMDaAERyADopnuYhBm9CJy+V5MUwXgH//+9/LaHPLLbcUj0jdv/71r81dd93VXHHFFc25557bXHjhhc2PfvSj5te//nUD9HED3ePF9I7nkSk276LZCSDUNdIY0TqGyKwBxA9fvVvviwLDhI8ss0rT+8khLxjGnn766QUWPgh/85vfLCtS+2BfNMR8K/Td0GLn/PPPb/785z8vtIs9FwqqjHf1qBPPWwo8JBYBiFgI1sClPHx9D/Qphgc6SpvmLBRtgLXnvBgxPJcjJQu+IkOSKeHiiy8u+0CAWdDkGyEbJPp26OtMDjluuumm0hw9OnYFdtZxM+epp4wsS4VFAGpQK4Gx5zYxixhCzgpAAuv5YoRv81xKmVm9j77kEMhkxNloo40KcI4PfUYDVoDrSn33BDbghUH6BNx43jj6dwIYZlGkizGFCDctgDVt+QhfNF7Bf2q5zj777HJc6Ct9vuQ7lclX+y7wlPl+qN7GG2/cXHnllZ3a4CMCke7j6j8QwBrELs6O0gBoGJlmCK0NFZ5d/JarjCHrcN1115UDC2egvrwAUOoz2lIeGLB5oiH3wQcfLKTDI8DFBtLkaxmG5YcCOKxhhlAnE64eDOphw2jM2zvGqxcwVqAWJIwfsOJ1Oq6YZx6XOm2PVEdnP/bYYxfojwvUIFtNBaBFDCUId9VVVw3isV6VM6xhTLjhhhvKvMfj6FmDBBSxDWIbvDwD1+Lm/vvvL7R54SxAnAmA9oP2QKsh1HPQ8ccfX7YHuUFnPpOPpwGwfQMugHWlOvx3vvOdYqZZgIfQVABahVJgOb/I991JMj+98sorzZ577lmGzwDI29oAKksEaBdwKbNXPProo8uCZS4AnNU+sG9QxqEfw/7+978vXx4sXgLAoDRDaXs45anxVm2B79PUJCc1g3SYygNXM4C//e1vi2cZNgcBpzwAATFAtj0x5Wjx6r/85S+D8Bi7fA3AymS8Lx7ok5GvD8M8EHjtIbWeEwEc8JTbTriiaHU7q7AGYGVJ81/mQMPc3nvvvc4Wou2JXQBmGAVYVq9Sz1brRx555MIqN7wqEcbOrgFYmawGUPEJJ5xQLjNlSMxw2Qayfg6oNvpudAOUlzp6s1o/55xzCsfa2ysRxs6uAViZjFHrbcS1115bTmECgrQGqysPbDFeB0j1tPW7jHvvvbdwnIX3IbQGYAWgbA3iiy++2Hz6058u1+ozl3WBVpcZKoEGMIsW7VyIyvDppCd8Mt+2RBjrcQ3AlrnaQ5sPuYY+QyMwpMCRr4GLlzlaDIAWQEBM+tBDDxVuvC+nPS32Yz/OBMC+bqWNrU0PDQDqKoVPSeYyHiZmrguIADVsBlggm/e0cXvv8ssv70G6GQyhBCbgajjMHmRhH1i/9rWvlRMn90KBBkAAybNBvFI+APs6zzYXXXTRINJTl0/sgfkiT/DV8jWibc16PvTOh1mgGFKz/wtgQGMLgKrjx6T2kRZCwqwWLW0ZJwbQ5yQTM8FXM4AMXy82XOrVeYFDf+ebTqTk80thixYXnXLior3FS02nDcSkzxMDSAk9cTUDGM9h+NxTiaFfeOGFcivNXSBgXXDBBWUaufvuuxsH4QnaphPEC/OcOtOkYwMYIeohdLXOgXSNvtMYOW3jgTpDthN5N2k6FoAEcOVP+MY3vlE+UBr3V/MqlK5uZ9sC3Hnnnc0111zTXH/99Y3bZj/+8Y8bVy5uvPHGUuZZVMfcp/znP/958/jjjy+6kRYwJwUu7UYGUE+0d9F7BB5Y30rr+4v8rBSO4qOk9913X9HTFwR7O9fqzXU6rHnfd1Cjj6nEc533nDKd/LOf/Wz5mPvwww+vwzp6Jc1L9ual9clQ3tXpyAACzt1FV9+E+rcRFPje975XhhvvJ428W2//97//XXjh51D5n//8Z/Pqq68W73d3Up3cIaUk2Wr5hvFPXXXk0fETMvkEl3edg+qgdLPS3H///ZuDDz64nG9mPwgY75aKNvO5K6qtC2HmUAFweNM9IAKPfNHR+wCZOpF1SQBrz8uNaY0BSLkoscceezRf+tKXiqI+mUwSDzjggPJrWHSOOuqoQsulos9//vPFcIccckj5IIoXrxAddfn5l1/RShl6GG/vRTTVR8N1+ATDnq0A3RjeavPLX/5yg7dfKXkGQvZ/0lEjWzmV4bm+dLiaL+iEAJMCqLazZ+Clw3muQVwSQMTEEMBE0Iv0UEdHNrT2PqKeNklMWxtkoFCUsYBBcUOYn3YxplN+z95bsjsB0d5h8Si8U3fDDTcsq8fodMkll5Rhzy004KHN6/D0JR3/bNK953mjgpd62qBBBtuOn/zkJ8WemZ54WzwuziNNbHviQADTmBunR1AUAcHFXgIQSI+MJ0bQSVIdQc8EjviVr3ylOeaYY8o89PLLL5chJZ0pHYqyDJ/7OeTAO6ckbTl0EFH94447bkEfCxNepx1weCYv5a08D3g6VeipNy6A7JQ25HSqo9P96le/KjaNbmzM/uwdMON5eee9MBBADTPnhYhGcd9TTjmlbGAJlBjlJk0pyFA8i2ebh4B44oknNr/5zW/KXxp0OfaBBx4o1/MsMuSdVTKE9okxVC2LsgCo/iOPPFKMINUOQN7j/4UvfKEMywzN49FJ+5rmpHl8eKIRA/1s+tkacLE1wNox7zoB9FIDhOJ5ntMDAuCpp55aDnhdE5hVNKzo+YzGmIZS8yJPMCeaG/VaMcMg3ryBQYAg1VZZl1y8y+rw5JNPLuDxZLR5n/YA4XVWjTxPqo0Y754UtK52hn+8zzrrrCJPhnM4ZMSrAazB6wQQaHHleF5AKxz+/x+9PkZm6FlEc465xo8p0WM0vZQn+ksRDGB+CmCe1Ym3SXkPo1vU8OZaLj3dEM27ea9wzz33lKkATfS8s0jigeZfHSL8UqcLiEnKaq/X3upXCEg1cPIpr/EoQ2i8S4X2nFdXlldHsKx//vnnGz90/Nvf/jaTiJahxHxn46zHA+CII44oxmVAZRnKGEAEsjLD4nnnnVdkskxvy+ZZuahzCv7uqb2dORfwQEOv/jSENr59AEh+vJyn+pGoYFTIqFeDWGNRKpoDA14qZnEQxFNxuVN/n8WQaUjVOxmw9oauHm9hMs53N4Cibx7iebYstgs8F1izBqwtM32U6TAOxf0WPx0re8Dg0AUeTBZ5YMbdALvcwEVQf9KZ95nvKApAvTVKU5xn1EbhSVakCaHVfk75L3/5y+J9aIqGXzzl8cKzpt9Hng6iqQDPP/3pT0VcwNWLmejQThdWoQFMwyjYrrwcz+H93HPPlX2YOS/eR8EYUVnbwKMAaArINODM0vEX7zOfo4eHCMQ2/fCeRRr6hs/wtDCzqq5DcKnL6vwCgAqXqlw3nFU+xgxwofvMM8+UeYlyDJnhLD1WaujxjjEY1RB66aWXhsQ6+uiYQt1B1QU6GuZAafglPwyszL3hP6xu3qVu5EcjABrK/dFcgV0icykY8M86AA6o02sxQdNxMnxjaCixKuUZUb4r/eQnP1mAZBhgtAFEE31zS7uTXHbZZWXuAZbIqF08BpWpj/+o7cgILPV5HvBC2zse6C8FC7HJUsafCwD1tHZvsxIdBUAGYEQAWMm1FzEMkU4Sb49RgJ3TpFFBiMGT1iDGu/KuK1VfbHeYAOjPQK9XAAIuXuJTiyHEIa/vahYVJvcuQ6SM4iIQbdx95vrFL35Rvt2hY7sTELsA5LU1reRHTQPaKJ4ItGxPMmyGz3oNoK2LcNppp5XTnZy2UG5Uz1AP4OZKQDrdUJa/8ZLhuR5Gv/vd75ZFTEBIGqOOkkY+qcWQtI41jQAoVV7zkzcHxgN1tvaoVIzU+mdFh1DGJGQ846STTir/mYhhTbQ3GifayANPG59sgPmHP/yhqByD4BcQ3TJ773vfW3hpOwnPWj40gJBjPs/yynRKqbI6pj3eZHaRWCDn3ANI0AyfUgsX1w+m+e9x8t/roOM3fhlCgRbg0nFcPlIn/z1Q2k7KX/vEmkbKlqJPFj89S2eLvAXRAf+sqAemp9XGHSDnxMWMkU4S4Ebt3RMznbJh5MvINIzcigPIuBF0lB43TBnvQiv18iwV8UgafjFY2qxUGtlqWZeSZcUBXErAtffDLbAG4HD7zP3bNQDnHqLhAq4BONw+c/92DcC5h2i4gGsADrfP3L9dA3DuIRou4HoLoD1T9nHDVVz/39a6tnVerwCMIklteN8Ngb45bMghRPRerwAk/LCrjlFqtaTpqPRxYuWrTV2mfL0D0G3x3NxaLUAN0iNgBTx6j+WBtevGhZWtRMBfD3TdjkJ9B4bKOa0U/xi0L95d9PGls45LjnadTg9MJUowWh2VLUeIDHjhSQmRQp697yugTef8tCD6B9A++dZ60ZPX4T9o5FkEIAIaioxF6DqmJ/alBLpkqOXAP0YMgH3xxzfA4ZXhmj3IsBz8yRDe0TvDZ1vvRQC2gYsxkzIm4p77COjWHYgChBfx9q6vEJDwClDRW6osMvSlP93w0YnyS2TyDOI3EEBEokQMKl0OAAmLD/AMm9K++cZweOEvRu8a0FkCGD51h1SGnyEzwyYclHeFTgAjuDRA1qnyLuZdDCYpixL1r6TCcxJ6o7bBN51WHk+A1bF+r840QfuahjzwxAzj0buuV/McG8AQrInMKk9IBmKwKCKvbJACs+KNTvhHxzaANXiz5IsP2nQ2AojydCfTMN3HBnAYsWmUivEMmel9FIgxp6E9atvIEJ6e5evYh/70zJxn2ARgOi1+w3gOBBCBOkaJUY0xar3aSBShAGXko8SotKatV8uCd3Su02l5dLWP3gHPM57CMPC8XwSgBmIbvJR3CTBNGbqExY/gel8U8G65Qy1PbEC+vvSnH/oZdWpeo+i/CMAYLIqEYMr7SGMcBjP2S0cRvg9Z0Iw8dF8u/ek8Cb+hAEaRvgxV0w0vSsxDiDzS5QzhOyrPgQCOSmCt3spa4P8A0x3g4HsQsMUAAAAASUVORK5CYII=;" parent="1" vertex="1">
          <mxGeometry x="50" y="380" width="112" height="112" as="geometry" />
        </mxCell>
        <mxCell id="tPqwYIOhlPdfrOhZ3rKq-25" value="" style="endArrow=none;html=1;" parent="1" edge="1">
          <mxGeometry width="50" height="50" relative="1" as="geometry">
            <mxPoint x="260" y="440" as="sourcePoint" />
            <mxPoint x="260" y="280" as="targetPoint" />
            <Array as="points">
              <mxPoint x="260" y="370" />
              <mxPoint x="260" y="340" />
            </Array>
          </mxGeometry>
        </mxCell>
        <mxCell id="tPqwYIOhlPdfrOhZ3rKq-28" value="" style="endArrow=none;html=1;" parent="1" edge="1">
          <mxGeometry width="50" height="50" relative="1" as="geometry">
            <mxPoint x="170" y="440" as="sourcePoint" />
            <mxPoint x="260" y="440" as="targetPoint" />
            <Array as="points">
              <mxPoint x="210" y="440" />
            </Array>
          </mxGeometry>
        </mxCell>
        <mxCell id="tPqwYIOhlPdfrOhZ3rKq-37" style="edgeStyle=orthogonalEdgeStyle;rounded=0;orthogonalLoop=1;jettySize=auto;html=1;" parent="1" source="tPqwYIOhlPdfrOhZ3rKq-29" target="tPqwYIOhlPdfrOhZ3rKq-30" edge="1">
          <mxGeometry relative="1" as="geometry" />
        </mxCell>
        <mxCell id="tPqwYIOhlPdfrOhZ3rKq-29" value="" style="shape=image;verticalLabelPosition=bottom;labelBackgroundColor=#ffffff;verticalAlign=top;aspect=fixed;imageAspect=0;image=data:image/png,iVBORw0KGgoAAAANSUhEUgAAAEQAAABeCAYAAACaXrJPAAAgAElEQVR4AcVdB1RUV9flKylfYqMzw/TKzMAAwwxDLyooICiKLXbEgliwGzUm9l6isZdYYkyxxtgLItZo7GLvYO+9Zv/rHBikGcGY/LPW8z3evHfn3n1P2efcoh3+nz7Xr13D1sxMTJ08GV07d0FiQgKCrAEw6g18BJj9kRBXC53S0vDNxEnI2LQZV65c+dtra/e3/0KhH7h65QoWzJuPxg0aQqfWQKNQQiGRwsXBGU72ThC5CflvuicWuMPF0QWOVRzh5uQKmUjMzycl1sW8b7/FnTt3CpX8/i7/EUAO7N+PbunpDIJaruCGUQPtK9lDp1ajY0ozfD9jDHasWYjDWctxJGs5dq/7ASsXTsG4IX3QqnE9mL2NDJCzgzMUEhmCrQGYP3fe+0Miv6S/FZDz58+jS8dOcK5izz1fPSISHio17Cvn/d2/WyrOHdgAPDyVd9w9BtzOzjvuHgcenAIenwXun8St0zuxdvEsBk+rVMGhsiMD0y4lBXfv3n1vwPwtgNy7dw8jhg2HWCCEj8ETfXv1wvatmZgzcyaErkI0q18b2bt+BR6fAW4exdPc/XhCR87veHzxNzy6sAsPz23HwzNZeHA6Ew9PZ+Lphe3AjX3A7UM4vWcVvuzZAQqpjMuLja6BixcvvhdQ3jsgS35eDG+DJ/RqLYYM/Aonj2XjxLFstG3dFmqpFD/MGgvcPwHcOZYHxKW9eHRuO+6fysC94+txN3sN7h5djTtHV5V63D26Cs/ObgKu78aBDfNRNdgKZ0cXhIeE4vy5c38ZlPcGyP1795Dati1cHBzRtFFjHNq/D+fOnMakrydCKpYjzOqHs/s3AE/O4NnlA3hyaS8entmKe8fWgRpJABAQDAiB8pbjztHV+ONSJm4dXoWEqAgGJSIkBJdzc/8SKO8FkJs3biK6WnVWkTEjRuDe7ZtYtXIluqZ3g0qhwWeJcXh69SBw9xie5OzDo/M7ce/4ujwQsssOQnGQCJQX5zNw49BKRASY4ebshriaMXj08OE7g/KXAXnx4gXq1IqHVOiOubNn4dH9e5g5fTpS23VAzehYfFa3Fl7ePII/bh5hMEgqWBLKIQ3FgSj8N4Hy6uIWHM1cBA+VChJ3MTqmdvj/A2TWjBkQubph5tSpwKuXmDV9Btq1aYeWzVshOiIcN09tB24dZTDIQLJq2NQh31bcy14DOgo3tGzXq3H36Bq8yN0D4Aa7beIwSqkMy5cueydQ/rKEmH18Ua92HWxctxbtWreG1F0MrVINuUSGNT9MAx6dzpOMs1lFwLhzZBUent4M3D4MXD+IFzk78erClnKBQmW8uLIXOYe3YMzAXhj+RTdUCw2CRChinvL06dNyg/KXAJkwbjxUMjkTrSoVKkIulqBxgwbo0rEjc4QdqxcCd4+zGy1sMLkhubvx4sZhzJ8yCvVqxSCmWgQWTR6EJ6c3lhmUx6c34kr2Fqb6//n3h/jgv/8r4CfEgn9ZseKfA6Rjhw7QKpRwtncAScn0KZNx7MhhnDp+DNuzsqDT6jG8X1cmXOxO821GHhi7cPvcb0hKiIGd3X9gX9kBAhc3Lu/C7sV4fGpDmUB5di4DO1bOwdBe7bBz5Qz8Onc02jWpC4GLADKRBMktWvwzgHy3YAG0ChWcqtijZdOmOHfqJPbt2YOxo8egc8fO6NA+DR4aHXqktQZuHWS3mmcTVuPhyY14emU/4qOr4aMPPsGXXVOwb+0cnNn+Iw6un4ubh37FvWNrywQIlXnv2Brg0la8PJ8B5GwFrmzHz9OGQC6WQqfxwJ3b5Yt5yq0y5FXCg0Pg6uiEVs2a48bVK/h21my0Tk5Bm9ZtkJaahm7p3aDzMODzzinAlZ24a3OtR1cB1/diyqgv8cF/PsbSmcOBG7vYdZKqPD2zqVxglGZ4CUzc3I0pQ3vAxdEVWzIyyiUl5QZk//79HHkatB44eugg5syajZbNW6Jjh47olNaJj/TO6cw/Jg7uDuRmFfQ29ebTC1kINJvRr1NLBuPdvMubPRKVRyp3/cAvsPp4Y8zoMX8vIKQuAicXtE1Oxq7t29G6VUoRMEhl0lI7QilTYs2CMUU8h00V+qS1xIVdi/GoFFtBvILu3z++rgDI0iShtHv07oMT6/Dg+Dr8cTETKY3roFnT8tmRcksI2QlSl2GDBmHGtOmsJjbJoDNJR6sWyTDqdDi97QeQJyheebpHFb9ztFhPH12Nx6fWI3PJZFzetxz3S7ElBBSx0+Jl0t+kdivnjgYZZlzdgSG92iM8LPLvlZB2KW0gcHbB8CFDMHjgYHRo36FAVQiQrl26om6dJNSMCMajk+tx/3hJA2mTlCKNOroa905sAO4cwYShffHztMH449LWIg2nnqfGrp4/phRPtJoN+NfD+mHGyN7AwwOYNqI3PA1GkN0r66dcEvJF335QyxQMyIB+/dC/b39Wj8IS0q1rd0RVr4l2Teqw9S/S6DexUQLj+HoO//+4fQzbVy9EywbxQE5WESP76OQGlrrYyBDcOvwrSxmVT+z3wektwJ3j2LnuR8RWDQWu78QPUwZBLlWgPAStzIB0T+8KhVwJgUQKgZMzenfvgUEDB3EA171rd9DRpVMXPoeFVcWA9FZFDOqfAsPSsRFPcvdxJExkrlGdWpg7rh+7UbIN9D5J1pMzmxAVGoh5478ALm8DfXebGGvOLuDeceDRMdSLrY5fZo9Axk+T4OrshpHDR5RVQFAmQPr06AmJXAEfuQLpej2cHJ2R1r49OrRPRURoGCJCw5GYUIddbu+evRERXh1fdW0NXH7tYf4MEGoUqRau7gZu7gceHsXBjd9xlm3twnF4fu61zUDuNozomwadSsVgPD61kd89tHE+1i4cj5VzR6FW9TAEm02sWiKBOyht+fW48WUC5a2AjBo+AjK5AhKpDLsCLNhltcBZLIGG0niV7GFfqQqc7B1R8ZOK0Gm0aNM6BXUT6yOlUW229H8GhO07UoWzO35C79RmmDqsB9Z/Pw4rZo/gRHPD+OgikkYA5OxZCmpo1zaNWYJeXdqKVg3iYWf3L/zL7iM42jthzIDO2LpkMsRCd7iLpVDJlVj43XdvBeVPAaHsl0KugJtEimVmExAZiiYeHnAQuEPo4oY+Xdrit40/4UDWcqbpLo5O0Km1HOnWiAjD9QMrCvTc1vjSzuQdiKlST9rZfYCPPvwU//73x3B1csXi6UPxolDQR56JVGXq8F74978+wpIZw5iIZWd8h0E92mJUv47Yu2oW39u6dAq0QhHSPLQQSWVQyuTYtXPnn4LyRkBOHD8OvUYLR7EUX3sbgaphyPA3w9FdBHc3IVZ8Nxl4dQln9q7FndM7ANzGiC964NOPP0X9evURHBCErCWTi4h7aWDY7pErJimZO74/RvZNw4Sv0vHbrzNLdbHkep+fz0C9mGpwsndmyo9rO1iSSKWen9uMl+e3YOPPk6AUuGOfvwld9R5wlsgQYLbg5s2bbwSlVEBevniBWjVrwkkqQ1udDn+EhwARoZjgbcS/KtqjX9f2wB+56NUxBW7OrhxMzRz/Fe6fyYKHUglPnQFOjm6YOapPEXG3Nb60M9kRAoU8CzXK1rBSn81eg2dnNyN37zJOChl1HriybzmDZzPAlEpYtXAc1G5C7PE34UygGTVUKghkcrRJbl0+QCaMGwexXAGrQomrIYF4FhaCZ2FB6KzTooKLG/ZnLMbtMzs4iIoM8keIxQR3VzdsXzYFbZskonLFKjB5GpDx8yTuydIa9VfvUcMpmCMpqlLJAdFhQcxuSTr4u0tb8f30ITBQfa0mnA8yY5PFFxqpDHK5AsuWLC0VlBIScvbsWWhVarhKpFhl9gMiQnArNAg5wRa016ghkCtw9vd1wN1s5gQxkSF4eWELs8KW9eNx/eBKruSNgys5WLP12F8FgN7Py7a9zsFywy9vx7JZw/HJ/yqhTo1I5OxdxoSQYqjxw3rC6uKG44FmHAnwQ06QBaOMBlYdi6+p1PGcEoC0a50CZ6kM7XU6BuNeaBBOBVpwLsiM/noPVBa448CWpcDdI9ixfCpLBIk36f/A7m0YHHKTD0/mDym8iYyV9/6xtXh4bhuz2YLoOb8MImHD+qSyl5k4qBsbXQKka+dWiHUT4myQGYcD/HA0wA+nAs2oqVLBXabAsMFDSkhJEUD279sHmUwOtUyG7EArXoSH4FKwFQcCTAzIbB8vfFjJHvMmjwDuH8HJzIXo16kV02iKTYgglYhPytvwUp6/f2wNnl/cjqdXDuHBmWJ52ew1wO09zDk++rAC1iwYi1cXM7ljaifGop1UigtBFgaEQKGO/dHkDXeJDB5qDS5fvlwElCKApLRKZkPaz9PARvRGSCAXdCjAj8Vum78vxM6uSIirgVdX9oAqunvlDNzOZ5LvEqG+TZWozAu7fkbGkpnMRm2pSAr8yHCSET64YR5C/f3ga9Dj1pFVHOTReI3R7ItRHhq2HwSG7SB70lCjYQM76KuvSgfk1MmTkFN+VCbH8SArnoeH4HSQBQcDTAUFEbpNNBp8ZO+M5d+OA67tLAiySJ9JTWhI4H3mOGiUbtuyqagbUw24so2JGPEQ4i6Zi79B49o1OY/aKKEGTmz9ng0thf5718yGSCTBMl8jTgfmqYwNEGrHTyZv5iZGgyfu3nk9NlwgIYMHDoSLVI40PdmOUFwLCQBJhq0QOpPrWurnDQdXAfQeHji0YT5wfVfe0GLOVk7/LZ89EjcO/Vpq6P42abB9T1GtLfSnZM/5XYuhUSg4vzFhUDd0b9sEQWZfJm41woNZTageuLsXO1dMx8XflmD2hC+gdHDGXqsJx4q1gwwsgRSnJlsiLzKLgAF58uQJAiz+EEpl2Ojvh1fhIWxIC0uHDZjzQRakG3T4wNEFBq0Wc8b2RXbm99i+fCrCA8zwUGtx59TWMjFUGwB0Jg9CBwFBySOySZQfpd4m0jV/wheoFhLAcUqrBgkY80UnHNowj+0H7u/DuZ0/oUvrRhz4kZo1bJiAGKF7gUG11d92vhhkwQRvT7hKZTxZx6Y3DEjmli0QyeSIVKlwPywYN0MCS0iHrSBC+0SgGW2Ik7gK8UkVJyhkcs6ai9zcseWXefjj5qHXedRSjGRhIGzXNIj14MxWzoHsWDENiTWrYmjvVDaWv6+ejUt7luLagV9YCukd4iB0b8mMoeia0hgysQQVPqmM3atmsesXKBQYrPcANdxW98Ln44F+2Olvgpdczo7kzOnTjAkDMqBff3a1X3p5srqcDfIvYjsKF0RqdCwwT30meXsiUqnklH+VSvbo0SEZeHGRpzTczS5jYih7NQ9405SIh2e3Mbchqfhp2hAe8/nvfz+BA4EukcJTq2XDSeM/RPE7JzeEnd2HfNAA2a/zRgOPDmLSkB6oXNkRa80+7GYL17/wNdtEbZ5xnT1z5mtAoqpWY3XZYPHD8/BgHA0wv1FCbAWSHpK1pmOityc+reKI5M+SOCdB8zwKj8VQj5JLJlEm+2CTisLnJ5f24Nn5LWieFIdZoz8Hnh7mRPGcsf3QtG4sLN5ePLRAYy4f/vcTDOudin6dW0GnUqNTckMc2bSAVYzSCP4BZoSJxCzJVE9bnYufyR2PM5LayNGyWfM8QK5fv87hvUmhQG5IIG6EBLxROooXSH+Tccqw+EIkEMJi8sW9szvx8toh3D9FFHpVQWKH3OC8CV8wICVTiKtx/+RmPD69Ced2/oy4amFYvWAMcPs34N7v3FByp8e3LMTuX2eydzmV9QOr0NX9Kzgzx3NGLm/DdxO/xL8rOWC00fBGdbG1g0jaGrMPR8F+viY8f/4cdhQOC6Ry1NdomIidKeZqbS+/6Uw9QPpYXalEJScXbF05n6dAkfjbAMnT+SwMSG+N8V+mcwK4BKXngW+KT7LYzVJE3bFVA2z6cSIbTCqDGDANStEz5HZpUOvhiTxG/Pj0Bv7b29cbJqGIJby4dynehuwAPxwM8EOQUgmxVAYKW+xoVqCzVA4mY+EhyC6DuhQvmESPeuRfFaqgX3o7nipFU6MKqwQlds7u+BE+Bj27RmpYCVDY2+TlOxZNHoj/fVwRH37wKY/m+/sYQYEkzRiiYNKg1XDug9IAxHtweTv6dmqFDyvaY6aPF7PT4rSheL3pb6L1RNKEMjkyNm+Gnc2gzvH14Yi2LIUUL5hiBEI7TCKB3ssTt0/vwMvrh3H/xKaCYUwOxHKz2BhSuE6iTj1eGigEJGXciZC1b1YPEYEWNqbeeh3zj6S46hjdvxMu/748zz3nZmHTj1+jspMrohQKVuM/sx2F609eqLteB1eZHN/OmQO7Zk2asEFda/HDndDy2Q9bwQTihSAzFpqM+F/FKvh20jDgyVmeOFdYbWw92TO1GSICLNwYW7heWJps1zT+QpJEhpJcLh3EUyi6puCNDDS9T0QwyM8X9k6uCFEqcdCaZ9vK0rk26XaTyjHwyy9hVzUiEjKpDL8FWHA5mNztm62yDYDiZ+qNK8EWrDb7wNXFDSFWfzzK+R0vrh3Ki07zjSs1lAgX9X6L+rVQLdjKcRD9/WdBIXknCgvIXtC1DTCyJXePrUWD+GjO7yqEAriKxIhTq3EgXx3eBgq53lk+XhBK5Uht2w52Ri8jtDI5DgdacS7I8lZ3WxwMovNU6FxfL/grFBCLJTwh95vh/fM4yYVdRSbT3clew0OV1LMUf5D67F/3LbPRskyDoPFhlpzL29jbkF2xr1ARBh8LghJbQiWVwVEoRLhSia3+vm+1JWRDFpmMEEvlaJCUBDulQgmDTM7hPrmhtyFKgNAzxFYvBeVJRQONBi5Cd7i5unKiWOwm4Mkz7HFeXsLzHAIlzwVT75I0UOOJbfZKbcYZ9BGfd2CGSXSdGszScGwtqwhds1vN3cah/e9rZiOtRX0IXQVwcXCCp18QYrqNRu2vZiO8aWcoJVI4C4TMQlf4eXM9i3ek7W+iDRSfSaVyxNaMgZ1UIoWXTI6jgf7cSNuDbzqTASVDREFTV70OUpEIDi7O0Gj1CKj1GaI7DoEpIhZuVaqwd5g0oj+uHN8KXN2TlwTO2cqNIjWh7NrBDXPRu0NzDtRMXgYM7d0ev62ayS6UBr3pIPd6eON8jmca1a4BsVDEQw3EWCUSKaRaA3yCo1CzywgkfDEd4c3SGRRXgZDrMNfX+EZOQoAs9/OGTCpHjajoPAnxlMmxP8DCfOJNQJBUkHqQFFFQ5COTo4qLMxQKFQLiGqNm+gjU6jsZcb2/RlyvCfAOiIDI2Ykn75uMRtSNrY7e7T/D5EFdsGzmECyePgQmHyP+5+QKd5UKMpUKQjchh/JSkRiBJh9EBlvZzZKrprGW//z7Y8hFYhhUKojEUjiKJTx4FiiTQeDkAO+QaNTsPhYJ/achokU3qGmk0c0NQokM0328WLWLt48AWZIvIbVi42DnY/SGh0yOHVZSg9INKrlUUg+KDWqp1XAQCCAUCGAKq4nojoMR33cyYnuMY7GN7TEWtfpMRLXUr6DRGuBSqSLGjBqNHxb9iPT07mjyWXPUSUiESCKH1k2I8UYv9DfoEaVUQSyRwkEsgUAogl6lQsPY6qBx3MQakfi8Q3Osmjca33yVDnelEmqxFJN8jMyun4QFI0WrYT5lrtOKfzuh/1REpX4JnacPBAIBTwNfb/bByWK5EbIh3+fbkEb1G8Auqlp1jlbXmH1LBELkPcgtERMd4mWAnCrs4gythwHhTTqj1uffIK7neAYiruc4xHYfy5UJ/KwTzPVSYEpoDpXBBJOXFxYtmI9XL1/aomx4WgMwzkMDVA3ngPJRWDB2Wy3o62mATiqDvUiMZvXisGrOCJzOWoQbR1dj7rj+LBn1FUqcCg4AwkNwNcSKOyEB+NnkDVexGMaoejDVSUZoyx6I//wbxKSPhIfeCHuBEGONnkwPCksJOYQZ+V4mLTUVdq2at4C7VI75vsYiImVLyE718WKL7Sh0h8jNFabQGnnq8fk3DIANkMi2/WFt2AGmhBbwjW8Ov9otYa7bGpb67aALi4OLQAI/Ly/07pqOMaNGsVXPsvjhXmggZ+bOBfnjeogVT8KCcCrIim56PRydXeHo5AqVXAE/tRr/dXBGD0p+Vw1jME4GWrA/wMTRd4bFB1qxGIbIBJjrtYFvfDMENOyAuD6TYKlRD84uzphTitpQh4/0MnCAN3jgINgRGaFoj27Slzb0yF70NuhQWSyBq5sbB0DBSSl5UtHra5BEkN0IT+4D/6S2DAKB4VenVYnDXK8tzHVT4BFcA65CKRwrV4ZcIsHeAH929ZTEpmQUHdRASkLR8MfBAH9WpWEGA3IDLGip1SBIocQMH28cCPDHWY678ljyPqsJ/lIJPMLjQL9H9aCOoU7SW8OhcRci0+JbwnFQm9P1HsxUF8ybB7tFC7+Hm0yONJ1HASBkM/Zb/eArl0PoLoLB24Jqbfvl24qxiO40FCEturMEUE+YapcORFFwkmFOasu95xkZz0mZXf6UPijKfch4U89vt1rQ22CAUCLFApMPEBEEyvpTzndvgAXng63IzqcJJM2k3uEyKTQRtfg3+LcTkxkYoVqH2srSKT11fJJGzbFM1tatsNvz2x7OK1J+kQwOFUw/QAclf9zc3BDepBNbbjKY4cm989WCgGhZQhqKglBSWvyokkltIfXwwhazL3KC/UvlPscCzbgYbEUvgx6xKhVW+ngiyNUVvu4i5ARbcTHIzPaAbADlZKgTrXIZdFH12H5RPUhlfeM+44Gp4Z76Eq7X1vFWRd7shksXL8Lu9q1bUCpVTGK2+/vycAOpDYlSR50HHFxdYQyIQFzviWxAw5J7w7dWs/IDUUiVSFKEvoGYZzTgRoi1RLhAUkKhO4USXbRqfOTgCKlSjaRGjRFqtSLIyQmpaiVGe+kx3UOFpQYNJnt6QKXRw5c6KV8ySHVIGuUiEdaVkj0jl/ur2QdyqRxWiz9evniZN2EmtkZN5vJEYAhxAoTc0Xe+RriJJZy+I5Uhd1o9bVAZVaQU6cgHhQCRhcWhjUZVAhAb3yHP1lQmhZfJD4t/+hHbMjNx99ZNXDh7FimpqZDr9DxK4BMRDb+IaLgLBJArNXnqYgMkqS3kfiGoLpMUDGfabCSdiWCOyDeobVunvE4hDh00mI0KSQQ9RA+TONE5mNTGxQX+NeuzDamZPhIWcqnvoi42KUlsDWOtpvBSqvGbf56XoN+icCA32IJMsw+qi4SwJz6i0WDv7l14cO8ucnNysGXzZvzx8gW+GTsagdViMTrjKIau24e0CXPh5ekNrbd/nsokJsOcmAwXtR69dZqCdtHv2A7q9Pr59uO7+fNfA7J71y5IZHIEKBQsvjYwiIz1MuiYiOm9TCAbQgQsoFEac4y32gsCgHorv8cKP0+u0c3gi7EGLe6FkLcxY7vVhAFaFdSuLqjarC36zv0FCoUa0REReP7sGSdwfI1Grvj82TMREpeEkZsOYeDybRi/4wwapfeDXK1nKSEe5F2jAURiCRabjMyybUDYwKfgTyeTQ6lQgewHfTjrTtMWw4JDIJDKQGpDRopeIh2j4IgiWKLMVZN7M9kJbdEjj2vYevzPzrVbwhRf0uaQ2mhCYxAuEWGElx5NtRpohEIeJ2k1aAJGbTqE0ZnH0G7IRFT84APMnj6dK0xjSPSZ+vUERNRtipEbD2Lwyl34ckkmTAGhMNZoAL+6rWFOagdVQCSCJGJuCzmJwoCQJhDVcJHK0Lh+Ay6T/mFA6ILoNU0maax9PRZKHofEOFqlgourM6xxjUCUmEgYk68/A4KsfFJbGAKqwju4OiwNUpmsFUhJvkgrDL4ck9CooVwqQ/rE+RiVcZR7feDy7Ri54QCs4VE8TfvRwwd48vgxaH3fhFEjUbNZKkZsPIhRmw8jsU1nKI1WJoI2D+OqMaCTVl1CXQgcmiJRXaWCWCbH4p9/LgkIiYxaqeJKUSaapIMQtRkeezc3eJmDUavPJER1HFK0cW8AhgDReppgjqyF6mmDSxrjxNZ5BCruM8gVGjTrPgCjt2Tng7GNz8PX7UP6pAVw+PRTrF65En169UKPrl0xaewYJHb8HGO2Hkev2UvhYfCBLxFDAprVpT4EIjG+9zWWGL0jDSBmThph9jXh0cNHJQGhO7TomFhrGw9tAaokITTqr5NI2IrX6DQEMd3GlMmwMiBGMyzRddltEy8obozpGX1AVehVagxauhUjNx/GwBXbi4AyYv0BmEOrIT6qOk6dOIGLFy/g8x490LT/GIzNOomqCUnwCIxiiWTpSGoHpTkUVom4iE2kDiapJzKWwOO6CowbU3RxQIHKECDHjx3nWYeUUlxl9ikwRIRoE60aTgIB5xpISihOeBNVt6kFNVbnF4TAWp8httcEJkqlAUJSJHN1RnBkNDqOmYkR6/dj+Pr9BcDQdeqIqXCuWBFZmVu4N9u0Skb6jCVoP3IqVHqfouy0dku4KNTo5PHauxAQpCZXgy341tcLbhIZfLyMuHXzVoF00EURQOhGj27dIJApUE+jZstPBRFJG2/05EjXGtcYCf2mIrhp17fakbzej0RwvWTE9hxfKiBkAH1jG0Nr8IG7gz0kTo4IrxGPTmNnYfiavWwjBv+6G0NX7YbW4I3kpk3w4tlTNGnWCj2+/QW+/sHwiq7PsVKedLSFV3gcBEIhT3mgaVSk9pTHIeJJTiKUxmFkCsyd820RMEoFhHZw8CLSI5Fisrcn50GoMJIYicANxqBqSOg7hSn82wwruVbPkGiEJKW8GRCm2CncIO+qtaHRe8PdoQoDExwRjZQvx2Lgkkx8vfsCWvQdAaW7EEsWLUTDlDTENkmB2jeowJDaAJEYfBAll/Gcsu3+JgzzMiBeo4aHWIKKlaqgQoWKoDRneqfOePDgQRFQSkgIfUvI0exlyrVSgcQRfreaYJaIofT0ZQpftf0A+CY0L53Cs2Frw2LsGVLjrYCwitE7+XfV69IAAApCSURBVMGfd/U6LDEiZ2eIHOzh7W1C3ZTO6DR6Bq/ls/r6Ijg0EjoiYfXbsYuldy0NO8A7qi4b07YeWvQx6KCVyvCJkzM++N+nELmL0b1bN4wfOxZhQcEQOruiQ/v2bweEnqDVlRQF11Gr2ZYQKAlKBYQKFciwRnceVqqnIcPpU6M+vEJqwNIwDYag6giu1xpxvb6GJakN/BJb5xEnarztqNcmT+RtlLtuCvzqtISxagK0nr6QUobOwR5KiYRnSHISWyQGge1dNQFeoTX5Wu8fDpVSDZVEwjMSPqhQCU6OTrwvAE0IOn7sWEHjaS1ezahoCJ1dcOTIkYL7pUoIfZubmwuT0RtOEhm66T2YTabptHByFzFBi+k+BmZym8UpfP49tUYHnY8Vag9Ppv0xPcbBFN8U3tFJ3FBSJQ9LGFRGf8i0RojkGghEMri6ieDi7AZnJxe4uLjB1UUANydnngdLq8dtC5VpsbKCPJ9QCKVYDIGjAxw+/QQiF1fO+NN8kS6dOmNbVlZBY+ni8aPXLnb7tm28sqN/374Fz7wREHpi86ZNUMoVbE8oSUvzQSj6DW2UyslkS1LbEm6UvIhvXBPmH1InB64w9ZpEpuJFAlUqVIBDhQoQODhAKRbBV69HWEAAatWIRqN69dCqaVNeEN2+TRuktGzFGyskxMUhJCAQtG+I1F3EGXWVTAGN2oOzabQtB22ZQdvzBAcEcq//svz1yu6DBw+id89e+GbSJKbof/zxBwNgW1BJ88xsDPhPAaG35syaxetkKDHzmVYDsZsrAuKbcKBnbZhaxPUyQDXrQ6vVcx5Tb/SDSqWBVqFATPXqvKSE/P7SxUtA8dO5c+d48mxZVjw9fvwIhw/sR/OGDSDTeiM6bRDHVsRxKn7wX8ycMYMbSfsaOVSshK0ZGaCG0+4U1SOrYumSJfx98X96du8Bp8pVeD8k+u6tgNBDo0eOhFKuhFgig9zNFX7VEhDfdwoCG3csEeQFN+mMqLRBnHgmvhLYJB3xsXHF6/FOfz+8fxfDvxoAuZc/J6xouIEGpqp8/DF69+jJZb58+RLenl4YNWwYaM7+zh07sO/337Fq5a9YtHAhL1u9ceNGwe//8P0i3gHnqwED+F6ZAKEnhw8dmrd3kEAAn+DqLCFBTbqU8DSUTiRJoYg4uHk3WOp3QGhoOJ4/K/86/IJaA7xujtYIU9gv97SwG6cQwlo3mRvUKKl+weOtWrTgBda2G7QxAi3LJ++5ds0ato+27/bs3g2Zu4hVju6VGRB6mNyVUiSClzkE8X0mIaRZ6eSM7Ahn3xNawCumMTw9vXE5N8dWh3c6v3j+HNevXMa8WTMgVumZe5jqtIJPbGOIhCKEWAN4BhAVPnb0aERFRuLli+cFv/Xs2bNSFyOeP3sGgWYLyI7wDKKCN8pwQYv5vLRaTjrT6FxI8+5vZatUabnKg3ecKcNPvPERAuRqbg5++m4BJEodTLY8S+0WkMtVbKdycvJAX7J4MawmPzy4fw+kQou+/x59evZitRo1YiRLyePHj9nG5F68gMT4eN5QgZ4tl4TwfFY/E3QGbx6Tocx7WdiqUKbFmpW/vLGxZfmCALmScwkrfv4JMpXudeIpMRlqrR5uDo74bfduLipjcwaMej3OnT6Fhw8e4MmTxwzMixfP+frB/fssDXdv38b5M6dRKyYG1SLy1veWC5BXr16hamgoPDw8EdN1JEKadythQ2yBne1M5MtNYcDUSRPL0u43PkOe6HLORaz5ZQUUah1MtfOycTTeo9V7sysno/ni+TOs+mUFbw929NAh3Lx2lSWL1O3mtSv89+VLF3H21EnkXDjP6UlPDx2nFejHywUIvRBdtSo8tHrEdh+DoKbpJbyMDQjbmQBx15vRu1vXNza2LF+Qx6CGbFq7BkT6Xuc+2sDD6Mf5kiEDB3JRvyxbxvsTTJ44ET//sAgzp00Ffdeza1cM6NsXyxYvBqnK/Tu30T09nVeq29bilRuQmlFRPKoeXL8NrI3S4Mc0+08y7PXaQG6JRIPExLK0+43PkH7nXLyA7ZkZ0Ok84R3XNC8ZlNQOOlMQhI6OqFOrFr74/HME+VuZrQpdXJnl0rYeNapVx9CBA7Fg7lxkbcnAgd/38v5qEoE7hym2Hy43IA2T6kMjVzAD1eiN8K5WJz+p26bUQI9EWheRwJUszwprWwVtZ1LXS+fP4cDePaA5pcbYJvmBXVvoLSFM34naN238GWjDBuIeJ06cwPJly3iOSK2aMUhNaYPk5i0QHxMDLw8dg0UcqfCamXIDQvtx0MpGAkUlFkMhEnEARlEmhfukIkWy7Imt4R3TGCqFCmfPnLG1r9xnYp0Xz53jjeIiQkMhN5igMvhCqcqj77TbTUx0dKnl0sIo2taDyBfleyh2mT51GnZs31HCFZcbEPrFWzdvYuGC71C3dh2eQsXAiMUcv1CESvaDst48yF0vhQFyE4iwYe3aUitc1psXz5/DhbOnecUoxUPeHh7w1Gg4tqGBpmOFotmylln8uXcCpHAhG9avB7FEtVzOYTdJDBk9vTkExsh4+MY0gl+dZDgLpZgwenThV8t9fenCeVab+JhYfPVFf7YptM8i7a53+NChcpdX2gt/GRBbobQBLE2gp12raM2eSixivea/1Vo4Ozpz9Gp7/l3OuZcuIvfCed4mbNGCBXj1/BlmTZ8OVwcnZGVufZciS7zz3gCxlZx99CjGjx0HMr4Wkx8vNKZo193VlUNzotDv+rmSm4vLly6wRM6YMgX3bt9CxsYNbDTJRryPz3sHpHClKF9JdPrSpUtISkxkV1g4a1X42bJcX792FVdyLqJp48aYOG4cbl2/hhPZRxFo8edJt2Up423P/K2AFP5x2p6H+ACxyXf93L55k+k7bRU2fMhg3iGLyFq92rXhb/LDy5dl30nmTXX4xwDJzs6GY+UqPBj2psq87f79e3eZhtOGUP369GFAiJrTXiaUZiRJ/KuffwwQIla0jzJluynMfpcP5UOvX8lFp9RU9O7RAy+fPcXN61dB6UbaKOp9eJp/DBACYED//pAIhKBNq9/lQ0DeuHYVgwYMYGD79+mD6GrVOHFFez0XzoS9S/n0zj8KCK3+dKhYGRMnfP2u9cWdmzcw7ZtvUOmTT9km0a4UtP87hfzv4/OPAkIiTz1Zr867BXoU4JFnWfzjjxC7CdGpQ9pfCgdKA/AfBYQqQMOHtLUOTYGkBpb18+TRI85lEPf4bccOXo1Jg0/v+/OPA5K5JZNjDxpfqRoWjs5pHTFtyhRsWLceRw4fZk9x+/Zt3tmfNpw+duQItm3ZguVLFmPa5Mno2a0bYqKieKtR2sL0fX/+cUDIMNaJT2B2SWLvYu8Ax0qV4UpTL91FrFI+nl48auitN/ByetosVkLrcRydOG6hgSkauDp44MD7xuOfNaq22pMLpsiUtr0ZPmQoaJuOmKho3qiWGk95DQKAVMvXy4jIsDAOBeg/1aB58mtXr8HDv7Azt60epZ3/Dxc4AHRubC48AAAAAElFTkSuQmCC;" parent="1" vertex="1">
          <mxGeometry x="390" y="350" width="68" height="94" as="geometry" />
        </mxCell>
        <mxCell id="tPqwYIOhlPdfrOhZ3rKq-36" style="edgeStyle=orthogonalEdgeStyle;rounded=0;orthogonalLoop=1;jettySize=auto;html=1;entryX=0.588;entryY=0;entryDx=0;entryDy=0;entryPerimeter=0;" parent="1" source="tPqwYIOhlPdfrOhZ3rKq-30" target="tPqwYIOhlPdfrOhZ3rKq-31" edge="1">
          <mxGeometry relative="1" as="geometry" />
        </mxCell>
        <mxCell id="tPqwYIOhlPdfrOhZ3rKq-30" value="" style="shape=image;verticalLabelPosition=bottom;labelBackgroundColor=#ffffff;verticalAlign=top;aspect=fixed;imageAspect=0;image=data:image/png,iVBORw0KGgoAAAANSUhEUgAAAF8AAABRCAYAAAC0RnqFAAAgAElEQVR4AdV96XcTV7Yv3+77J9798tZ67y94X96Ht9ZL33u7k9ykSXoAEgijzZw5ELCxwQbP2GbwPMqW59maPEqWbNmWLMmz8UAAG8jQTdIdIHj27629Tx1VSZaF0xDS16zDKVWdKp367X1+e+9zdpV2rK4uYWNjDcD6pkL719dXuWzVBlDbhLqG3Bf+Omvch5WVJayuLmNjQ9uXDdDfwsI84uMv4V//9b/jX/7bv+DtnW/D1mPD+vo61rHB/+i71tfXsLZG11jddD/b6wt99wbW1le5L+trYa6zQdisbImf6I/AT363tt4RDnw+mb5gY5W6s8XNrPFxAld74eBtKcithLiBdb5ZAp8EGng+sLy8iLY2E373u3/D//qf/wPJyYl49OivLBghLNrcYCAEIFv3h/tC97SF0mnBX3su+OGuQ8oQBnzSNgHcGgNMIPuL1HwN+P5jst3GGtbWV1gDCDS6oVBtRCeElvBxasc3L+r1jTUGeGnpGdbWqE/UVgIotP/+/XtISUnEsaNH0NnRxmAz+v7/6GZXWPPl+fI7uG9Kn0mZuD+KALjPSn/Ed9LoWcHKyiLX/uPK/UFpG3BPW9y3xMZ/DdluYw07xM2uYIMktLGKtY0VLry9voLVtWUusrPyuL8ObqNch29QGTXUAdJoGmXcGWW40g2uKftXVpewuPgTF2pL3ycp7dmzn/DD337A1K1bqKyqQmraVVRUVmNgwIVbMzP49rvv8NOzZyAB0k0SVdD3EP3wd64tM4i8T/Z3VewTACrCYC0VQqc+LC8/4/NJkPL+1fby+tRXzXHlnqWACT+mQWUE+HFZX8UOGs4EgnpRtSMMmnJyqONyn1ZApDmBRdASdYA0mmtlpND2yooi3A3i2CUsLS3i2bNF/PC3v2H+/gJGx8fQ0W1FeVUN0m/kIPZyMqJir+DCxUQuiSkZKCnTo9NqxcStKXzz7bd48vQpVkiANCpZg5exuiJAYIFr7on6Ku9D1AKL1dUVLC0vCt5fF9Si3pewc+JaK4KWN923OEe2UTVfxWcHSZgOBHKsavBYk57D57Lzz7sGdZ6GrJbTV1ZWWWv//ve/4969e/D6fOjs6kaZvgpJqemIio1D9KUrSEi7juxiPaqb2mDu6keXfQimjl7oKhuRlpmDmLgEXIxPQFZuHgwmE7zDPjx4+ACPHz/G8jJpp7xHhRqD+qH2XbQjrqfRSIZXPabiQvskO4TDj7Hx02fg+WHBl8DTBZ77BZs6STy9zqNAaD0N0zWsrq5iaWkJjx8/wfz9+xh0D6HFYEJRSRmupl9HXHwSYi8lIC09G/rqZrR1OeEYHIVrZAaeia/gGf8KQ2Nz8Izfhnf8NnwTtzE0Nos+9yjMnXYU6iqQmJKOK0lpuJGVg8rqGvQ4HPjqzh38+OOPLAgCVhSt4lF/RZ+1BjectyNGzQt5O9oOBErm54JP7TfWxZAUQ5SGPRnSZb7xu/fuYdDlRkNjM65n5eFSQgrOxV5GTFwKrl7PR1llIzqsA/CN3cbU3EMuEzMPMD7zUJTZhxife4iJuQf+Mj57H1QmZu9j6vYDzN79FpMz87A7vaisaUZaRhaPiriEJGTn5sNksWByegrf/+17LC0TFVF/BT1JI00jU9AV0eTKlpr/TwC+6CjdxMYGuXobrFU/PXuK+w/uo9fpRHlFNdKv3UR8UiriElKQmHoNWfmlqGtpQ69rFKNT9zA5+wC3bn+NqdsPMTa9gJGpexi9Nc/b9FkU+izLPYxNizI+Q/uo/V2MTN3B+PQ9TN9+iNmvvsb07QUMjUyh1dKN3KJyJKVdQ3xiKlIzrqFUX4l+lxt/efQIK6ukwRvCWLOdWGLvKxwtvwTwXyzIEqNjDU9/+glzt+/A2uNgAxifmIKz0RcRdSkRCVdvIruI+NqCDoebaeLWna8xTVo6J8AmoEcJ2JkFvyYLrV7A+MwCJgLKPCZm5jE+G1gmZucxMUtt51kAYySIqTuYnF3A9N1vMHn7IQZ802htt6OovBbJGTdxLjYe0RfjkZNfgO7ubty9exeLi4tshMnVJGeCXONQvP8SwN+adrChBgmhOJ/2kVcxOj7O/BoVG4+LV1KQfiMfRfo61LS0w9Q9gN6hSfim7mJcoQsCeETRUtJU0lhVi++BNPlFysTMPUzM3MXE9F2MT9O174rvu3UXoyTcuQcsYO/4HGxON+paTMguKEZiShqiL8QgIyMDXu8Qnj79UbiJARG3Ss3bBn8rg0tBlgqs8ESEpEWwRBadYgApef8xdtHWsLS8BEtHJxJSMlCkr0d9azcM7X3otA+hzz3OWj5MABNFzJB2C3pgsGdeHOhgIQntpxGgjA6FmsZm7mGUBEGCmVvA5G2yE/MYmbqNQd8YDO1W5BaX4mzUBRyJjERRcSEePFxQOD+05j/f2wk/9cJBFgcCHJSQRxJYiPOoyABFHud9ayt4trgIQ1snkjPzUNHQgQZTL5otTnQ5fHD5brE3QtpN2jfOYJNWKvRAtOHX8pcjCBIwFaaq2fuYnHugFKKzexienINreBL2QS/abX1oMrWjor4FebpKXEhIwYHIY9jzwT7k5OVgfv4OR7nC21P9c1JWKoQFYacep/1qOxYOxxTCIxLnqcdFkEVBD0SESxcSFwsVSKjezNoatVvDs8UlGC1dSM7Ig76+HXVGO4ydg3AMjsNN7uHYLDzjs/BN3sbI1FdsEIlmqAhhEFAEfDD46mdBSZsNraQqqoUQSaMF2FNz5AXNwzcxh0HfBOz9HrRZe9Fk6kRVowG6mnoUV1ShqLwC+To9ckvLkZh5HZGnP2Lwswn8hbsMME+HMO+rUyeSkkkADKpyXMQwKoOsKwGlbONnDqxh+35+kNERUlzH4tIKjJZuBr+8rg0NJgc67B4MeKcE8AS+pnjHZ0FcS2WYBUKjIhT4ZEzJ2IrRoQItOFyeQ9QxObfAFDJ66w5ft987ju4+F8xddjQa21Hd2IoyAltfzXFAga4c+WXlKKCiK+OSryvH9bwCfHT2HPbs34+s3GzM37+n0I7K85J+qdYqqna/dpvbbMX5z53V1IwE7UUJfArfF5eWYWzrYtopr29DS7sTtv4RuEamWfNJ+4dGlRGgEYIUCAmBAqXhSRoVYmQQRQlwVfAFVRHQRFkkrDsYuXUb7tEp9LqG0WkfgLGzBw2GdlQ2tKC0qgbF+koUlunBYBPgmlJQVoZCFkAZ8nWi5BSV4mzMRew9eAik+Qv358OCLwzuPxKACmFuX/ODpiBUzV+GicHPRXm9BS3tfXC4xjE8KbwYH0WlY3MsACkEqfnaUaBuzzJVkDBIk6WtGJu5y3ztHplAn9uLLocTxo5uNBgtqGxohq6qFsX6KhSWVaCglMDUMagEsgBaLwRBwlBAlzWBT23ySnSIjruM/YePMPg0i0rRuVbptNvb9nY0Dov2/BcGn6JEAj8pMwdldSaUVhuQX1aHqgYzOnoGMeCbZM0mIEmzCXjPmBwNM34KkiOBjnEZn2EhkDfiGZ9mA2nqtKK+1YTK+kboqqpRpK9AYTnRh9BcohDSZi7lehRyKec2QssVqpGUo9R+8Et1iL2SgIORkcjJzcH9hfC0888DfkY2g59fVo/YhAx8ERWPC/GpSL9ZiLKaJpi7HOhzjzCww1NEM2JehkCXI4IFMD4DDxUWwiy8E7Po94yixdKBkooq5JfqkFdKWq0TGl0uwVZAVj4LrQ4N9qZjTDtipMQlJePIsWMM/vZo5xea26EhIo2KdrjQtqQdv+ZnZENfb0a9wQp9nQHXc0sRe+UqPj9/CZ+dv4gL8Um4eiMPpVX1MHTY0OsiQcyy90MUQ7xPgA+N3uLiHqVtYZydQyNoNFlY00lLSdu5kJb/I2AHab4YOSTMclxJTUPE8ePsav7i4MuVLAGmOt0qP0vw5WdZCysuvB3m/IwcVDRY0N7jZmNLHE4AN5u7kVdSgfiUDJyJjsOn52JwnmYtr+ehtLIRrW096On3wTVM3hHRELmmCi1pwG8ytaFIX8VGU3I1gbZJizcBux3tFzaCrpVwNR2RJ04gOzcbC2Foh3AQ2ITTfNkmtFHeQas15KtKkLU17fcHWQFtxCoOzXU/W1qGwdKFpHQBvsU2CKdnEt6J28KXn6Wo9g772pbuXuiqGpCckYUvouLw0RfR+CI6HonpWSgsq2VB2ZxDGPRNKoIgT2gOpPkUDKngS6O5HWC300aATzYiKT0DR0+eQHZOFhYW7vKcPgVLHOkrwZUEnvHxB1mbFZdsArVZW13xr+BJ5aU67EoWCYJPDgBeBGG8f124miYCn2inwQyLzcXgu0en4Rq5Bdcw0YhiPBXvhYKurl4XymubkXItB2djLuPDz6OZomjRpEBXhdY2G/rcYxgam0HfKwQ/OSMTR0+eRE5uNsjbIeWTYGsVU2JDx4P3az8T8Fu1CevtbI/zV4S3w+Bb0NbjQj8FWEQf7NcL4zk0Og338LQQxtgMR7zkAfkmiJ6G0dJmQ25xBS4mXMWnX8YiIe0GWixWpiPn0DAaA2jnl9P85MxrOHbqFHLzcnD//rySGBA6yJJCoTrYJsrPLIitg6ytZzXlxekCwV9AnyllQ2twifPbetwC/DEyllsHV+zlKB4NGVtyQ2nKYdA3BVOnA02mLnT3DvGoYYNrfjW0I8EnzRec/0/v53cy7TD4djf6fULzvQq4YgTIkbC5Jlpyj0z7XU6aiKOZUDqPBPgqOV8FP4cTtYhepRYH1/8kfn4nkjKzUdHYhnb70M8GnyhKG/USz5PNkP4/xQdNfs1/WR6O1hCrBlcFX2r+rwa+6ueHpZ32FwQ/xJwP+fi0MO71ezvkalYqUwZa4F7Gtgp+SuY1HD91SgRZC9uZ2wnnair4bc352sWUIMMSsJIVeExwPi2mqNMLFY0WWGxuONngzsHrN7ibqea5VESR768B/rXrbHADOT+0QSVbSLQUrJgqPal+vrpPxTGMtyNTP4T/GnwyGVthcFdgbu9GUkYO9PUWmK3Cz/fwtDGBHt7obiUEAv5Vg19QrkdyZiaOnSJXU3o7tIonU0okcCLNhEBX84HEvs04Sfw2H9/x009PQCmDlLm2tPzMX+jz8tKiP4VvU5uln/i8x0+eosXUwUEWgU9rtn1DYvlQAPtfCfxyEWSdOIGb2Vm4c+crvv/llUXQTEBwIUwoxZGwCj4mPi8yRgK7zefvePbsqZIiscTRHGVpUaF5fqrpi/nLed+yaMMdWeTtp89+QquZwM9FeZ0Fze29sPX72HsRtPPzKYeE9qtovq4cCWlXcfT4cWRnZ+Hu3TtKvqZYSuW0SGVZ1Y+NAjwfU/Ja/duU70n4KWmHcrZAHt9BB4UfL2hE0omolfRvXpcUfr16XAynxeUlmNppMUWA32DqQYd9iKeSBeX8F9J8XRmuJKcigmc1KcKlIEskD/B984SigpMyuShjIEpx31SCbKYfO6XtDpLg1gZDmb0MsRhAa5HrMshqp+kFAX6dsQeGTifsgyOs/Vtx+vP2v1LNV6aUaT3gclIyDkce9U8vBOZqSt6mWmAjhUN2gcAVnC/bbW4j7Ic4HmRwg6x6gOQCj3GA4QefDG4uyuosqDXY0GjuQVvPIJxDE0wftJJFFPRzaOjVgy/Wci8lJOJQZATPas6HmdUkkAn49YAnUwijQJxEGxo9gfvp/CDwpeSUWgO+yC5WjwtXk6YXVmBib0cB32hDndGGpjYH2h0eOL23lMRWyf2ChnjqOIR/L0fEqwSf13DLypGnK8OFy1ewP+IIsih7YVtruOFcTSkgNe9JjAyB488AXwWeLqAFX7iagnZqjT0QxY7Gdic6eofR75vG0PicMgoIfDFvH04Avwb4OTodzsfHY9+Rwwr4v+Iyojq0NksuGPxkSTsMvh21JgdqjQ40tUkB0AiQfv+0WCr0z3zKUaHWrxr8vLIyZJWU4ExsLN4/eBBZuaT593geXqut2m2e5w+gnUAFDYcfHdtB/qjfYmsWCzhRSHneirLVBNjCw6Ft5rKNVSwukbdDE2u0gG5mra8xSvB7VQE4vHB6psDLg+RKjpM7ubUn9MrB1+lwraAAn5w/j90yb0fD+cH3LzGQ2BCYm9uoax90jBKttG38z2QRmP6UQEodVIr0TaXhkLVYTFnBs6VFGCwdDD75+ZJy6kwO1Jl6RTHa0WDuhcnqgs01joGRGbgJfCkAXjpUtf5V+/mUz5OnK0daVjZOfPoZdn2wDzdzs3Fv/i4HT4SFvG9tLf1+wkLuZ1w0KZdb4UfteSVLWGyRQyiXzPy1kjQlh5uUnPiyNbCf3yY1Pwh8swI+C8KBerMDTR1OtDm8cAxNYHCEqGhGEYJIK3yVBlekmVBSlR7ZJTpcSknDweMnsGvfXpGxJtMFtYxA2/KpRmVuh7CQuMhjfuZgwaz4z/G3o2VEkgztkOAG11KiwW3ERYS3QwaXOD+U5hPvcyEbwMWOOpMdzR1OdPb60OeZhJvoR44ChYp+CdqRWQ9y0Z1zeXR65JWUI/VGNj4+F4Xdhw7jTwR+nkgXpPsPxkR+3vZ8/ovOahJfyS+lWkqQZzWVIIv9fMXgStrxg28k/ldGgpkoyc55nYbOAXT1edHnmYBrlAyxQj+UYkhrv+OzymJKG6f/BSRGyQSpoFqCG7Lm3Ewd8st0nHZCbmZ6Vg4+i47BgeMnsevAQfx53/u4mZuFe/NfcZbyxvoKwAAGKimxg5bztfjIbam88rO2Dq/5AX5+KPB/huYb+1DLRRhhEkodFzvqzT0wdPWju8+HAc8UhpT8TnUxZRiNZpm3I5KlRNqISPOTya6yZr/dnwglkqxyS0qRW1KCvJJSTowt1legSK9HZjYt4Mfi8IlT2H/8BPZGROC9AwdRUFSIr79+oHC5eCCanlQhipYB0z8B+Ms8tyO8nSDON6lAC+A1AlBoSIwQB+pNdjSRUe4aYCHQIrx7lPI2b8PpGUWjqR2F5RXIozzMMpFlLOtQGk4UU1Su58Lbej1Kq6o4zZCy3lKvXcfn56MY6Dd2vov/eGsn/uP37+K1N9/Ca6+/gXMXLsDR14tv//IdP6/lf8idOH9dznOR1/dCQVaYuZ3nar5mMYVdzXDgC9oh6lGpSNgDKQDK7a83OdBodqC1k2yCh6en7a5hNFk6UVJVg0J9JYoqqlFUUYVCfRUKKBNZKbxdXgGal5dZaHmk7aWlyC4qwpW0dJz+/Az27D+MN975E1773X/i3974PXb+eS9274/A+4ePYffBSPxx7378Yc8+7D9yFF9euIhrWdloajVgdm6WH9rmtzyw2yinF0JPHxDF/OO0ozl5a4O7DDPNaj7P4ErDu1XNI6EXtTRa2EUl78iOlo4+1Ju6kF2iR3xaBmKTUnEx+Spik9IQk5jKT5NcSEiGLFGXE3E+PgFfXorDmZhYfB59ARGnP8Lvd+3Bb3//B/zh/UM49UU0EtNzkFtSA329CU0WO69DkCts7B7k76xu7URpjQE3CytwKSkDn34ZjTNRMSgoLsH4xCSWVyirgZ683IbDspXBpblmko40oGTBtSVYctzO/5oXSppagrGN/PzneDtbgR5qv/SKKD4w2VFa3YILCak4ePw03j9yDPsiT/jL3gjiaW05jr0R1OYY9kYcxdu73sNvd/4ReyNOIS71BnR1BgbX2E1Au2GyDvmL0ermfUbrEKiYbB6YbR4WSJO5B0VltUhIzcTVzBvostrw/Q+PsM4+vRCAwE11RQkrESMIOyGxk+6oEmSJlzfIwMpfK+mCFDgECkdwHQlGBlmJ6ZSlHI52FJczFNgh99lRa+gBrQ+UVDXjfHwy9kYcx5/3H8aeQ5HYc+ho6HIwEu8disTugxF480+78fbufTgTmwhdrRFG6yDM9NqAHg9MNi+MNi9MNh+MVtr2wGAVhT9bPWK/ldp40Wb3cWlp70WBrhrp17PQ1NyCb755qDxlLwItgZNQZjbISsCl3S+3dwgLrtV8dQqBGklB0LZwk0QtpczTC5Sfn07TCy8RfAOBTzbAjpLqFkRdTmZt333wCN47fBTvHQpRDpNAIllIO3fvw9u79uFcXAoqmtphtLlhsrlhsLpgIA23kgCEEAhcLj1KzZ8JfEUg3R4Yuj0srDaHD6buQRSX1/JT9FabDU+ePGZsNmHkZwiBr9bNpO3wrqaG80P7+WrG2gtzvlb7iXYU8OkZr5LqVgX845Dgh9b8SBbMnoMReP3dXTh08lPk6RvQ2j0IQ7cLrV0umGxS84OAlwIIWSujg4TRPQQSQLOlB1m5xSgsKsHt23PsDKmLKapbHkzbWgGEB/+53o4K/kvn/ADwpeaHB588FbIJf/7gEF5/ZxdOn4lBWb0FBusQg0bUYg7Qbq2mB29rheMTI8PmZWqia9BqXU5BGTKu3cDIyMivD/5Lox2/5hPna2lna/CJhvZI8Pcdwm/f/hOOfXIOpTUmpg/B68EAh/usBV9tR1RktnvR2tmHrIJSXM28Bt+w7x8F/0X8/EDNf2ngEwWx5tvQYO5BSXXzc2nHD/5h0vzD+M2b72D/sY9RoG9SvBoPTMzzKpB+rg9JNSHasREm2vHC2O1EdmEpUtPT4fV5flnwg/lMWGxtkCWXEe0cRMnp5OCAatufGfyebYNPNoBpRwH//72xE/siTqNQ3whLzxAXs3UIZpvXX54HvjTK4hzhdtK1rP0j6HS4kVukQ8rVq/D6hhTwpVPyMjh/uwaXJ9bI22lToleaQOtTCgVNyoym1qiG26b2tCAjXc1taH4w+K+9sRP7I0+jtKoJ3U4vupw+tNs9aLN7YekRhbibbQDbAeHNCPfTq1CVMM50Ds3AdjuHGfi+oUnY+jzILyrj970Far7IbJCGNazBVfN2Al1M6UpS6gS5m6obpc5o0mgQK1mUOhIafI5YaQJNLqwwsGF8fhOtgtHoeTHwf/PG77E/8hRKqxtg7feixzUM2+AwbAMjQnP7htHu8DGFWBxerolORBH723t96HKKcxyuMX6Rh8M1ylMe1l43Cop0DL7Hq9X8QO0n8IPxk4L5WS++oKBBSlKu3sggS/j5Ws13suYTzdSE0/LgYy8L/NffxoHIk9BVN8DW7wHND1FxuEfR6x5Dr3scdtc4elyjsLlGYHOPokdT7ENjcHjG0esZQ98QAT/KT9DYB3xwukdh63UhX4I/5GY/nzHRYERY8UoWPbcVtJ+OPT/ICojQaHQo0ZuytEYrWTS9ICJcFXw5gVZjkNkMwdoubIPfBkhqCgv+ibB+vsr5h/Cb19/GwciTKKuuR0+/Bw4CftDHNT0lSW+4crhG4HAPwx6y+OAYGkbv0Ah63cMMPJ3fM0CTfcOw9g4iTwGf3s0jkqaCg1X1mTZpI7V1eD/fz/kEupqFRcNGXETM53PeTnoudLUW1JChNNpBoOfrm5F8oxipWTrermjq5GO0nEiLKVS4rbEHNTLlxNSzBe2kYF/kSew+EMHRbaggKwD8N97CwYgTKK+q5zeOMPCDXgaRngHrddG2KA4XCccbVDzodXtFoXZuLxxuL+yDBP4IrL0uFfwAb2cz55PCSqrR1uFf5xsQZAVymZSgSJqy8sSaBJ8EUGOwIau0Dp9eSMYHx7/AgZNncPLMJUQlZCI9rxwltUZUt3ajzmxDvYUWVEgYPVxCc/7PBP/1t1jzy6sa0OMcYtAcgx70unxcHCwIApVA3qK4qL2mkABcHjg9I7D2CfBT0sjbka5mIEYEtKRpLehyO7zmB4Cvuk90sqr5NKXcjZRreTy3U9ViQ3UrUY2DR0FZfTuuFVYjJukGTp+9hIMnv8C+Y5/gyIdf4rOYJCRcy0dueQP0Te2oMVhR+7I0n8EXmk/gE/AEXK9bAV/RZj/wfEwDdKjPNDoGPaCnI619gnZ+MfDJm5GS28rPX1xeRou5DXHJmdA3WNDa5UZThwu1JieqDWRslRweUw8qmjtQUNGEtOxSnItPx7HPorH/xGdcPolKQHZpnZJ6QsITE2tibqcFUfGp2Bdx6mfRzqGjJ6GvaWDa6R0UWsvgE/ez5ms1XqUhSUdqrQjFr/k+WJ0DyCsqRUpaGr+PjRx9gdFm2iFjK7VdW2+bdkjTtSfSnDRdlF6J6HS5cSUlE+cvJeHy1RzkljUyeM2dg2juGOCUkWqDFVSI26lUtVqhqzPjZkkNLqfnIy4tD/n6Vv+IEdRFVORASVWrAD9SBV/Oamq5P4DzX38LhyJPQl9N4A8pfE4gCs1nYCWnM6gEvjwWXNMxIQDH4BCcHtL8AeQWliA5VQt+IEaEl1Reue6rxTA87fhPpmyrQIMrL0IvPPrxyWOMT06h2WBGVl4xLl5Jw7nYRFxKysT1PB0qGsxo7nSipXsQDe1O1Jkp6LKj2mBj20A0VdlMdEVgU3Am83160WDpQ0m1EVGX0/BBCPB5WoHn9mkJ8CjeP3ycJ9Ze04Dv6B/SAEtej/B8COw+9zD6PCNsRGlbCEB4N2SYHS4fHG4qQgAM/pAP1t5+5BUWIyU1FV6v5Hyi5kDNl95h8H7Cz58uGEoypO0kOQoSCGSZCCSNraypDb3ikd6t+Ze/PsLk1DQ6umwo1VchJeM6zscl8GJI6s0ilNQYmNcpibapox9N7f1oMDtRZ+xDjaFXFPL9leVEBr9GgL8v8hR2HYjAnkPHNEVMqPECy8FI7D0iJt/+/T934uDRU9BXN8Le74XNSe9Y6+cXbTQYOlHf2oFGQyeaTN1obe9Bm9XJbRhwpiRpG8g9pSJoy06az+A7kVtQiKSUZHg85OeTfgrNl7hQrWq+tJNqMLvj6dPH/FwRPTcUqiwu0WvVn4LqUMdpHz1aRGVxkZ7tWuInFOlN3l9/+y3Gp6bQ0dOD0ooaJF29gai4JFy4nIakzFzk6mpR1dzJybQtHURRg6g3k62wo1Ix3PXmXhYYaf6+yNPYdSASuw8dZSH8Wdnee+QYPog8gUzYDKAAAAeySURBVA8ij2P/0RPYfYD8/LdwIPIUSvQNMHU60WC0oqLeAl2NESWVLSiubEJJZTNKq1pQVt2KSlrLNVnRaXdxPCB9e7/2KyPA7vLB6R1Fp70PmTezcOnSRQz09/JbBumZNpox0OIkX0uv3Se3d9BBisIoOgtVOEJTfk4j1HHaR8m28qEw8b56MVLW6Z3E/AbCRfz10feY++oOBl0epqecohLEJV9FVFwyrqTewI1cHUoqm1DTakVT+4AQhKUPdWY7iqqacS4uGXuPnMCu/Yd5weT9IyewN/Ik9hw+ytkGtED+5rt/wOs7d+K1372B//1//i927Y1AZnYZymstKKkyoajCgOIKA4oqWvylWN+CEn0rSiroJXhG1LV08AjpGSBKGoOTolsqnlEudtcIrANeNBjbQQ9SnDt/DgP9ff4Il6djNFjSK+oJn1DYMe3I4SJ5XFtzWOy31oF8Jttphxbt4+FGkTCoSB7kkcn/0aiYX7iPId8wWs1tyC/WISX9Gq4kZyDhajbSc8qQr29CdUs3Wjv7UdlkQVxKBg6f+BDvH47AnoOH8c6efXjz3V14450/4s13/oh3du3CvsOHcPqzTxETfxnHP/wEkSc+RWpmEYr1rSjSG1CoV8CvNKCoUgpC1CSU4spWlFa1orLBgkaTDcZOJyzWQdBrbCy2AZit/Whut6Pe2IWiilqcvxiHmIsX4fN5xc1xVl8gRirnB7rqhFN48MO4mhJ4qoPB1x4TXhGNAAq1yeWizql/9EbaBw8fYmRsDO1d3SjVVyMjK5/fOpJ4NQuZOcVIu5GHD7/4Eu/ufo+1e+efdmH33g8QcewkzkXH4Hp2NmobGmBz2DE6MY6FBw/QbbPjYnwK4hKvo6isCboqEwrLW1kAJAQqNBJkEeDT51YUVhAtGVBabeLYpazWDF2NiZczS6tbUVZrQGZOEc7FXkJ+URHuP7zP97VZidXpGC0mcju8t/MSwJdfJAVEHRQjg2ZKA4VBuTDffPcdpqZnYLP3orK6HjdzC/jt4x9/cQYnP/4Y52NicO3mDdQ1NMA5MIDZ2Tk8+v57rLJgVaH+8Pe/o76pFdGXkpB4NRuF5U3QVZtRUmVGUYWRwS8obwUXPQlFlAJ9K/LLW5BXRm+ZbUZ+WTMKyptRqCeBtKCkqgU3C8pxMSEV6ddvwDPsxTIlG4f4tSVyYsJqftgsZQ34wc9kSVCplsBq9wVvyzbB2sGPTypPcounuVUAnzx5irv35uH2eGDv64XH58P8wjweP3ms/DST2la6cmyD+M3fYEFW1zciJj4RMZfTkJ5VgvyyRuhIo2ssKK0mWyAEQnVxpQnFVUYUV5l4PwlLV2MGaT5pfE5JFb8RPfriFX5xt3vIzY4G3WtwECru/7ngb28ZMfTFiccC3alg0OVnqfHyc2BNVLTBqXhkuAlAIaRAitJCTe35R3bWKWEp8OedVAEDj374HuaODjF6zkThTHQ8Lqdcx7UcHfJKapFf1oDC8mamG6IcNsZ60vYm5OvqkV1YibTr+Yi9korPvozG519GIa+gEJOTk/w7LPzLQVumkT8X/K3T3Ziv5cMRQSniWvCkVmv3BW4LqlFBCTQ+JFgaAfRMMHkGQlDiB2yE90TeGB0jd/cJPxUu0vSItqiokaU4VygEPTnCQsIGbt+5g8qaWpy7EIujJz/CyQ8/xyefR+GTM9E4G3UZMfFpiEvKxMWEdJy/mIhPz8bio8+j8PHn53Diw09w+qNPkJx2FdaeHv7lIlIEfndawFvYA++LMJD9CcRDtFOfTCHPROFjWZOnI37vhAQkfqhMHtPW2sQq7X65TcKRrhZdU+4Prgl4Kto2UrCUDSx/bYj2BZ9LnyXHUp+1bcSNi3Hz/fePMDAwiIoK+smndJw9H43Pz55jwx1zMQ7RMZd436dfnOV9N7NzYDSaMD0zzXGMHH3inkgpFGyCsJP9E+3kLwqpSkjHn7+StbYkXlOuvGGPLhZcRJwgOhF8TH4m8KndOr99fPM1CFyiHEk7UlhcK1E2vw+Cfs1hVTzEJ6+trcX3CL9au59GwRo/bU8jRfwRAPQDBX999B2+/vo+Hj6k8gDffvcNHn3/Vzx5+iNH9rL9Ol+DaFG80p6i+mV6J4XymvaAPiu+PsdJ8hX4Gv+f2iquphi6PH2gPG8kpxLWN0QOYnDGmhxG1I6nH7bkPTHE6EYJDKrluWotNEJqPrXhIn+RjWlF7BOA0vbmIU7XoxFKNyY8qcA2dM3VNfr9q2ccsdP2Vn/0a4sUratvFVFHk6A5cT9i6kUZiVrslL5LBZB4ajEO72pqPJmtbpZuWH6BCmbgTWvbhAZfeAvE+eG8Lzp3awGGEnJgwCP6R3Br35NAgiTwSGBSaPQ96isZVQEF3td2+7PVPW97SnkrzRfejjI6Qvq6osNSQKE7IrSaND8c+Bxt8+gJNLJaoattaISFAl8Ywa2FKEYmBYXUHxpF2utrt+m7SPND3xPdtxRsqNG+ZaKscP0IcAnaLwu+ovnPAZ80VIC2NfiB2vjLgi/68xLBF9wkb04Mc3HD6pCjNgEaIN1R1nw6FnhcOzq20hKiNan5WwV0zwdf0IXg/OA+KApFo4FsShj7Q/dG9/wyNT8YM/qO/w/XHvko+nJSHAAAAABJRU5ErkJggg==;" parent="1" vertex="1">
          <mxGeometry x="590" y="280" width="95" height="81" as="geometry" />
        </mxCell>
        <mxCell id="tPqwYIOhlPdfrOhZ3rKq-38" style="edgeStyle=orthogonalEdgeStyle;rounded=0;orthogonalLoop=1;jettySize=auto;html=1;exitX=0;exitY=0.5;exitDx=0;exitDy=0;entryX=0.5;entryY=0;entryDx=0;entryDy=0;" parent="1" source="tPqwYIOhlPdfrOhZ3rKq-31" target="tPqwYIOhlPdfrOhZ3rKq-33" edge="1">
          <mxGeometry relative="1" as="geometry">
            <Array as="points">
              <mxPoint x="608" y="464" />
            </Array>
          </mxGeometry>
        </mxCell>
        <mxCell id="tPqwYIOhlPdfrOhZ3rKq-39" style="edgeStyle=orthogonalEdgeStyle;rounded=0;orthogonalLoop=1;jettySize=auto;html=1;entryX=0.5;entryY=0;entryDx=0;entryDy=0;" parent="1" source="tPqwYIOhlPdfrOhZ3rKq-31" target="tPqwYIOhlPdfrOhZ3rKq-32" edge="1">
          <mxGeometry relative="1" as="geometry" />
        </mxCell>
        <mxCell id="tPqwYIOhlPdfrOhZ3rKq-31" value="" style="shape=image;verticalLabelPosition=bottom;labelBackgroundColor=#ffffff;verticalAlign=top;aspect=fixed;imageAspect=0;image=data:image/png,iVBORw0KGgoAAAANSUhEUgAAAGYAAABYCAYAAAAHr4K/AAAY0klEQVR4Ae1cB1SVx7Y+4nr33rz13s1LTGJNLNgiTVGTa4vGmHg1XgsqvYOoqChFeu+993MORZogWLABUkVEUbH3gthQQRF7iX5v7TkcBDzCCdKy1vnXGub/Z/ae2bO/2Xv2/P8cOJBcvVIDnF4plUQoSIDppZNAAowEmF6qgV4qlsRiJMD0Ug30UrEkFiMBppdqoJeKJbEYCTC9VAO9VCyJxUiA6RoNPH/5ElGJKQiNiEJoRGSzXHAfEZ+Ep8+fd03nXdjqX95iHj6sx9TFqpjkk4gJgelQ9E/FBEqB6axsmpI67tfVdaEKu6bpvzwwj+rr8YvuaoyLzYVMcCZk/dMhE5QJmaAtkInag5laRqiTANM1s6etVoXAyAZnQs6dD3mXWJbLufEgF5AuAaYt5XVlXRMwIVmQ84iDvCuX5QSSXGCGBJiuVH6bbb97hzl6xpCJ2gVZvxTIeW2CrG8KZH2SIRu2AzO1VkpcWZsKFKPy9MVL4CWlgsfjg8ePe594fHATNiEmLgGxXC5iubymFBYahp+U1DDegw8FnyQoeCZAwSsRCt5JmODBxywVHdQ9eCBG722T3Lx9B/WPHrVN1Im1vWrxT83IxFRjK0i7xULaKfJ9cuNi/CorTDFzF0RevklQFCa/FEzWWg3ptU4YauWPYRt9MZSSlT+kzT0xa7kmHnwiMDX37mOemg6U9Y1w6fKVTlT/x5vqVcBsy9oKGTM39AtIR3+PeAzwiGPpK780DLXwwng3Lr6PzsG4kK0YF7IN40K3YVxsHhTMPPG1G4/RDnThYoAbHwPc+fjGNwXTNQzx4BOjMgsbO0zyTIJ81D78tlwdlcePf1yjnVTTu4DZug1y650xyJWL72xDMNQ2mKXBztEYscEVExzC2Poh584TRF4efMgGpENhgxsG2YUy2mFWARhqE4yhNkEY7BL7ycBUVVVhyjItjM6+ieHlgFx0Pn5dqoLr1Tc6CQLRzfRKYAa68fCtXSi+swthaZBLzHtg/NIEUZdHPOQ84yEbmCEAxj6M0Q61DmSgfmcbjMGu3E8GJisrCz+ae2NE0TOMzKnF8NI3UPRNh/4qY7x9+1a0VjuhtFcBk7tnD2RN3dDfKxGDHaMwxDGSJXJpw8w8MN45CjLBWZD1SYKsTwqzHpmw7ZA388QAJwE9ATrEIRJDHCIw0DMBMzRX4I9XrzqsqrCwcExyj8eIkpcMmJF5DyG9rx5TjTaioKCww+22x9jtwNQ3PAY/JR2JCZuQkJDYIllb2UBBfwMGOkUx10TuidJA5yiMMTTHZDMPyJOFUPTFUjIU/Ddjkv56fGvhjUEOYRhsGyLgtQ/DtzZBmL5EFdGRUS36SYhPRGJyKvYUFrenH/gHBGKiV9J7YHJqMWL/K0wI3g5LWzvG//zpE9y/W4Pau3fx/OnTdtsUh6Dbgbl2vRrTVXQxxj4YoxzCMMohVJAcIzB2vQt+0FwFBZcYKDhGvE+usfjB0BwyeiYYbuWP4RbeTWnYRh9MVNWHoqUvFJyjoOAYLuBzimJlE1UNMLJ5P9SfcyQUzd2ht860XR3x+XxMdozCiJIXAovJqYV00VOMiz+EefN/h8HaDZirtxpTtVaxNE9/DYzNLJEQnwAKsTt6dTsw1dXVUFQ1wNf+aRjozkd/jwQMcKfoKx4DnKMxfqMvxvLyMS50e2P0tRVjY/Mw3ikC31n64WvfVBZxkXujyK2fXxrGmjhDNmw7i9JkArc08cmGbsP36xwZzUBXHvp7JjCeb7yTMMw1BiZWghnflvLKysowZYUFc18jcx8wcEblN2BM6ikMtQ3HFzHF+HvySfTdfB590y+w+y+jizDKPhIzlqqj5OChtpr/aF2PATPINRbDrAME0ZdNEIbaBGKIdSDGm3lCJjC98bUKRV88yPinYYJtEIabeWCIUySLuChio8htkHMMvl/rCHmfJEYr7xLDcjk3LuS9EjFujT2jGWblLwgmbIPxrX0opO1DYWJt/1HFCCtevHiBBaqakI07yFzYqJxajM6pxf9srwZnxy1wtt0AJ+saOJlXBCmrCpy8x+gXnov5Klq4d/++sKk/lfccMG5cpmAWfTElB2OITZAAmKAtkPNMaIy+4iATkN4EDIXOFHFRxEa8A11iBcD4JjP65u/K5L03MWCIhqI1AuRbuxAMcQgXGxjSZmFREaZpGGFsxnmMLmjAPwmU9IvgZFx6n7ZcBmf7DXCy7+Cb4J2YsUQVRys7vt/pdmAe1NZCUc0QAzzj8Z1dKAZT5OUQxtIg+1AoWPhgXNh2wbsu702QJeWGbMUEh1AMs/AGhdKM3jGc8fZ3j8NYExfIBaYzWjmPeJbLeiVCzi+VuTKiIesa7BSJwY7hGET7IqdImNk5tTmLXzx/jsPl5XB1d8e05dqQ5e7HP3ffBYesIvsOONm3BWnHLfTJvIrPuQcgs9EPy3UMUHHkaJttt1fZpcBUnDiJ0pISlBYVslRSWICsjHT8uEAJgxzDMdAxAgMdwgXJKQrfmbpjsu46wXcVPwqHk1kiYCatscMoo40Y4Mp9z+MYgf7O0VBQXwEFt1jm8lgo7ZvM7hVcYzFezQADnKMEPNSnQzgGuMRg1HoX6Orpg2QSpuKCfOzOzgafx4ONoxMW6a/CjyutWQQ2ZncN/rn7HgPl85A9GOEQjWHumyDtzMU4C18oaq+F2so1SExIwKOGhvb03m59lwHz6tUr/KqihfHrnDHO1BPyZl74wdIfkzf6QXGDJxTXewhyuhcmKlvvDsUNVNe8vrGc8TQvJ15hHfE1a0vYR1N7revcoWjmjckkE5OrMbcLw0TvFCjEFGJs5kWMKmiAdMlL/C+tJ+S6Mq9iouZqeLs4g8/lIjUpCfm5Obhy8SL+ePOmXYWLS9BlwLDvJCra+FvyCXB21uAfu+9iVPFzSBc9Y7toyinsbJmo7BmkC1uVs2cBPe0hpKmdFjSNbTUva7wfUfycLdot+6H2G/tqlTP6kpegfFTBY0jn1uG/aXHffIG5rW8Ct0NNR19c/XaYrtOAuX33Xgsh6mprMVNFB/9IPMails+2VmF03gNI5zdAuogAesru6TVHuym3jtESKKO3XQPbfRc9xcjcujZ46yBNii14gtFZVzCi+AV7Foa87fU5Or8BQ/IbIEXrCK0pmdfQZ8sVTNZfj7zcvBZjFT7culMjvP3kvFOAefnqFTTXmcHC1RtnL15mQr17+xb/1tDD35JPgrP7PqR21kA6/xHGZF2BgjMPEyz8MHrrFQYQve6QJsU1WhTLi1+wTR3dj9xXj9FZlyHnm4F/KWlg4jpnjEk7JQCr5IVA6U28xPcS0oVPMDrzEiZYBWHKImUouMRhTPo5jKTJQVZbQv192Ce5Lepz8LYqDLcMwjAzH3zGL2dWP8QjCeYWlh8o/Vr1TXiGReE/ukaoe/Dwg/qOFHQImHfv3qHh8ROcuXAJCRlZUDI0xszlWpilrM02VfRs7uyBWUqqGGnmjeHWIRi7zgU/6ppg2gIlzPh5NmbMmo1pC5bih5XWULSLgIJ3GuSDdkA+ZBfLFbw3Y4JjLCZt8MC/tNcK+GbNxvTf5mHG7DmYPncBftRdj4nWIQLe4GzIB++Egk86a+8Hw42YNn8xZvz8C6b/Np/1N33eQvxLYxUmr3OFokMUxnulQj5w2/s+fTOg6BSLyWsc8eNiFcycPQc/z56Dab8vhrzuevbGYq21PSISkuAfzYO1px9UVplg+hI19kGOdPCbmi4iE1NQefosHj56hLfv3nUEl479ooyAuVVzF4ePn8S+/WUoPngYhypPsOfyY8fZM5XrGZtgtJE9vrKMwldmofjSnocvPVLwpWeaILkno58TH/0cYtHPgYt+jjzBM+X0TOWOXPRzjseX7snv+YjfI4WVC+iIl9/YViOfU9yHPO4p6OeSIOindZ/OcehnG40vTIPxhXkovrCKwf/Z8vG5XTw+t4vDFBV9eAcEoaS8AjlF+5FbXIq8klIUHTyEg0cr2dgPHz+B/YePIK/kAEgPVTdu4c2bP7oPGHF74sfFYdQGb3DCy8EJLAAn4gA4iZXgJBzrPUkoT/RBcIKLwAkqbJkiDmGIVTj01qzv0tf8rXXaIVfWupGPPZ8+cwY/qBpCym8vOP554PjloG/0AfTllaMv96BYiRNTBk7cEXB4h8GJKhWLR6y2SQZeOaQi96NPQB44vnuZfCRjUwrZj6/teJivrIFbt29/bJhdUt6lwJDL0zRciW/seOAEF7PB9wnKFxsYqZgyfJV0FCsyixFQdhqTdp5Hn6gDnwaOEJDoA+gTnC8ARCQoJfjCKQkz2auVyi5RfluNdikw1PGevTmYpGsCTkA+OP65TBFSYUXoy2/fajjR5dDMPwstdXWsXr0agaUnIcWrgJSY1tbCcpoDElIgsApRgJDFhAhAmbZYFcUl+9vSX5fVdTkw9PlV12g1hliGgRNaCk7APoFbi9gPqbgK9OEfRh9+BfrEVYATfxSchEpwNp0AJ/4YpCKKoZh1ArZR8Vhn74Il2yvQh3voz1lMEyCl6BPcDiDkbkNK0N+Oi1lKaigpLe0yxbfXcJcDQwJcuHgR05XU8YVjIqRcM8Fx2gyOcwY43tmQCtoLqYDdkPLeir4uKfi7ZRQ+N/bAcG1TjNHZAE5YIQZlncW4HefB4Zajb2xZ+8A0gkG0UhEl6BO07+MuS7imUHASWIARZv5YoqWH4ydPtqe7Lq3vFmBoBDv25GDGYhUsXLkBSuutMNdwHUvzjNZjobEZNMxssMbBFQ5+gYjYlIz8sjL8lHEInMgDYAFAdJloF8Y7KFizmoNBCzpZR6PrFLmwCwFptJL/9tiKCYYbYWppjZq7d7tU6eI03m3AkDDcpDSord+IXZWnceTWXRRduMJSyeUqVNyswdmHj3H1xWtcf/0W9968xc6bD/E37kFwYlspXwgCrTUxZZCK2g9atyiwEAsMAoUACS6GlH8uhm0MwczlmkhOSRFHZ91C063A0Ig2ZWRhjroeeDlFOHa/Hgdv1qD4SjWKLl9H4aUqlpdcvYEDVbdw4d59WJaeB8c/H5zQIkiFF6MPARBSwEBgYa5/zns39bHFXGgdlNMaF1yCPv65GGQbi8kaK2Hr6IyrV692i8LF7aTbgSHByg4fwUJdI5j6hWLPqfM4evcBDlTfYaAIASKQKB27fgMGu46C47YTHK/dLUEQB4gmMIqZhfzdOxtDLcMwSX0lNlja4PDhCnF11a10PQIMjfDxkyfwCo3Ebxr6cIyOR3blaRy6fR8VNbUoq74DshoCqeTKdRy/cRO2hafwGVmHO4HTbBPY3BronlwUheZBRcwyaCdPYAyw50NmtQNmq+vDw9sXJ06c6FZF/9nOegwYoaDXrt+AR3AE+1po5OiBkMxsbDtygrm38lv3UFFThyM1dbj04CF2XL6Nf2dV4r9CisEJJMULrKApDyyAlF8OPvPchq+cNmGEeSDk9S0wR2sFrBycsGvnTtTW1gq77tV5jwMj1M6jhsfYmVcAa3cfKK8ywSLDNVjh4A7rsFh4bkpHUOZOxO/Zh9TcAhgnbMdwp3gMtInGd5ZhkDb1w/fGzpDXM8NkVQMsMjCGma0D+znHofKDqH/YOa/ihbJ2R95rgGk+2Ddv3uDytSrkFe0HP2UzvEIiYOPhC1Mnd5jYOcPWxR2uXj7wCQhEVHQM0lLTkJebgxOVlbhz+xZev3rZvLm/5H2vBOYvqclOFrrbgKGvnJJLfA10CzBuwRFYtsoEp85fEF+yTqKse1gP7fUbscbWCc9f/HVcXJcDQ6/+F+quxGw1fWTs3NNJ6ha/mZPnzrNd/bTFKmh9YET8VrqfsluAoe/idB5ge86+bh/hmYuX2E8xpi9WAf2W8q9ydRowdOiABn7lejVu3L6DFy/fuw3llevaBOb169e4eaeG8dKspmdxr8dPnuJKVTXOX76K67duf/CNvS1gHtTXf7Qb+lxx/eYtHD97DheuXMWTP/m7Fwr/79V1/NfSnwwMKYaXmgE14w2YunA5m53TFqmwDSOdJKFDG1om5iKBuVdbh2BeApQM12DqImXGO3WhMpauWIPA2DjUtHFS/uLVa3DyD8FcdT12SoV+8kDuivZA/LQtTROjOTB3mp1984viYq6mIUL5iS3AefX6NdK274LGWnPW3k/LNDFDSQ3zNPXhHBCK8238apl407N3w9DCFr8oa+GnperwDo9u0b64D58EzLlLl7GcrEFFBzOVtTBzqRoW6a7EHBUt0IB+VtHBHGUt/KqizZ6bu7IDFUcxX8sQP6vqYuYyTcxersl4f16mwY5CEe98bUMcOfHhd5HMXXvZoImXfjFGfS43WgvinaWijTkaBqg8fYbpQAjMtEXKoEn0+s0bWLr7sIlCtEmZ25p0RVars8GSjYdc76yl6iBr/4/OCgbObFWaBKpI3ZbdxCO8IevSM7VqbFcHNMHmaugjelOqkORP5R0GhmbfXHVdJgjNpuy8AtQ9fMgG3vDkCYrKDkF9jSkDZMrC5ZixVKNpjSFl0Sykc1jLjNaioPQgyPRJaQ/qH2HnvkJ2eG6msjZmK2sxlyIc1b79B/ATgbdME8Y2TizSI9dHQQZFYDty85nihBGYEBgC/tK1KhadCc+/0Zk44fXk6TMGLk2yX1V1sDl7N2ofPGTtUqhP58TsfQIxfbEqG9PewhIhKxv3Ir2VDNA5KtpI3rqDuXOaCB29OgwMCUkD/FVNh/l4UQLQYA3MrRtdjQZTGtFRGfEuMTBmgxfFe/d+LZatWMsGa+LgykhI2b9rGTBAjSzt8Mcf7Z/ZImDIxc1apoH5mvpMqTTrd+S2DETC4zexvggUWlNEXfsPVWDmUg1m5WttnZtIXAJCGS+dPP0YbxOxmDcdAoYsgmYgzfjELVvb7IrWArIOmuV0UK7+UQNbT2hNyC8ta5O3pPwwO9lJaxdZ1PEz55jlUXviKoABs0gFzGqV1DFzqToKDhxs0S8FKgQ4TZbIhOQWdcIHckkEKI1Zc505C1Sorr6hgblQKt+8Y5eQ/JPzDgFztfoG86G0yF+9Xt2uEEoGq9mgCYhzl67gJ5p1y9Tx6PHjNnnpGO6sZeqMnqKufaVlrB1qT9xLCAxZzQLtFexYb2veqpu3WOAyQ0kdhytbfg4g92hKx32Vtdl+iKzjWbP/GEgTj9qm4OXajZutm+7wc4eAIQFoFpNAFB63dVEYTR/FaGAEDM10AoYWVrKCtq6H9Y9YQEH0FA0VlpWzdhbrrWK+vy1eYV0LYHSMcOrch28faNGf8p9lzDrpaKvwonWFzmFTIEJjTdn64aJ/ttFVEn+Pn/Z/+uwZflPTEbiyZguocEDN8yMnTjEXQLORlERWMnXRcgZO8wW0OY/wPjsvn9HRJKCg4HLVdbZe0SHuE2fPCcnazIXACF0ZucHc4pZnxeh88bIVaxjofpGxrD1yS7TQEyiL9Fah4viH0SERUmRKoBEwtH/rrKtDFkOd0z5AGMGcFDELiYZ+kkD7CvK/NPMo6qLLrNE1LNBZ8dHAgVzkPE2B3ze2cWR8FHlprRPsiWjfdFeMj14MmMbFf4G2YePir4YtrV4P0esiCvnJktfaOQsCFiV1WLh6sa+tTAARf3odMBQAkLKZ712qjpjkNFy9foNZxJ1791jIS/UECi2azWcczSyK5kgRc1S1sSlzG6pv3Wa8tCElJdHGkeopXG7uLo+fOdu4CGuyNSN9x27m2ylUv3ztOrip6ewnEsL1i4Ch/ilYIbDpmw7JTO6Rn5bRpGoCnSYA1U1XUmM8FA0S+DX37mPr3jy4BIWj7MixJh666XXAkFCkTIpQaDBkPbQA0iaPzJr2IOQGftcyRFFZeYvB0AP5egqXiY/4yV0JeJezTSKVLzNaJ9Jl5RSVMMCIhsCjfn9aospcCm06f9EwAAFIF73EpIhw6iIVtqb98fYt7H2DmuSL27ylSbbHT5/C3MWL0bM3CYuU2RpHspGMv+mshK23fxM93Zy5cBHkpsmd0Sazs64OuzKhAM9fvGAbKgNzG9Dmig1iqTo01pqxH/Dcb+N9ES3uscmboWVigZ+XazLe2cqa0DW1QkLGVrZTF/bTOq+6cRO+kVz25oH+wx/1Sz8aWrHRjoWtbxr3OHdr67BYfxU01piC9lXCK4SXgHnaK0TuzCnI2Ojug/laBqxdap/GE5uSzn6MJGyDchofRXtL9FeDvEhnXZ8MTHNBKLyl91+0UP/Zi/YDtKkUuiBx+WmTSTv0mvu1LRTfnJ8mD73Han21J+ez5y9Abzjut/MfAukFZ/MQunU/HXnuVGA6IoCER7QGJMCI1kuPl0qA6XEIRAsgAUa0Xnq8VAJMj0MgWgAJMKL10uOlEmB6HALRAkiAEa2XHi+VANPjEIgWQAKMaL30eKkEmB6HQLQAEmBE66XHSyXA9DgEogWQACNaLz1eKgGmxyEQLYAEGNF66fFSCTA9DoFoASTAiNZLj5f+P88daEEhdbexAAAAAElFTkSuQmCC;" parent="1" vertex="1">
          <mxGeometry x="740" y="420" width="102" height="88" as="geometry" />
        </mxCell>
        <mxCell id="tPqwYIOhlPdfrOhZ3rKq-32" value="" style="shape=image;verticalLabelPosition=bottom;labelBackgroundColor=#ffffff;verticalAlign=top;aspect=fixed;imageAspect=0;image=data:image/png,iVBORw0KGgoAAAANSUhEUgAAAF8AAABRCAYAAAC0RnqFAAAgAElEQVR4AdV96XcTV7Yv3+77J9798tZ67y94X96Ht9ZL33u7k9ykSXoAEgijzZw5ELCxwQbP2GbwPMqW59maPEqWbNmWLMmz8UAAG8jQTdIdIHj27629Tx1VSZaF0xDS16zDKVWdKp367X1+e+9zdpV2rK4uYWNjDcD6pkL719dXuWzVBlDbhLqG3Bf+Omvch5WVJayuLmNjQ9uXDdDfwsI84uMv4V//9b/jX/7bv+DtnW/D1mPD+vo61rHB/+i71tfXsLZG11jddD/b6wt99wbW1le5L+trYa6zQdisbImf6I/AT363tt4RDnw+mb5gY5W6s8XNrPFxAld74eBtKcithLiBdb5ZAp8EGng+sLy8iLY2E373u3/D//qf/wPJyYl49OivLBghLNrcYCAEIFv3h/tC97SF0mnBX3su+OGuQ8oQBnzSNgHcGgNMIPuL1HwN+P5jst3GGtbWV1gDCDS6oVBtRCeElvBxasc3L+r1jTUGeGnpGdbWqE/UVgIotP/+/XtISUnEsaNH0NnRxmAz+v7/6GZXWPPl+fI7uG9Kn0mZuD+KALjPSn/Ed9LoWcHKyiLX/uPK/UFpG3BPW9y3xMZ/DdluYw07xM2uYIMktLGKtY0VLry9voLVtWUusrPyuL8ObqNch29QGTXUAdJoGmXcGWW40g2uKftXVpewuPgTF2pL3ycp7dmzn/DD337A1K1bqKyqQmraVVRUVmNgwIVbMzP49rvv8NOzZyAB0k0SVdD3EP3wd64tM4i8T/Z3VewTACrCYC0VQqc+LC8/4/NJkPL+1fby+tRXzXHlnqWACT+mQWUE+HFZX8UOGs4EgnpRtSMMmnJyqONyn1ZApDmBRdASdYA0mmtlpND2yooi3A3i2CUsLS3i2bNF/PC3v2H+/gJGx8fQ0W1FeVUN0m/kIPZyMqJir+DCxUQuiSkZKCnTo9NqxcStKXzz7bd48vQpVkiANCpZg5exuiJAYIFr7on6Ku9D1AKL1dUVLC0vCt5fF9Si3pewc+JaK4KWN923OEe2UTVfxWcHSZgOBHKsavBYk57D57Lzz7sGdZ6GrJbTV1ZWWWv//ve/4969e/D6fOjs6kaZvgpJqemIio1D9KUrSEi7juxiPaqb2mDu6keXfQimjl7oKhuRlpmDmLgEXIxPQFZuHgwmE7zDPjx4+ACPHz/G8jJpp7xHhRqD+qH2XbQjrqfRSIZXPabiQvskO4TDj7Hx02fg+WHBl8DTBZ77BZs6STy9zqNAaD0N0zWsrq5iaWkJjx8/wfz9+xh0D6HFYEJRSRmupl9HXHwSYi8lIC09G/rqZrR1OeEYHIVrZAaeia/gGf8KQ2Nz8Izfhnf8NnwTtzE0Nos+9yjMnXYU6iqQmJKOK0lpuJGVg8rqGvQ4HPjqzh38+OOPLAgCVhSt4lF/RZ+1BjectyNGzQt5O9oOBErm54JP7TfWxZAUQ5SGPRnSZb7xu/fuYdDlRkNjM65n5eFSQgrOxV5GTFwKrl7PR1llIzqsA/CN3cbU3EMuEzMPMD7zUJTZhxife4iJuQf+Mj57H1QmZu9j6vYDzN79FpMz87A7vaisaUZaRhaPiriEJGTn5sNksWByegrf/+17LC0TFVF/BT1JI00jU9AV0eTKlpr/TwC+6CjdxMYGuXobrFU/PXuK+w/uo9fpRHlFNdKv3UR8UiriElKQmHoNWfmlqGtpQ69rFKNT9zA5+wC3bn+NqdsPMTa9gJGpexi9Nc/b9FkU+izLPYxNizI+Q/uo/V2MTN3B+PQ9TN9+iNmvvsb07QUMjUyh1dKN3KJyJKVdQ3xiKlIzrqFUX4l+lxt/efQIK6ukwRvCWLOdWGLvKxwtvwTwXyzIEqNjDU9/+glzt+/A2uNgAxifmIKz0RcRdSkRCVdvIruI+NqCDoebaeLWna8xTVo6J8AmoEcJ2JkFvyYLrV7A+MwCJgLKPCZm5jE+G1gmZucxMUtt51kAYySIqTuYnF3A9N1vMHn7IQZ802htt6OovBbJGTdxLjYe0RfjkZNfgO7ubty9exeLi4tshMnVJGeCXONQvP8SwN+adrChBgmhOJ/2kVcxOj7O/BoVG4+LV1KQfiMfRfo61LS0w9Q9gN6hSfim7mJcoQsCeETRUtJU0lhVi++BNPlFysTMPUzM3MXE9F2MT9O174rvu3UXoyTcuQcsYO/4HGxON+paTMguKEZiShqiL8QgIyMDXu8Qnj79UbiJARG3Ss3bBn8rg0tBlgqs8ESEpEWwRBadYgApef8xdtHWsLS8BEtHJxJSMlCkr0d9azcM7X3otA+hzz3OWj5MABNFzJB2C3pgsGdeHOhgIQntpxGgjA6FmsZm7mGUBEGCmVvA5G2yE/MYmbqNQd8YDO1W5BaX4mzUBRyJjERRcSEePFxQOD+05j/f2wk/9cJBFgcCHJSQRxJYiPOoyABFHud9ayt4trgIQ1snkjPzUNHQgQZTL5otTnQ5fHD5brE3QtpN2jfOYJNWKvRAtOHX8pcjCBIwFaaq2fuYnHugFKKzexienINreBL2QS/abX1oMrWjor4FebpKXEhIwYHIY9jzwT7k5OVgfv4OR7nC21P9c1JWKoQFYacep/1qOxYOxxTCIxLnqcdFkEVBD0SESxcSFwsVSKjezNoatVvDs8UlGC1dSM7Ig76+HXVGO4ydg3AMjsNN7uHYLDzjs/BN3sbI1FdsEIlmqAhhEFAEfDD46mdBSZsNraQqqoUQSaMF2FNz5AXNwzcxh0HfBOz9HrRZe9Fk6kRVowG6mnoUV1ShqLwC+To9ckvLkZh5HZGnP2Lwswn8hbsMME+HMO+rUyeSkkkADKpyXMQwKoOsKwGlbONnDqxh+35+kNERUlzH4tIKjJZuBr+8rg0NJgc67B4MeKcE8AS+pnjHZ0FcS2WYBUKjIhT4ZEzJ2IrRoQItOFyeQ9QxObfAFDJ66w5ft987ju4+F8xddjQa21Hd2IoyAltfzXFAga4c+WXlKKCiK+OSryvH9bwCfHT2HPbs34+s3GzM37+n0I7K85J+qdYqqna/dpvbbMX5z53V1IwE7UUJfArfF5eWYWzrYtopr29DS7sTtv4RuEamWfNJ+4dGlRGgEYIUCAmBAqXhSRoVYmQQRQlwVfAFVRHQRFkkrDsYuXUb7tEp9LqG0WkfgLGzBw2GdlQ2tKC0qgbF+koUlunBYBPgmlJQVoZCFkAZ8nWi5BSV4mzMRew9eAik+Qv358OCLwzuPxKACmFuX/ODpiBUzV+GicHPRXm9BS3tfXC4xjE8KbwYH0WlY3MsACkEqfnaUaBuzzJVkDBIk6WtGJu5y3ztHplAn9uLLocTxo5uNBgtqGxohq6qFsX6KhSWVaCglMDUMagEsgBaLwRBwlBAlzWBT23ySnSIjruM/YePMPg0i0rRuVbptNvb9nY0Dov2/BcGn6JEAj8pMwdldSaUVhuQX1aHqgYzOnoGMeCbZM0mIEmzCXjPmBwNM34KkiOBjnEZn2EhkDfiGZ9mA2nqtKK+1YTK+kboqqpRpK9AYTnRh9BcohDSZi7lehRyKec2QssVqpGUo9R+8Et1iL2SgIORkcjJzcH9hfC0888DfkY2g59fVo/YhAx8ERWPC/GpSL9ZiLKaJpi7HOhzjzCww1NEM2JehkCXI4IFMD4DDxUWwiy8E7Po94yixdKBkooq5JfqkFdKWq0TGl0uwVZAVj4LrQ4N9qZjTDtipMQlJePIsWMM/vZo5xea26EhIo2KdrjQtqQdv+ZnZENfb0a9wQp9nQHXc0sRe+UqPj9/CZ+dv4gL8Um4eiMPpVX1MHTY0OsiQcyy90MUQ7xPgA+N3uLiHqVtYZydQyNoNFlY00lLSdu5kJb/I2AHab4YOSTMclxJTUPE8ePsav7i4MuVLAGmOt0qP0vw5WdZCysuvB3m/IwcVDRY0N7jZmNLHE4AN5u7kVdSgfiUDJyJjsOn52JwnmYtr+ehtLIRrW096On3wTVM3hHRELmmCi1pwG8ytaFIX8VGU3I1gbZJizcBux3tFzaCrpVwNR2RJ04gOzcbC2Foh3AQ2ITTfNkmtFHeQas15KtKkLU17fcHWQFtxCoOzXU/W1qGwdKFpHQBvsU2CKdnEt6J28KXn6Wo9g772pbuXuiqGpCckYUvouLw0RfR+CI6HonpWSgsq2VB2ZxDGPRNKoIgT2gOpPkUDKngS6O5HWC300aATzYiKT0DR0+eQHZOFhYW7vKcPgVLHOkrwZUEnvHxB1mbFZdsArVZW13xr+BJ5aU67EoWCYJPDgBeBGG8f124miYCn2inwQyLzcXgu0en4Rq5Bdcw0YhiPBXvhYKurl4XymubkXItB2djLuPDz6OZomjRpEBXhdY2G/rcYxgam0HfKwQ/OSMTR0+eRE5uNsjbIeWTYGsVU2JDx4P3az8T8Fu1CevtbI/zV4S3w+Bb0NbjQj8FWEQf7NcL4zk0Og338LQQxtgMR7zkAfkmiJ6G0dJmQ25xBS4mXMWnX8YiIe0GWixWpiPn0DAaA2jnl9P85MxrOHbqFHLzcnD//rySGBA6yJJCoTrYJsrPLIitg6ytZzXlxekCwV9AnyllQ2twifPbetwC/DEyllsHV+zlKB4NGVtyQ2nKYdA3BVOnA02mLnT3DvGoYYNrfjW0I8EnzRec/0/v53cy7TD4djf6fULzvQq4YgTIkbC5Jlpyj0z7XU6aiKOZUDqPBPgqOV8FP4cTtYhepRYH1/8kfn4nkjKzUdHYhnb70M8GnyhKG/USz5PNkP4/xQdNfs1/WR6O1hCrBlcFX2r+rwa+6ueHpZ32FwQ/xJwP+fi0MO71ezvkalYqUwZa4F7Gtgp+SuY1HD91SgRZC9uZ2wnnair4bc352sWUIMMSsJIVeExwPi2mqNMLFY0WWGxuONngzsHrN7ibqea5VESR768B/rXrbHADOT+0QSVbSLQUrJgqPal+vrpPxTGMtyNTP4T/GnwyGVthcFdgbu9GUkYO9PUWmK3Cz/fwtDGBHt7obiUEAv5Vg19QrkdyZiaOnSJXU3o7tIonU0okcCLNhEBX84HEvs04Sfw2H9/x009PQCmDlLm2tPzMX+jz8tKiP4VvU5uln/i8x0+eosXUwUEWgU9rtn1DYvlQAPtfCfxyEWSdOIGb2Vm4c+crvv/llUXQTEBwIUwoxZGwCj4mPi8yRgK7zefvePbsqZIiscTRHGVpUaF5fqrpi/nLed+yaMMdWeTtp89+QquZwM9FeZ0Fze29sPX72HsRtPPzKYeE9qtovq4cCWlXcfT4cWRnZ+Hu3TtKvqZYSuW0SGVZ1Y+NAjwfU/Ja/duU70n4KWmHcrZAHt9BB4UfL2hE0omolfRvXpcUfr16XAynxeUlmNppMUWA32DqQYd9iKeSBeX8F9J8XRmuJKcigmc1KcKlIEskD/B984SigpMyuShjIEpx31SCbKYfO6XtDpLg1gZDmb0MsRhAa5HrMshqp+kFAX6dsQeGTifsgyOs/Vtx+vP2v1LNV6aUaT3gclIyDkce9U8vBOZqSt6mWmAjhUN2gcAVnC/bbW4j7Ic4HmRwg6x6gOQCj3GA4QefDG4uyuosqDXY0GjuQVvPIJxDE0wftJJFFPRzaOjVgy/Wci8lJOJQZATPas6HmdUkkAn49YAnUwijQJxEGxo9gfvp/CDwpeSUWgO+yC5WjwtXk6YXVmBib0cB32hDndGGpjYH2h0eOL23lMRWyf2ChnjqOIR/L0fEqwSf13DLypGnK8OFy1ewP+IIsih7YVtruOFcTSkgNe9JjAyB488AXwWeLqAFX7iagnZqjT0QxY7Gdic6eofR75vG0PicMgoIfDFvH04Avwb4OTodzsfHY9+Rwwr4v+Iyojq0NksuGPxkSTsMvh21JgdqjQ40tUkB0AiQfv+0WCr0z3zKUaHWrxr8vLIyZJWU4ExsLN4/eBBZuaT593geXqut2m2e5w+gnUAFDYcfHdtB/qjfYmsWCzhRSHneirLVBNjCw6Ft5rKNVSwukbdDE2u0gG5mra8xSvB7VQE4vHB6psDLg+RKjpM7ubUn9MrB1+lwraAAn5w/j90yb0fD+cH3LzGQ2BCYm9uoax90jBKttG38z2QRmP6UQEodVIr0TaXhkLVYTFnBs6VFGCwdDD75+ZJy6kwO1Jl6RTHa0WDuhcnqgs01joGRGbgJfCkAXjpUtf5V+/mUz5OnK0daVjZOfPoZdn2wDzdzs3Fv/i4HT4SFvG9tLf1+wkLuZ1w0KZdb4UfteSVLWGyRQyiXzPy1kjQlh5uUnPiyNbCf3yY1Pwh8swI+C8KBerMDTR1OtDm8cAxNYHCEqGhGEYJIK3yVBlekmVBSlR7ZJTpcSknDweMnsGvfXpGxJtMFtYxA2/KpRmVuh7CQuMhjfuZgwaz4z/G3o2VEkgztkOAG11KiwW3ERYS3QwaXOD+U5hPvcyEbwMWOOpMdzR1OdPb60OeZhJvoR44ChYp+CdqRWQ9y0Z1zeXR65JWUI/VGNj4+F4Xdhw7jTwR+nkgXpPsPxkR+3vZ8/ovOahJfyS+lWkqQZzWVIIv9fMXgStrxg28k/ldGgpkoyc55nYbOAXT1edHnmYBrlAyxQj+UYkhrv+OzymJKG6f/BSRGyQSpoFqCG7Lm3Ewd8st0nHZCbmZ6Vg4+i47BgeMnsevAQfx53/u4mZuFe/NfcZbyxvoKwAAGKimxg5bztfjIbam88rO2Dq/5AX5+KPB/huYb+1DLRRhhEkodFzvqzT0wdPWju8+HAc8UhpT8TnUxZRiNZpm3I5KlRNqISPOTya6yZr/dnwglkqxyS0qRW1KCvJJSTowt1legSK9HZjYt4Mfi8IlT2H/8BPZGROC9AwdRUFSIr79+oHC5eCCanlQhipYB0z8B+Ms8tyO8nSDON6lAC+A1AlBoSIwQB+pNdjSRUe4aYCHQIrx7lPI2b8PpGUWjqR2F5RXIozzMMpFlLOtQGk4UU1Su58Lbej1Kq6o4zZCy3lKvXcfn56MY6Dd2vov/eGsn/uP37+K1N9/Ca6+/gXMXLsDR14tv//IdP6/lf8idOH9dznOR1/dCQVaYuZ3nar5mMYVdzXDgC9oh6lGpSNgDKQDK7a83OdBodqC1k2yCh6en7a5hNFk6UVJVg0J9JYoqqlFUUYVCfRUKKBNZKbxdXgGal5dZaHmk7aWlyC4qwpW0dJz+/Az27D+MN975E1773X/i3974PXb+eS9274/A+4ePYffBSPxx7378Yc8+7D9yFF9euIhrWdloajVgdm6WH9rmtzyw2yinF0JPHxDF/OO0ozl5a4O7DDPNaj7P4ErDu1XNI6EXtTRa2EUl78iOlo4+1Ju6kF2iR3xaBmKTUnEx+Spik9IQk5jKT5NcSEiGLFGXE3E+PgFfXorDmZhYfB59ARGnP8Lvd+3Bb3//B/zh/UM49UU0EtNzkFtSA329CU0WO69DkCts7B7k76xu7URpjQE3CytwKSkDn34ZjTNRMSgoLsH4xCSWVyirgZ683IbDspXBpblmko40oGTBtSVYctzO/5oXSppagrGN/PzneDtbgR5qv/SKKD4w2VFa3YILCak4ePw03j9yDPsiT/jL3gjiaW05jr0R1OYY9kYcxdu73sNvd/4ReyNOIS71BnR1BgbX2E1Au2GyDvmL0ermfUbrEKiYbB6YbR4WSJO5B0VltUhIzcTVzBvostrw/Q+PsM4+vRCAwE11RQkrESMIOyGxk+6oEmSJlzfIwMpfK+mCFDgECkdwHQlGBlmJ6ZSlHI52FJczFNgh99lRa+gBrQ+UVDXjfHwy9kYcx5/3H8aeQ5HYc+ho6HIwEu8disTugxF480+78fbufTgTmwhdrRFG6yDM9NqAHg9MNi+MNi9MNh+MVtr2wGAVhT9bPWK/ldp40Wb3cWlp70WBrhrp17PQ1NyCb755qDxlLwItgZNQZjbISsCl3S+3dwgLrtV8dQqBGklB0LZwk0QtpczTC5Sfn07TCy8RfAOBTzbAjpLqFkRdTmZt333wCN47fBTvHQpRDpNAIllIO3fvw9u79uFcXAoqmtphtLlhsrlhsLpgIA23kgCEEAhcLj1KzZ8JfEUg3R4Yuj0srDaHD6buQRSX1/JT9FabDU+ePGZsNmHkZwiBr9bNpO3wrqaG80P7+WrG2gtzvlb7iXYU8OkZr5LqVgX845Dgh9b8SBbMnoMReP3dXTh08lPk6RvQ2j0IQ7cLrV0umGxS84OAlwIIWSujg4TRPQQSQLOlB1m5xSgsKsHt23PsDKmLKapbHkzbWgGEB/+53o4K/kvn/ADwpeaHB588FbIJf/7gEF5/ZxdOn4lBWb0FBusQg0bUYg7Qbq2mB29rheMTI8PmZWqia9BqXU5BGTKu3cDIyMivD/5Lox2/5hPna2lna/CJhvZI8Pcdwm/f/hOOfXIOpTUmpg/B68EAh/usBV9tR1RktnvR2tmHrIJSXM28Bt+w7x8F/0X8/EDNf2ngEwWx5tvQYO5BSXXzc2nHD/5h0vzD+M2b72D/sY9RoG9SvBoPTMzzKpB+rg9JNSHasREm2vHC2O1EdmEpUtPT4fV5flnwg/lMWGxtkCWXEe0cRMnp5OCAatufGfyebYNPNoBpRwH//72xE/siTqNQ3whLzxAXs3UIZpvXX54HvjTK4hzhdtK1rP0j6HS4kVukQ8rVq/D6hhTwpVPyMjh/uwaXJ9bI22lToleaQOtTCgVNyoym1qiG26b2tCAjXc1taH4w+K+9sRP7I0+jtKoJ3U4vupw+tNs9aLN7YekRhbibbQDbAeHNCPfTq1CVMM50Ds3AdjuHGfi+oUnY+jzILyrj970Far7IbJCGNazBVfN2Al1M6UpS6gS5m6obpc5o0mgQK1mUOhIafI5YaQJNLqwwsGF8fhOtgtHoeTHwf/PG77E/8hRKqxtg7feixzUM2+AwbAMjQnP7htHu8DGFWBxerolORBH723t96HKKcxyuMX6Rh8M1ylMe1l43Cop0DL7Hq9X8QO0n8IPxk4L5WS++oKBBSlKu3sggS/j5Ws13suYTzdSE0/LgYy8L/NffxoHIk9BVN8DW7wHND1FxuEfR6x5Dr3scdtc4elyjsLlGYHOPokdT7ENjcHjG0esZQ98QAT/KT9DYB3xwukdh63UhX4I/5GY/nzHRYERY8UoWPbcVtJ+OPT/ICojQaHQo0ZuytEYrWTS9ICJcFXw5gVZjkNkMwdoubIPfBkhqCgv+ibB+vsr5h/Cb19/GwciTKKuuR0+/Bw4CftDHNT0lSW+4crhG4HAPwx6y+OAYGkbv0Ah63cMMPJ3fM0CTfcOw9g4iTwGf3s0jkqaCg1X1mTZpI7V1eD/fz/kEupqFRcNGXETM53PeTnoudLUW1JChNNpBoOfrm5F8oxipWTrermjq5GO0nEiLKVS4rbEHNTLlxNSzBe2kYF/kSew+EMHRbaggKwD8N97CwYgTKK+q5zeOMPCDXgaRngHrddG2KA4XCccbVDzodXtFoXZuLxxuL+yDBP4IrL0uFfwAb2cz55PCSqrR1uFf5xsQZAVymZSgSJqy8sSaBJ8EUGOwIau0Dp9eSMYHx7/AgZNncPLMJUQlZCI9rxwltUZUt3ajzmxDvYUWVEgYPVxCc/7PBP/1t1jzy6sa0OMcYtAcgx70unxcHCwIApVA3qK4qL2mkABcHjg9I7D2CfBT0sjbka5mIEYEtKRpLehyO7zmB4Cvuk90sqr5NKXcjZRreTy3U9ViQ3UrUY2DR0FZfTuuFVYjJukGTp+9hIMnv8C+Y5/gyIdf4rOYJCRcy0dueQP0Te2oMVhR+7I0n8EXmk/gE/AEXK9bAV/RZj/wfEwDdKjPNDoGPaCnI619gnZ+MfDJm5GS28rPX1xeRou5DXHJmdA3WNDa5UZThwu1JieqDWRslRweUw8qmjtQUNGEtOxSnItPx7HPorH/xGdcPolKQHZpnZJ6QsITE2tibqcFUfGp2Bdx6mfRzqGjJ6GvaWDa6R0UWsvgE/ez5ms1XqUhSUdqrQjFr/k+WJ0DyCsqRUpaGr+PjRx9gdFm2iFjK7VdW2+bdkjTtSfSnDRdlF6J6HS5cSUlE+cvJeHy1RzkljUyeM2dg2juGOCUkWqDFVSI26lUtVqhqzPjZkkNLqfnIy4tD/n6Vv+IEdRFVORASVWrAD9SBV/Oamq5P4DzX38LhyJPQl9N4A8pfE4gCs1nYCWnM6gEvjwWXNMxIQDH4BCcHtL8AeQWliA5VQt+IEaEl1Reue6rxTA87fhPpmyrQIMrL0IvPPrxyWOMT06h2WBGVl4xLl5Jw7nYRFxKysT1PB0qGsxo7nSipXsQDe1O1Jkp6LKj2mBj20A0VdlMdEVgU3Am83160WDpQ0m1EVGX0/BBCPB5WoHn9mkJ8CjeP3ycJ9Ze04Dv6B/SAEtej/B8COw+9zD6PCNsRGlbCEB4N2SYHS4fHG4qQgAM/pAP1t5+5BUWIyU1FV6v5Hyi5kDNl95h8H7Cz58uGEoypO0kOQoSCGSZCCSNraypDb3ikd6t+Ze/PsLk1DQ6umwo1VchJeM6zscl8GJI6s0ilNQYmNcpibapox9N7f1oMDtRZ+xDjaFXFPL9leVEBr9GgL8v8hR2HYjAnkPHNEVMqPECy8FI7D0iJt/+/T934uDRU9BXN8Le74XNSe9Y6+cXbTQYOlHf2oFGQyeaTN1obe9Bm9XJbRhwpiRpG8g9pSJoy06az+A7kVtQiKSUZHg85OeTfgrNl7hQrWq+tJNqMLvj6dPH/FwRPTcUqiwu0WvVn4LqUMdpHz1aRGVxkZ7tWuInFOlN3l9/+y3Gp6bQ0dOD0ooaJF29gai4JFy4nIakzFzk6mpR1dzJybQtHURRg6g3k62wo1Ix3PXmXhYYaf6+yNPYdSASuw8dZSH8Wdnee+QYPog8gUzYDKAAAAeySURBVA8ij2P/0RPYfYD8/LdwIPIUSvQNMHU60WC0oqLeAl2NESWVLSiubEJJZTNKq1pQVt2KSlrLNVnRaXdxPCB9e7/2KyPA7vLB6R1Fp70PmTezcOnSRQz09/JbBumZNpox0OIkX0uv3Se3d9BBisIoOgtVOEJTfk4j1HHaR8m28qEw8b56MVLW6Z3E/AbCRfz10feY++oOBl0epqecohLEJV9FVFwyrqTewI1cHUoqm1DTakVT+4AQhKUPdWY7iqqacS4uGXuPnMCu/Yd5weT9IyewN/Ik9hw+ytkGtED+5rt/wOs7d+K1372B//1//i927Y1AZnYZymstKKkyoajCgOIKA4oqWvylWN+CEn0rSiroJXhG1LV08AjpGSBKGoOTolsqnlEudtcIrANeNBjbQQ9SnDt/DgP9ff4Il6djNFjSK+oJn1DYMe3I4SJ5XFtzWOy31oF8Jttphxbt4+FGkTCoSB7kkcn/0aiYX7iPId8wWs1tyC/WISX9Gq4kZyDhajbSc8qQr29CdUs3Wjv7UdlkQVxKBg6f+BDvH47AnoOH8c6efXjz3V14450/4s13/oh3du3CvsOHcPqzTxETfxnHP/wEkSc+RWpmEYr1rSjSG1CoV8CvNKCoUgpC1CSU4spWlFa1orLBgkaTDcZOJyzWQdBrbCy2AZit/Whut6Pe2IWiilqcvxiHmIsX4fN5xc1xVl8gRirnB7rqhFN48MO4mhJ4qoPB1x4TXhGNAAq1yeWizql/9EbaBw8fYmRsDO1d3SjVVyMjK5/fOpJ4NQuZOcVIu5GHD7/4Eu/ufo+1e+efdmH33g8QcewkzkXH4Hp2NmobGmBz2DE6MY6FBw/QbbPjYnwK4hKvo6isCboqEwrLW1kAJAQqNBJkEeDT51YUVhAtGVBabeLYpazWDF2NiZczS6tbUVZrQGZOEc7FXkJ+URHuP7zP97VZidXpGC0mcju8t/MSwJdfJAVEHRQjg2ZKA4VBuTDffPcdpqZnYLP3orK6HjdzC/jt4x9/cQYnP/4Y52NicO3mDdQ1NMA5MIDZ2Tk8+v57rLJgVaH+8Pe/o76pFdGXkpB4NRuF5U3QVZtRUmVGUYWRwS8obwUXPQlFlAJ9K/LLW5BXRm+ZbUZ+WTMKyptRqCeBtKCkqgU3C8pxMSEV6ddvwDPsxTIlG4f4tSVyYsJqftgsZQ34wc9kSVCplsBq9wVvyzbB2sGPTypPcounuVUAnzx5irv35uH2eGDv64XH58P8wjweP3ms/DST2la6cmyD+M3fYEFW1zciJj4RMZfTkJ5VgvyyRuhIo2ssKK0mWyAEQnVxpQnFVUYUV5l4PwlLV2MGaT5pfE5JFb8RPfriFX5xt3vIzY4G3WtwECru/7ngb28ZMfTFiccC3alg0OVnqfHyc2BNVLTBqXhkuAlAIaRAitJCTe35R3bWKWEp8OedVAEDj374HuaODjF6zkThTHQ8Lqdcx7UcHfJKapFf1oDC8mamG6IcNsZ60vYm5OvqkV1YibTr+Yi9korPvozG519GIa+gEJOTk/w7LPzLQVumkT8X/K3T3Ziv5cMRQSniWvCkVmv3BW4LqlFBCTQ+JFgaAfRMMHkGQlDiB2yE90TeGB0jd/cJPxUu0vSItqiokaU4VygEPTnCQsIGbt+5g8qaWpy7EIujJz/CyQ8/xyefR+GTM9E4G3UZMfFpiEvKxMWEdJy/mIhPz8bio8+j8PHn53Diw09w+qNPkJx2FdaeHv7lIlIEfndawFvYA++LMJD9CcRDtFOfTCHPROFjWZOnI37vhAQkfqhMHtPW2sQq7X65TcKRrhZdU+4Prgl4Kto2UrCUDSx/bYj2BZ9LnyXHUp+1bcSNi3Hz/fePMDAwiIoK+smndJw9H43Pz55jwx1zMQ7RMZd436dfnOV9N7NzYDSaMD0zzXGMHH3inkgpFGyCsJP9E+3kLwqpSkjHn7+StbYkXlOuvGGPLhZcRJwgOhF8TH4m8KndOr99fPM1CFyiHEk7UlhcK1E2vw+Cfs1hVTzEJ6+trcX3CL9au59GwRo/bU8jRfwRAPQDBX999B2+/vo+Hj6k8gDffvcNHn3/Vzx5+iNH9rL9Ol+DaFG80p6i+mV6J4XymvaAPiu+PsdJ8hX4Gv+f2iquphi6PH2gPG8kpxLWN0QOYnDGmhxG1I6nH7bkPTHE6EYJDKrluWotNEJqPrXhIn+RjWlF7BOA0vbmIU7XoxFKNyY8qcA2dM3VNfr9q2ccsdP2Vn/0a4sUratvFVFHk6A5cT9i6kUZiVrslL5LBZB4ajEO72pqPJmtbpZuWH6BCmbgTWvbhAZfeAvE+eG8Lzp3awGGEnJgwCP6R3Br35NAgiTwSGBSaPQ96isZVQEF3td2+7PVPW97SnkrzRfejjI6Qvq6osNSQKE7IrSaND8c+Bxt8+gJNLJaoattaISFAl8Ywa2FKEYmBYXUHxpF2utrt+m7SPND3xPdtxRsqNG+ZaKscP0IcAnaLwu+ovnPAZ80VIC2NfiB2vjLgi/68xLBF9wkb04Mc3HD6pCjNgEaIN1R1nw6FnhcOzq20hKiNan5WwV0zwdf0IXg/OA+KApFo4FsShj7Q/dG9/wyNT8YM/qO/w/XHvko+nJSHAAAAABJRU5ErkJggg==;" parent="1" vertex="1">
          <mxGeometry x="390" y="560" width="95" height="81" as="geometry" />
        </mxCell>
        <mxCell id="tPqwYIOhlPdfrOhZ3rKq-33" value="" style="shape=image;verticalLabelPosition=bottom;labelBackgroundColor=#ffffff;verticalAlign=top;aspect=fixed;imageAspect=0;image=data:image/png,iVBORw0KGgoAAAANSUhEUgAAAF8AAABRCAYAAAC0RnqFAAAgAElEQVR4AdV96XcTV7Yv3+77J9798tZ67y94X96Ht9ZL33u7k9ykSXoAEgijzZw5ELCxwQbP2GbwPMqW59maPEqWbNmWLMmz8UAAG8jQTdIdIHj27629Tx1VSZaF0xDS16zDKVWdKp367X1+e+9zdpV2rK4uYWNjDcD6pkL719dXuWzVBlDbhLqG3Bf+Omvch5WVJayuLmNjQ9uXDdDfwsI84uMv4V//9b/jX/7bv+DtnW/D1mPD+vo61rHB/+i71tfXsLZG11jddD/b6wt99wbW1le5L+trYa6zQdisbImf6I/AT363tt4RDnw+mb5gY5W6s8XNrPFxAld74eBtKcithLiBdb5ZAp8EGng+sLy8iLY2E373u3/D//qf/wPJyYl49OivLBghLNrcYCAEIFv3h/tC97SF0mnBX3su+OGuQ8oQBnzSNgHcGgNMIPuL1HwN+P5jst3GGtbWV1gDCDS6oVBtRCeElvBxasc3L+r1jTUGeGnpGdbWqE/UVgIotP/+/XtISUnEsaNH0NnRxmAz+v7/6GZXWPPl+fI7uG9Kn0mZuD+KALjPSn/Ed9LoWcHKyiLX/uPK/UFpG3BPW9y3xMZ/DdluYw07xM2uYIMktLGKtY0VLry9voLVtWUusrPyuL8ObqNch29QGTXUAdJoGmXcGWW40g2uKftXVpewuPgTF2pL3ycp7dmzn/DD337A1K1bqKyqQmraVVRUVmNgwIVbMzP49rvv8NOzZyAB0k0SVdD3EP3wd64tM4i8T/Z3VewTACrCYC0VQqc+LC8/4/NJkPL+1fby+tRXzXHlnqWACT+mQWUE+HFZX8UOGs4EgnpRtSMMmnJyqONyn1ZApDmBRdASdYA0mmtlpND2yooi3A3i2CUsLS3i2bNF/PC3v2H+/gJGx8fQ0W1FeVUN0m/kIPZyMqJir+DCxUQuiSkZKCnTo9NqxcStKXzz7bd48vQpVkiANCpZg5exuiJAYIFr7on6Ku9D1AKL1dUVLC0vCt5fF9Si3pewc+JaK4KWN923OEe2UTVfxWcHSZgOBHKsavBYk57D57Lzz7sGdZ6GrJbTV1ZWWWv//ve/4969e/D6fOjs6kaZvgpJqemIio1D9KUrSEi7juxiPaqb2mDu6keXfQimjl7oKhuRlpmDmLgEXIxPQFZuHgwmE7zDPjx4+ACPHz/G8jJpp7xHhRqD+qH2XbQjrqfRSIZXPabiQvskO4TDj7Hx02fg+WHBl8DTBZ77BZs6STy9zqNAaD0N0zWsrq5iaWkJjx8/wfz9+xh0D6HFYEJRSRmupl9HXHwSYi8lIC09G/rqZrR1OeEYHIVrZAaeia/gGf8KQ2Nz8Izfhnf8NnwTtzE0Nos+9yjMnXYU6iqQmJKOK0lpuJGVg8rqGvQ4HPjqzh38+OOPLAgCVhSt4lF/RZ+1BjectyNGzQt5O9oOBErm54JP7TfWxZAUQ5SGPRnSZb7xu/fuYdDlRkNjM65n5eFSQgrOxV5GTFwKrl7PR1llIzqsA/CN3cbU3EMuEzMPMD7zUJTZhxife4iJuQf+Mj57H1QmZu9j6vYDzN79FpMz87A7vaisaUZaRhaPiriEJGTn5sNksWByegrf/+17LC0TFVF/BT1JI00jU9AV0eTKlpr/TwC+6CjdxMYGuXobrFU/PXuK+w/uo9fpRHlFNdKv3UR8UiriElKQmHoNWfmlqGtpQ69rFKNT9zA5+wC3bn+NqdsPMTa9gJGpexi9Nc/b9FkU+izLPYxNizI+Q/uo/V2MTN3B+PQ9TN9+iNmvvsb07QUMjUyh1dKN3KJyJKVdQ3xiKlIzrqFUX4l+lxt/efQIK6ukwRvCWLOdWGLvKxwtvwTwXyzIEqNjDU9/+glzt+/A2uNgAxifmIKz0RcRdSkRCVdvIruI+NqCDoebaeLWna8xTVo6J8AmoEcJ2JkFvyYLrV7A+MwCJgLKPCZm5jE+G1gmZucxMUtt51kAYySIqTuYnF3A9N1vMHn7IQZ802htt6OovBbJGTdxLjYe0RfjkZNfgO7ubty9exeLi4tshMnVJGeCXONQvP8SwN+adrChBgmhOJ/2kVcxOj7O/BoVG4+LV1KQfiMfRfo61LS0w9Q9gN6hSfim7mJcoQsCeETRUtJU0lhVi++BNPlFysTMPUzM3MXE9F2MT9O174rvu3UXoyTcuQcsYO/4HGxON+paTMguKEZiShqiL8QgIyMDXu8Qnj79UbiJARG3Ss3bBn8rg0tBlgqs8ESEpEWwRBadYgApef8xdtHWsLS8BEtHJxJSMlCkr0d9azcM7X3otA+hzz3OWj5MABNFzJB2C3pgsGdeHOhgIQntpxGgjA6FmsZm7mGUBEGCmVvA5G2yE/MYmbqNQd8YDO1W5BaX4mzUBRyJjERRcSEePFxQOD+05j/f2wk/9cJBFgcCHJSQRxJYiPOoyABFHud9ayt4trgIQ1snkjPzUNHQgQZTL5otTnQ5fHD5brE3QtpN2jfOYJNWKvRAtOHX8pcjCBIwFaaq2fuYnHugFKKzexienINreBL2QS/abX1oMrWjor4FebpKXEhIwYHIY9jzwT7k5OVgfv4OR7nC21P9c1JWKoQFYacep/1qOxYOxxTCIxLnqcdFkEVBD0SESxcSFwsVSKjezNoatVvDs8UlGC1dSM7Ig76+HXVGO4ydg3AMjsNN7uHYLDzjs/BN3sbI1FdsEIlmqAhhEFAEfDD46mdBSZsNraQqqoUQSaMF2FNz5AXNwzcxh0HfBOz9HrRZe9Fk6kRVowG6mnoUV1ShqLwC+To9ckvLkZh5HZGnP2Lwswn8hbsMME+HMO+rUyeSkkkADKpyXMQwKoOsKwGlbONnDqxh+35+kNERUlzH4tIKjJZuBr+8rg0NJgc67B4MeKcE8AS+pnjHZ0FcS2WYBUKjIhT4ZEzJ2IrRoQItOFyeQ9QxObfAFDJ66w5ft987ju4+F8xddjQa21Hd2IoyAltfzXFAga4c+WXlKKCiK+OSryvH9bwCfHT2HPbs34+s3GzM37+n0I7K85J+qdYqqna/dpvbbMX5z53V1IwE7UUJfArfF5eWYWzrYtopr29DS7sTtv4RuEamWfNJ+4dGlRGgEYIUCAmBAqXhSRoVYmQQRQlwVfAFVRHQRFkkrDsYuXUb7tEp9LqG0WkfgLGzBw2GdlQ2tKC0qgbF+koUlunBYBPgmlJQVoZCFkAZ8nWi5BSV4mzMRew9eAik+Qv358OCLwzuPxKACmFuX/ODpiBUzV+GicHPRXm9BS3tfXC4xjE8KbwYH0WlY3MsACkEqfnaUaBuzzJVkDBIk6WtGJu5y3ztHplAn9uLLocTxo5uNBgtqGxohq6qFsX6KhSWVaCglMDUMagEsgBaLwRBwlBAlzWBT23ySnSIjruM/YePMPg0i0rRuVbptNvb9nY0Dov2/BcGn6JEAj8pMwdldSaUVhuQX1aHqgYzOnoGMeCbZM0mIEmzCXjPmBwNM34KkiOBjnEZn2EhkDfiGZ9mA2nqtKK+1YTK+kboqqpRpK9AYTnRh9BcohDSZi7lehRyKec2QssVqpGUo9R+8Et1iL2SgIORkcjJzcH9hfC0888DfkY2g59fVo/YhAx8ERWPC/GpSL9ZiLKaJpi7HOhzjzCww1NEM2JehkCXI4IFMD4DDxUWwiy8E7Po94yixdKBkooq5JfqkFdKWq0TGl0uwVZAVj4LrQ4N9qZjTDtipMQlJePIsWMM/vZo5xea26EhIo2KdrjQtqQdv+ZnZENfb0a9wQp9nQHXc0sRe+UqPj9/CZ+dv4gL8Um4eiMPpVX1MHTY0OsiQcyy90MUQ7xPgA+N3uLiHqVtYZydQyNoNFlY00lLSdu5kJb/I2AHab4YOSTMclxJTUPE8ePsav7i4MuVLAGmOt0qP0vw5WdZCysuvB3m/IwcVDRY0N7jZmNLHE4AN5u7kVdSgfiUDJyJjsOn52JwnmYtr+ehtLIRrW096On3wTVM3hHRELmmCi1pwG8ytaFIX8VGU3I1gbZJizcBux3tFzaCrpVwNR2RJ04gOzcbC2Foh3AQ2ITTfNkmtFHeQas15KtKkLU17fcHWQFtxCoOzXU/W1qGwdKFpHQBvsU2CKdnEt6J28KXn6Wo9g772pbuXuiqGpCckYUvouLw0RfR+CI6HonpWSgsq2VB2ZxDGPRNKoIgT2gOpPkUDKngS6O5HWC300aATzYiKT0DR0+eQHZOFhYW7vKcPgVLHOkrwZUEnvHxB1mbFZdsArVZW13xr+BJ5aU67EoWCYJPDgBeBGG8f124miYCn2inwQyLzcXgu0en4Rq5Bdcw0YhiPBXvhYKurl4XymubkXItB2djLuPDz6OZomjRpEBXhdY2G/rcYxgam0HfKwQ/OSMTR0+eRE5uNsjbIeWTYGsVU2JDx4P3az8T8Fu1CevtbI/zV4S3w+Bb0NbjQj8FWEQf7NcL4zk0Og338LQQxtgMR7zkAfkmiJ6G0dJmQ25xBS4mXMWnX8YiIe0GWixWpiPn0DAaA2jnl9P85MxrOHbqFHLzcnD//rySGBA6yJJCoTrYJsrPLIitg6ytZzXlxekCwV9AnyllQ2twifPbetwC/DEyllsHV+zlKB4NGVtyQ2nKYdA3BVOnA02mLnT3DvGoYYNrfjW0I8EnzRec/0/v53cy7TD4djf6fULzvQq4YgTIkbC5Jlpyj0z7XU6aiKOZUDqPBPgqOV8FP4cTtYhepRYH1/8kfn4nkjKzUdHYhnb70M8GnyhKG/USz5PNkP4/xQdNfs1/WR6O1hCrBlcFX2r+rwa+6ueHpZ32FwQ/xJwP+fi0MO71ezvkalYqUwZa4F7Gtgp+SuY1HD91SgRZC9uZ2wnnair4bc352sWUIMMSsJIVeExwPi2mqNMLFY0WWGxuONngzsHrN7ibqea5VESR768B/rXrbHADOT+0QSVbSLQUrJgqPal+vrpPxTGMtyNTP4T/GnwyGVthcFdgbu9GUkYO9PUWmK3Cz/fwtDGBHt7obiUEAv5Vg19QrkdyZiaOnSJXU3o7tIonU0okcCLNhEBX84HEvs04Sfw2H9/x009PQCmDlLm2tPzMX+jz8tKiP4VvU5uln/i8x0+eosXUwUEWgU9rtn1DYvlQAPtfCfxyEWSdOIGb2Vm4c+crvv/llUXQTEBwIUwoxZGwCj4mPi8yRgK7zefvePbsqZIiscTRHGVpUaF5fqrpi/nLed+yaMMdWeTtp89+QquZwM9FeZ0Fze29sPX72HsRtPPzKYeE9qtovq4cCWlXcfT4cWRnZ+Hu3TtKvqZYSuW0SGVZ1Y+NAjwfU/Ja/duU70n4KWmHcrZAHt9BB4UfL2hE0omolfRvXpcUfr16XAynxeUlmNppMUWA32DqQYd9iKeSBeX8F9J8XRmuJKcigmc1KcKlIEskD/B984SigpMyuShjIEpx31SCbKYfO6XtDpLg1gZDmb0MsRhAa5HrMshqp+kFAX6dsQeGTifsgyOs/Vtx+vP2v1LNV6aUaT3gclIyDkce9U8vBOZqSt6mWmAjhUN2gcAVnC/bbW4j7Ic4HmRwg6x6gOQCj3GA4QefDG4uyuosqDXY0GjuQVvPIJxDE0wftJJFFPRzaOjVgy/Wci8lJOJQZATPas6HmdUkkAn49YAnUwijQJxEGxo9gfvp/CDwpeSUWgO+yC5WjwtXk6YXVmBib0cB32hDndGGpjYH2h0eOL23lMRWyf2ChnjqOIR/L0fEqwSf13DLypGnK8OFy1ewP+IIsih7YVtruOFcTSkgNe9JjAyB488AXwWeLqAFX7iagnZqjT0QxY7Gdic6eofR75vG0PicMgoIfDFvH04Avwb4OTodzsfHY9+Rwwr4v+Iyojq0NksuGPxkSTsMvh21JgdqjQ40tUkB0AiQfv+0WCr0z3zKUaHWrxr8vLIyZJWU4ExsLN4/eBBZuaT593geXqut2m2e5w+gnUAFDYcfHdtB/qjfYmsWCzhRSHneirLVBNjCw6Ft5rKNVSwukbdDE2u0gG5mra8xSvB7VQE4vHB6psDLg+RKjpM7ubUn9MrB1+lwraAAn5w/j90yb0fD+cH3LzGQ2BCYm9uoax90jBKttG38z2QRmP6UQEodVIr0TaXhkLVYTFnBs6VFGCwdDD75+ZJy6kwO1Jl6RTHa0WDuhcnqgs01joGRGbgJfCkAXjpUtf5V+/mUz5OnK0daVjZOfPoZdn2wDzdzs3Fv/i4HT4SFvG9tLf1+wkLuZ1w0KZdb4UfteSVLWGyRQyiXzPy1kjQlh5uUnPiyNbCf3yY1Pwh8swI+C8KBerMDTR1OtDm8cAxNYHCEqGhGEYJIK3yVBlekmVBSlR7ZJTpcSknDweMnsGvfXpGxJtMFtYxA2/KpRmVuh7CQuMhjfuZgwaz4z/G3o2VEkgztkOAG11KiwW3ERYS3QwaXOD+U5hPvcyEbwMWOOpMdzR1OdPb60OeZhJvoR44ChYp+CdqRWQ9y0Z1zeXR65JWUI/VGNj4+F4Xdhw7jTwR+nkgXpPsPxkR+3vZ8/ovOahJfyS+lWkqQZzWVIIv9fMXgStrxg28k/ldGgpkoyc55nYbOAXT1edHnmYBrlAyxQj+UYkhrv+OzymJKG6f/BSRGyQSpoFqCG7Lm3Ewd8st0nHZCbmZ6Vg4+i47BgeMnsevAQfx53/u4mZuFe/NfcZbyxvoKwAAGKimxg5bztfjIbam88rO2Dq/5AX5+KPB/huYb+1DLRRhhEkodFzvqzT0wdPWju8+HAc8UhpT8TnUxZRiNZpm3I5KlRNqISPOTya6yZr/dnwglkqxyS0qRW1KCvJJSTowt1legSK9HZjYt4Mfi8IlT2H/8BPZGROC9AwdRUFSIr79+oHC5eCCanlQhipYB0z8B+Ms8tyO8nSDON6lAC+A1AlBoSIwQB+pNdjSRUe4aYCHQIrx7lPI2b8PpGUWjqR2F5RXIozzMMpFlLOtQGk4UU1Su58Lbej1Kq6o4zZCy3lKvXcfn56MY6Dd2vov/eGsn/uP37+K1N9/Ca6+/gXMXLsDR14tv//IdP6/lf8idOH9dznOR1/dCQVaYuZ3nar5mMYVdzXDgC9oh6lGpSNgDKQDK7a83OdBodqC1k2yCh6en7a5hNFk6UVJVg0J9JYoqqlFUUYVCfRUKKBNZKbxdXgGal5dZaHmk7aWlyC4qwpW0dJz+/Az27D+MN975E1773X/i3974PXb+eS9274/A+4ePYffBSPxx7378Yc8+7D9yFF9euIhrWdloajVgdm6WH9rmtzyw2yinF0JPHxDF/OO0ozl5a4O7DDPNaj7P4ErDu1XNI6EXtTRa2EUl78iOlo4+1Ju6kF2iR3xaBmKTUnEx+Spik9IQk5jKT5NcSEiGLFGXE3E+PgFfXorDmZhYfB59ARGnP8Lvd+3Bb3//B/zh/UM49UU0EtNzkFtSA329CU0WO69DkCts7B7k76xu7URpjQE3CytwKSkDn34ZjTNRMSgoLsH4xCSWVyirgZ683IbDspXBpblmko40oGTBtSVYctzO/5oXSppagrGN/PzneDtbgR5qv/SKKD4w2VFa3YILCak4ePw03j9yDPsiT/jL3gjiaW05jr0R1OYY9kYcxdu73sNvd/4ReyNOIS71BnR1BgbX2E1Au2GyDvmL0ermfUbrEKiYbB6YbR4WSJO5B0VltUhIzcTVzBvostrw/Q+PsM4+vRCAwE11RQkrESMIOyGxk+6oEmSJlzfIwMpfK+mCFDgECkdwHQlGBlmJ6ZSlHI52FJczFNgh99lRa+gBrQ+UVDXjfHwy9kYcx5/3H8aeQ5HYc+ho6HIwEu8disTugxF480+78fbufTgTmwhdrRFG6yDM9NqAHg9MNi+MNi9MNh+MVtr2wGAVhT9bPWK/ldp40Wb3cWlp70WBrhrp17PQ1NyCb755qDxlLwItgZNQZjbISsCl3S+3dwgLrtV8dQqBGklB0LZwk0QtpczTC5Sfn07TCy8RfAOBTzbAjpLqFkRdTmZt333wCN47fBTvHQpRDpNAIllIO3fvw9u79uFcXAoqmtphtLlhsrlhsLpgIA23kgCEEAhcLj1KzZ8JfEUg3R4Yuj0srDaHD6buQRSX1/JT9FabDU+ePGZsNmHkZwiBr9bNpO3wrqaG80P7+WrG2gtzvlb7iXYU8OkZr5LqVgX845Dgh9b8SBbMnoMReP3dXTh08lPk6RvQ2j0IQ7cLrV0umGxS84OAlwIIWSujg4TRPQQSQLOlB1m5xSgsKsHt23PsDKmLKapbHkzbWgGEB/+53o4K/kvn/ADwpeaHB588FbIJf/7gEF5/ZxdOn4lBWb0FBusQg0bUYg7Qbq2mB29rheMTI8PmZWqia9BqXU5BGTKu3cDIyMivD/5Lox2/5hPna2lna/CJhvZI8Pcdwm/f/hOOfXIOpTUmpg/B68EAh/usBV9tR1RktnvR2tmHrIJSXM28Bt+w7x8F/0X8/EDNf2ngEwWx5tvQYO5BSXXzc2nHD/5h0vzD+M2b72D/sY9RoG9SvBoPTMzzKpB+rg9JNSHasREm2vHC2O1EdmEpUtPT4fV5flnwg/lMWGxtkCWXEe0cRMnp5OCAatufGfyebYNPNoBpRwH//72xE/siTqNQ3whLzxAXs3UIZpvXX54HvjTK4hzhdtK1rP0j6HS4kVukQ8rVq/D6hhTwpVPyMjh/uwaXJ9bI22lToleaQOtTCgVNyoym1qiG26b2tCAjXc1taH4w+K+9sRP7I0+jtKoJ3U4vupw+tNs9aLN7YekRhbibbQDbAeHNCPfTq1CVMM50Ds3AdjuHGfi+oUnY+jzILyrj970Far7IbJCGNazBVfN2Al1M6UpS6gS5m6obpc5o0mgQK1mUOhIafI5YaQJNLqwwsGF8fhOtgtHoeTHwf/PG77E/8hRKqxtg7feixzUM2+AwbAMjQnP7htHu8DGFWBxerolORBH723t96HKKcxyuMX6Rh8M1ylMe1l43Cop0DL7Hq9X8QO0n8IPxk4L5WS++oKBBSlKu3sggS/j5Ws13suYTzdSE0/LgYy8L/NffxoHIk9BVN8DW7wHND1FxuEfR6x5Dr3scdtc4elyjsLlGYHOPokdT7ENjcHjG0esZQ98QAT/KT9DYB3xwukdh63UhX4I/5GY/nzHRYERY8UoWPbcVtJ+OPT/ICojQaHQo0ZuytEYrWTS9ICJcFXw5gVZjkNkMwdoubIPfBkhqCgv+ibB+vsr5h/Cb19/GwciTKKuuR0+/Bw4CftDHNT0lSW+4crhG4HAPwx6y+OAYGkbv0Ah63cMMPJ3fM0CTfcOw9g4iTwGf3s0jkqaCg1X1mTZpI7V1eD/fz/kEupqFRcNGXETM53PeTnoudLUW1JChNNpBoOfrm5F8oxipWTrermjq5GO0nEiLKVS4rbEHNTLlxNSzBe2kYF/kSew+EMHRbaggKwD8N97CwYgTKK+q5zeOMPCDXgaRngHrddG2KA4XCccbVDzodXtFoXZuLxxuL+yDBP4IrL0uFfwAb2cz55PCSqrR1uFf5xsQZAVymZSgSJqy8sSaBJ8EUGOwIau0Dp9eSMYHx7/AgZNncPLMJUQlZCI9rxwltUZUt3ajzmxDvYUWVEgYPVxCc/7PBP/1t1jzy6sa0OMcYtAcgx70unxcHCwIApVA3qK4qL2mkABcHjg9I7D2CfBT0sjbka5mIEYEtKRpLehyO7zmB4Cvuk90sqr5NKXcjZRreTy3U9ViQ3UrUY2DR0FZfTuuFVYjJukGTp+9hIMnv8C+Y5/gyIdf4rOYJCRcy0dueQP0Te2oMVhR+7I0n8EXmk/gE/AEXK9bAV/RZj/wfEwDdKjPNDoGPaCnI619gnZ+MfDJm5GS28rPX1xeRou5DXHJmdA3WNDa5UZThwu1JieqDWRslRweUw8qmjtQUNGEtOxSnItPx7HPorH/xGdcPolKQHZpnZJ6QsITE2tibqcFUfGp2Bdx6mfRzqGjJ6GvaWDa6R0UWsvgE/ez5ms1XqUhSUdqrQjFr/k+WJ0DyCsqRUpaGr+PjRx9gdFm2iFjK7VdW2+bdkjTtSfSnDRdlF6J6HS5cSUlE+cvJeHy1RzkljUyeM2dg2juGOCUkWqDFVSI26lUtVqhqzPjZkkNLqfnIy4tD/n6Vv+IEdRFVORASVWrAD9SBV/Oamq5P4DzX38LhyJPQl9N4A8pfE4gCs1nYCWnM6gEvjwWXNMxIQDH4BCcHtL8AeQWliA5VQt+IEaEl1Reue6rxTA87fhPpmyrQIMrL0IvPPrxyWOMT06h2WBGVl4xLl5Jw7nYRFxKysT1PB0qGsxo7nSipXsQDe1O1Jkp6LKj2mBj20A0VdlMdEVgU3Am83160WDpQ0m1EVGX0/BBCPB5WoHn9mkJ8CjeP3ycJ9Ze04Dv6B/SAEtej/B8COw+9zD6PCNsRGlbCEB4N2SYHS4fHG4qQgAM/pAP1t5+5BUWIyU1FV6v5Hyi5kDNl95h8H7Cz58uGEoypO0kOQoSCGSZCCSNraypDb3ikd6t+Ze/PsLk1DQ6umwo1VchJeM6zscl8GJI6s0ilNQYmNcpibapox9N7f1oMDtRZ+xDjaFXFPL9leVEBr9GgL8v8hR2HYjAnkPHNEVMqPECy8FI7D0iJt/+/T934uDRU9BXN8Le74XNSe9Y6+cXbTQYOlHf2oFGQyeaTN1obe9Bm9XJbRhwpiRpG8g9pSJoy06az+A7kVtQiKSUZHg85OeTfgrNl7hQrWq+tJNqMLvj6dPH/FwRPTcUqiwu0WvVn4LqUMdpHz1aRGVxkZ7tWuInFOlN3l9/+y3Gp6bQ0dOD0ooaJF29gai4JFy4nIakzFzk6mpR1dzJybQtHURRg6g3k62wo1Ix3PXmXhYYaf6+yNPYdSASuw8dZSH8Wdnee+QYPog8gUzYDKAAAAeySURBVA8ij2P/0RPYfYD8/LdwIPIUSvQNMHU60WC0oqLeAl2NESWVLSiubEJJZTNKq1pQVt2KSlrLNVnRaXdxPCB9e7/2KyPA7vLB6R1Fp70PmTezcOnSRQz09/JbBumZNpox0OIkX0uv3Se3d9BBisIoOgtVOEJTfk4j1HHaR8m28qEw8b56MVLW6Z3E/AbCRfz10feY++oOBl0epqecohLEJV9FVFwyrqTewI1cHUoqm1DTakVT+4AQhKUPdWY7iqqacS4uGXuPnMCu/Yd5weT9IyewN/Ik9hw+ytkGtED+5rt/wOs7d+K1372B//1//i927Y1AZnYZymstKKkyoajCgOIKA4oqWvylWN+CEn0rSiroJXhG1LV08AjpGSBKGoOTolsqnlEudtcIrANeNBjbQQ9SnDt/DgP9ff4Il6djNFjSK+oJn1DYMe3I4SJ5XFtzWOy31oF8Jttphxbt4+FGkTCoSB7kkcn/0aiYX7iPId8wWs1tyC/WISX9Gq4kZyDhajbSc8qQr29CdUs3Wjv7UdlkQVxKBg6f+BDvH47AnoOH8c6efXjz3V14450/4s13/oh3du3CvsOHcPqzTxETfxnHP/wEkSc+RWpmEYr1rSjSG1CoV8CvNKCoUgpC1CSU4spWlFa1orLBgkaTDcZOJyzWQdBrbCy2AZit/Whut6Pe2IWiilqcvxiHmIsX4fN5xc1xVl8gRirnB7rqhFN48MO4mhJ4qoPB1x4TXhGNAAq1yeWizql/9EbaBw8fYmRsDO1d3SjVVyMjK5/fOpJ4NQuZOcVIu5GHD7/4Eu/ufo+1e+efdmH33g8QcewkzkXH4Hp2NmobGmBz2DE6MY6FBw/QbbPjYnwK4hKvo6isCboqEwrLW1kAJAQqNBJkEeDT51YUVhAtGVBabeLYpazWDF2NiZczS6tbUVZrQGZOEc7FXkJ+URHuP7zP97VZidXpGC0mcju8t/MSwJdfJAVEHRQjg2ZKA4VBuTDffPcdpqZnYLP3orK6HjdzC/jt4x9/cQYnP/4Y52NicO3mDdQ1NMA5MIDZ2Tk8+v57rLJgVaH+8Pe/o76pFdGXkpB4NRuF5U3QVZtRUmVGUYWRwS8obwUXPQlFlAJ9K/LLW5BXRm+ZbUZ+WTMKyptRqCeBtKCkqgU3C8pxMSEV6ddvwDPsxTIlG4f4tSVyYsJqftgsZQ34wc9kSVCplsBq9wVvyzbB2sGPTypPcounuVUAnzx5irv35uH2eGDv64XH58P8wjweP3ms/DST2la6cmyD+M3fYEFW1zciJj4RMZfTkJ5VgvyyRuhIo2ssKK0mWyAEQnVxpQnFVUYUV5l4PwlLV2MGaT5pfE5JFb8RPfriFX5xt3vIzY4G3WtwECru/7ngb28ZMfTFiccC3alg0OVnqfHyc2BNVLTBqXhkuAlAIaRAitJCTe35R3bWKWEp8OedVAEDj374HuaODjF6zkThTHQ8Lqdcx7UcHfJKapFf1oDC8mamG6IcNsZ60vYm5OvqkV1YibTr+Yi9korPvozG519GIa+gEJOTk/w7LPzLQVumkT8X/K3T3Ziv5cMRQSniWvCkVmv3BW4LqlFBCTQ+JFgaAfRMMHkGQlDiB2yE90TeGB0jd/cJPxUu0vSItqiokaU4VygEPTnCQsIGbt+5g8qaWpy7EIujJz/CyQ8/xyefR+GTM9E4G3UZMfFpiEvKxMWEdJy/mIhPz8bio8+j8PHn53Diw09w+qNPkJx2FdaeHv7lIlIEfndawFvYA++LMJD9CcRDtFOfTCHPROFjWZOnI37vhAQkfqhMHtPW2sQq7X65TcKRrhZdU+4Prgl4Kto2UrCUDSx/bYj2BZ9LnyXHUp+1bcSNi3Hz/fePMDAwiIoK+smndJw9H43Pz55jwx1zMQ7RMZd436dfnOV9N7NzYDSaMD0zzXGMHH3inkgpFGyCsJP9E+3kLwqpSkjHn7+StbYkXlOuvGGPLhZcRJwgOhF8TH4m8KndOr99fPM1CFyiHEk7UlhcK1E2vw+Cfs1hVTzEJ6+trcX3CL9au59GwRo/bU8jRfwRAPQDBX999B2+/vo+Hj6k8gDffvcNHn3/Vzx5+iNH9rL9Ol+DaFG80p6i+mV6J4XymvaAPiu+PsdJ8hX4Gv+f2iquphi6PH2gPG8kpxLWN0QOYnDGmhxG1I6nH7bkPTHE6EYJDKrluWotNEJqPrXhIn+RjWlF7BOA0vbmIU7XoxFKNyY8qcA2dM3VNfr9q2ccsdP2Vn/0a4sUratvFVFHk6A5cT9i6kUZiVrslL5LBZB4ajEO72pqPJmtbpZuWH6BCmbgTWvbhAZfeAvE+eG8Lzp3awGGEnJgwCP6R3Br35NAgiTwSGBSaPQ96isZVQEF3td2+7PVPW97SnkrzRfejjI6Qvq6osNSQKE7IrSaND8c+Bxt8+gJNLJaoattaISFAl8Ywa2FKEYmBYXUHxpF2utrt+m7SPND3xPdtxRsqNG+ZaKscP0IcAnaLwu+ovnPAZ80VIC2NfiB2vjLgi/68xLBF9wkb04Mc3HD6pCjNgEaIN1R1nw6FnhcOzq20hKiNan5WwV0zwdf0IXg/OA+KApFo4FsShj7Q/dG9/wyNT8YM/qO/w/XHvko+nJSHAAAAABJRU5ErkJggg==;" parent="1" vertex="1">
          <mxGeometry x="560" y="570" width="95" height="81" as="geometry" />
        </mxCell>
        <mxCell id="tPqwYIOhlPdfrOhZ3rKq-34" value="" style="endArrow=classic;html=1;" parent="1" edge="1">
          <mxGeometry width="50" height="50" relative="1" as="geometry">
            <mxPoint x="396.5" y="252" as="sourcePoint" />
            <mxPoint x="396.5" y="342" as="targetPoint" />
          </mxGeometry>
        </mxCell>
        <mxCell id="tPqwYIOhlPdfrOhZ3rKq-41" value="&lt;p style=&quot;margin-top: 0pt ; margin-bottom: 0pt ; margin-left: 0in ; text-align: left ; direction: ltr ; unicode-bidi: embed ; word-break: normal&quot;&gt;&lt;span style=&quot;font-size: 18.0pt ; font-family: &amp;quot;calibri&amp;quot; ; color: black&quot;&gt;Code is pushed to GitHub&lt;/span&gt;&lt;/p&gt;" style="text;whiteSpace=wrap;html=1;" parent="1" vertex="1">
          <mxGeometry y="342" width="270" height="30" as="geometry" />
        </mxCell>
        <mxCell id="tPqwYIOhlPdfrOhZ3rKq-42" value="" style="shape=image;verticalLabelPosition=bottom;labelBackgroundColor=#ffffff;verticalAlign=top;aspect=fixed;imageAspect=0;image=data:image/png,iVBORw0KGgoAAAANSUhEUgAAAGQAAAA0CAYAAAB8bJ2jAAADNklEQVR4Ae2YjY3DIAyFmYuBmIdpWIZhfDLJI+CSlIZI9VU+qSKX3+f3YePEkf2pcsCpUmNiyIAomwQGxIAoc0CZHMsQA6LMAWVyLEMMiDIHlMmxDDEgyhxQJscyxIAoc0CZHMsQA6LMAWVyvp8hOVNWZsqLnBzJO0cupJdDT+94GEimnCIF78lxAPh5Tz5ESllYn8J+TqDPQk0Uyr2vrps5Z9LOfwkEogHBefIMwjdgnKNukgGIjyJLMsVynacoGG4Wzpg9c86vAmlgbJkwCDQnisFTnEoFAzJwcHYXZqIjP57OszdqzjMgjRkfbp6WnYn7ILOaOpZCX+LqOtSVO0yCG2sI9DbPrEqhR5ZQ7C/X5JLpVZf3FNKwrtbbfrKxvKjDwFvZ0QW6yS5NQQhbV+Mc+RAolB83BQjtS0B4TSxrJDcprOtoXm7Fj3CacREISotYrJsHXG4OgGzn477vFnVHrjQOaCDaEZkmsmglQxhGSH0Dgvs58ZzLwM8PLgLBTH01Lsdj9tT07soOET0BpHZ1ACBHYRQMvFOyZCkrvmLy3JyUgs0iEIh5BUL8PlLLTajtb+fDMhBhdhccJos4ZwVIJ/542FLZPm5Tth4C8r7Dguguph8BgmrwxDqyCISrzl6ahul84P9lIIhNBRAilIbrLIHor2cIsnI0gc6OYX8nHpMNZVvFGrKLQl0ubWoi+cmKiHv3bbHtYroIdAgQHtRJINaHepw3MFHkOdgv1r2M/dy5iU850DnosjJil9d0Wub/WS5ZeBQL23p0dDl7Cyq6oFkgtRQ6vzUH5QUMT4N50mwc5/H8HMB2/L2tfZ/Ae4Y0dwdSvs2VeA5N6CC7uFoZH24/BmR7bqYUj44KYvldIcT2xW5XiZl3Ek1qXrycC82HxnOzj/ivztl11snC+vj9Yr/mDAh/GuJMaj+Y+lbX8fS7Ww8DuSvDroMDBgROKBkNiBIQkGFA4ISS0YAoAQEZBgROKBkNiBIQkGFA4ISS0YAoAQEZBgROKBkNiBIQkGFA4ISS0YAoAQEZBgROKBkNiBIQkGFA4ISS0YAoAQEZBgROKBkNiBIQkGFA4ISS0YAoAQEZf0IrPC7yLvRuAAAAAElFTkSuQmCC;" parent="1" vertex="1">
          <mxGeometry x="350" y="90" width="100" height="52" as="geometry" />
        </mxCell>
        <mxCell id="tPqwYIOhlPdfrOhZ3rKq-43" value="" style="shape=image;verticalLabelPosition=bottom;labelBackgroundColor=#ffffff;verticalAlign=top;aspect=fixed;imageAspect=0;image=data:image/png,iVBORw0KGgoAAAANSUhEUgAAAGkAAAA0CAYAAACJkhYTAAADQUlEQVR4Ae2YAXasIAxFWRcLYj2shs2wmPwDGgxI5quTTIc2Paetw+AjvGti1IH9fL0D7usjtADBIC1wERgkg7SAAwuEaJlkkBZwYIEQLZMM0gIOLBCiZZJBWsCBBUK0TDJICziwQIiWSQZpAQcWCPF3ZFKO4J0DF9I1y3OGfG3mV8ySg5QCuDtGSW7/DiSM0wW4iFQy0kdafxeSj8tk09+D9Oha/tmTDNLP+n9p9Y9ByilC8G67b5V7l/MQYjqXnP3+4mMGyAli8Mc5PkAZPv1w96QUtoaCljZu7pN1oYR43pcPk32dgr4+8BFIOaLRHnwIEMJuXoFFDSxxo1ltjq/zgz80TqBmxrcGwfdgZ3OfrkvWwH3VOMc9XecxnakPCU05BZ4hhS2zus4Z5++dIk2cBrs74QDbWvCmMQAiMNpctKWds7Xy/183Q6yVYbIGagr9V4c0BYHBozHUdBw7QSUwxu/wnKKDx44xD7+na5Z4cHzUZr/7NZBwI66VuVLqjt+9hFFj0KzRxAo2QXhRIp332z3IMfcuavio/2TdrtwlyDT9arwyf5Qz6YBUH3Rrw0Cbh/1YClKIewlyUBuPmUccDG68ajAXR0nAsXHwAZIwrA9BYkrPHRNfmdUZvBvqHIzJUiW6uSQAbvzVuuT0kkapdaI39ks1mGNlSDBvDphg6vATs8ZzSBm61AmWhUeNLkY+k7ppVWYr4dMLZJx88fMbkDLEcLxawc7rVGbQMFrSSHClXHTl4YlZk3MwHq7FZ7u7qbszSAnCpLS9bJTIvu8cvgdpfzj17SF1nuYYeLkveY+NAz73DGVpYvixoZlZfBa0danxnD43XhefrbuP0T2hD8wFeezj3tEbkDZzjrcIHkKXEn0guTz94yZqA+ErsDS2RLfN4iEBlKsdn8X2uzmnz42zkMq6wxsRVx7WZd82lOXfg9RzsE9KDhgkJWMlZQ2SpJtKWgZJyVhJWYMk6aaSlkFSMlZS1iBJuqmkZZCUjJWUNUiSbippGSQlYyVlDZKkm0paBknJWElZgyTpppKWQVIyVlLWIEm6qaRlkJSMlZQ1SJJuKmkZJCVjJWUNkqSbSloGSclYSVmDJOmmktY/5HSXDYhhOkkAAAAASUVORK5CYII=;" parent="1" vertex="1">
          <mxGeometry x="330" y="438" width="105" height="52" as="geometry" />
        </mxCell>
        <mxCell id="tPqwYIOhlPdfrOhZ3rKq-44" value="" style="shape=image;verticalLabelPosition=bottom;labelBackgroundColor=#ffffff;verticalAlign=top;aspect=fixed;imageAspect=0;image=data:image/png,iVBORw0KGgoAAAANSUhEUgAAAJIAAABQCAYAAADyWywxAAAHSElEQVR4Ae2cjZG0IAyGrYuCrMdqbMZi+CbAC+FP1zV48y25mTv3WAkheQwRhcXqj1pAwAKLgAwVoRawCpJCIGIBBUnEjCpEQVIGRCygIImYUYUoSMqAiAUUJBEzqhAFSRkQsYCCJGJGFaIgKQMiFlCQRMyoQhQkZUDEAgqSiBlVyO+CdGzWLItd1l29/IIFBEDa7UoOa/waY+y67fZ4oSNVEwpSZZKRBYIgGWvW1a74NYbBZey6v4yTgjSSm0q2IEirrQeRw+5bAurVUUZBqpw9smAwSF71AzCZ7b1hTkEayU0l+xWQrE15VCsqHftm12woXKwxqz0bDY99tcaw3KzMx3ogUT3K5wqovQ5M3tLJ74Jcsx3WHqR3qGO2RkSu7P2zBS+BZO2+eoM7BzBzxmi1LCnHgnOWxbbAg6xlSXmZg4Of3wJpX0PeZixxgJ+kQy2vBI7gobYoH0SbHujW0I4Wfv/4GkjRWZyM6Ng6+lDE8XeChYNQThGr8A9FlRjFSpDw/5JDBDAqYOwR4ecqx/MbUa1QZ6p//xQkRJbMUcz8re9bZaxK+ghwSDg+lxDZFCmbOqAe/xJlSw1yany+T38I0mE3N4QVEYL5AFEsDYfXdWJ1ONyYMASt2XDmz4M8Nqxi+sIdwx0nz6cgl8MVG533w2sgIZIkKJCA969sgJRmp6/rRFdGh28B2MWmtnFWAqk1oRrLFCQYrHt8CSQAwKMPnMjLcj0BUgLguk6UEEGiTArtl8n7DXkQnMlFoR5fAQlAlAktolR7lICTc+ef12EOLR2OJL3Ikz6WB9GlXJRPfhwL0kF3PpjZbkSe6NyTuzY+rFjKmxt5S3Dise/9u7ZeXehQtAMusjtBKlSQYJrsKAgSTfIZSw9q3W/2ELcBUVADEYHykfisLs4jteqlSHV7HondpaW8K925OR0MnhfiAsgjooKU8RP/kQUpg8fPTm/7cflYpJqldhONbE4oqosP9AwvTQi6pPjTmW3KlwKo/EFyUwc3u85mLql5jUhwQnYUACmTp/9MagEFaVLHS3dbQZK26KTyFKRJHS/dbQVJ2qKTylOQJnW8dLcVJGmLTipPQZrU8dLdVpCkLTqpPAVpUsdLd1tBkrbopPIUpEkdL91tBUnaopPKU5DuOv64fpvhrshfOF8WpGO324qX7bFwkNaKnb0S8h+ZES/B6QqSymliIMU3F8M7SXjBLb5A/yfGx0twrRfkKltcFwCkztuU1wJ+9wwZkGBgt9K1eBGM3gU76GWyv1jSLAzS73LwuGcCIPVWaDzWTUCAgiRgxI9EPAcJ0eiLcH9r84jwiqtbmhRysThsmnrxI38XPJ4Xht1s1UpYoIB1/HQubWDB9waIluy9ZntTtyiPorXbQENm84qWLLO+s9HZY5DgsLT2jJup/5nnVPVL/8UL9yQGzoqbNxi/qVfcxSTPg5xR47lsYQFP/He/IQTgcZuEdeS5nlyBFNs71w1WSTYQ2LwCFzTbWMPt8PLFBQ797hwfgoSho+H4My1ip0+WIZXJOZxIUaW4yqJDslBDCkC/HLKoGm1xw8EKX3TlQYeyHZTf0Q11Kkd/s3nFRT9jh8d9+BOQEMVKf6Cbze+7hk/RqlyAeQkSGiyPaKtU8Kq8gqKvW7OP0KPVDsrKC8zVmRKk604jImTDJQxZOtcZMiT8lSOv2/J+OOxOuUrcQCKsaSvb6unQK+/qBr34kIv1dHRsLAI9bcMt2It7P7m8qL55dtqM+vMwIqXFhZnTT7XFXd6dzSPYlV06t+ss+gIO6wxt9D2cFhLxLDEv2+o5s1fe1Q168SS78ZlfGKdteINXyfbFrne+lszfxyAhetTDSk9BGLHn3LQsO4Pz1JDfRSQML6R73KCL1O61dbfcmaCl27UNKuv12q5OJP0vlsq36jwsewxSNDrfdu9CKTiwvOB9NRi5SOBPDdlyFkmDrBa0J9/12rpb7jrU1u3cBg0D9tpunIoiXORtO+MsmeNzkPh6etrAM7u0g5JuZpvdoX1y18bDOok5NWTbWVSt77AeSOmuie8P4HrS06FX7ip1dIMNyn66On5+KTPlVRuNYazf99CI4EEEJLry064jfqyvn7XlUQGddHM4SHLPNo+4MiTlOA2n4KqkDScwT4QrlH/n57KKB844EQbv6dArd/U6IDHIs3kslrNlzX/SRphM9f0MOVfDJuiO5FEIJK+ST/bSLh4ucaXdSRpzNVSjuXFD59xvIxK1k0Oez1ofxWYUflvm4PzMkydR8RMndxzatME3m1eUs/1uYvKdWW2ysShIHif9O6MFFKQZvT6gzwrSAKPOKFJBmtHrA/qsIA0w6owiFaQZvT6gzwrSAKPOKFJBmtHrA/qsIA0w6owiFaQZvT6gzwrSAKPOKFJBmtHrA/qsIA0w6owiFaQZvT6gzwrSAKPOKFJBmtHrA/qsIA0w6owiFaQZvT6gzwrSAKPOKFJBmtHrA/qsIA0w6owi/wEbiVli1bP3AAAAAABJRU5ErkJggg==;" parent="1" vertex="1">
          <mxGeometry x="458" y="480" width="146" height="80" as="geometry" />
        </mxCell>
        <mxCell id="tPqwYIOhlPdfrOhZ3rKq-45" value="" style="shape=image;verticalLabelPosition=bottom;labelBackgroundColor=#ffffff;verticalAlign=top;aspect=fixed;imageAspect=0;image=data:image/png,iVBORw0KGgoAAAANSUhEUgAAASoAAABuCAYAAACQhF7hAAAU5UlEQVR4Ae1dAbajIAzsuTxQz9PT9DI9jPtABkIICGpd6599b18VIQmTMALy4THzHxEgAkTg4gg8Lm4fzSMCRIAIzCQqBgERIAKXR4BEdXkX0UAiQARIVIwBIkAELo8AieryLqKBRIAIkKgYA0SACFweARLV5V1EA4kAESBRMQaIABG4PAIkqsu7iAYSASJAomIMEAEicHkESFSXdxENJAJEgETFGCACRODyCJCoLu8iGkgEiACJijFABIjA5RH4DaL6vObp8Zgfz3cOaC09z3Xc3dn6pOWfz/yR97w+FwH4fnrRD+ci77UdQFTv+elIpPg/zdPzNb+PaF0Ikr9KVO9nwPc5K6r+DyHzR1UiBklU/yUADiQqR0zP+Rn+T1MiL80vwzVFkGhBtfRhBSjwmV/e7ml+WQR7uD7oXfkFUbGRrAD1xcfwPX3wRZDrog8kqvJt/3lNx/QEECR/lajq/uOTsxBADJKozkI80/NVoppn9FAes+aYzIq1GwSJFlJLX5NXfQ57L9ajqtrLB6chgFgjUZ0GuVR0PlFhGKNJx1lVCwak6zK1dCfq/ZqfYvj5eLih6bs6Efp+pqGqnm+LajN9n/n1RI/xMT+mpz1cDGhb9jxfdXukkyIu0RAIXT4yTG6c+nkX9sT5wc87w8LNHVoj2/nzmd/PaflwEeYcp2a9FAZ6nlLZuwsDHx8D9gVf1bAxh/Ye1s/8fj0FBtM8OT/B9ySqLDTPuvkyUWGiXfRQziAq6PDkFObNpml+NILMN6JnCtA03yY+CMRgRWOeljk5J9s3UlFP4cE0BE7zeP4rpivTsCmKgF7V8EFgztZFHuwB6T7n1ytMxE/Lszh3qPW+w5fVx2N25OTnGpv1gm9T/ij7seh6RaZ076CEEbAdwmDUPhBVgU2ywyKr9MIClsgfMNW4RSfx4psIfJWoYnBK54JEdKNztUSDlPllui6D/Fn6yvCtieZKWehzBKN6Z7GumS2NOs2ud7AEvy5SmAi9OiPSC3tQj0W+71VEoSAYRarvp/mVtlYvpOeyoVfJhp3aryMYDNoXY6nARpCmxhOx+VDzra5H6uS4/0UdIrC8+CICBxJV6i24t3F8Wz5U0CIYdJC4StYCGum6jJleaSxdIK6UhT4rWCvPmmSEMrpe2tZaPqQb9oBIirVnHuall7Cm1psBHSrzUi/l24rsQzDQmOC+Yl81llw5lFG4wc6cfIOiShmYwd/vInAgUYU3TnzzTLM5B/N1oprnGTowL2VOyFjAdhKVarSLpPDWzYIf8h7Z0g0s4XhijisrY9iFRqL11tKdiICB1ehAYtYzP0/l5vfiUpMw9FG6+4nqIAwAi5tH67AvkpGye91XJfn6MsB6zVewk7+HInAgUanucs1MkIgVQLVgQLouU0t3L009mT49OxafolGtBKu2w9e1TVR6gj67Xwv+Wj1r6c6eYaIanBgPc0452Vn4IU29yPBCw+8aBu4LMogdZeSv9kkLm7nlqxXfr9pZC3ym70HgtkQVQQlfslqT3TFvXE6xEqy6UXgBG4I/KW5f1RpdLd1JGyQqDHvcHIyYA0/DJF1n6BaT73EyPcsLoqpg2q55fLrZvswWiNvgK9SXRAUQT/09n6haDq89Q7oOulq6ASGGO1pEnnWlUTX1WcHv+GLpSbT15lYUdzW9tXQnYIioGvU2daT8bvgq5yOt4f5+DJK+4kudaZ+YhzKB3+Ar6CFRFeF5RsL5RIVut55kb31ZQZDooDPT3ZqhcpjX21ia+Ux9cJMd/CCM2tciN0TNejAQJ39remvpruwhRJW+TOaT8qjr4HC/0sjXMagRVc2+bUQFzApfAWc31KzUQbqL18cj8B+IKvUylkWYbs1OmLCdwttZBwMCpZeowtxFWg/U/2kZPS9nG9YSRbU1O7xf0HjLxZQgPzf8jDahzo+OVfs1vbV0Z88QUYlP9nHtmewpGTtXuOUCco4oYu6+/pbkuxcD6ZdlHdaKfS1s8LLUcRaH/i5ekv/9tIFbW+YWEBdljm+UlFgi8F+Iyv1pjV79uwwZKo29FnTVdLVKG1//yvqbKW51dprsFivOa/q8lIrtQcPHNWy9Ut73/Do+Sdb01tKdzkGickU+2YrshVTf6OlGtl4qFIkHi0OLP0Yv56R2YTBo3/hXv+Aov7ZL+t99vXY+Cr06EhWAOvX3AKI61V4quwICgQTz4WAyDL2f/Itges4rIjCKAIlqFDHmT7011ctaoEnzRuZj4kcENiBAotoAGouEYa6flwpzOX7oJ+aNOERimByIAInqQDD/lCjstJDNu7l5rWl+vrlt8p+KhRMqS6I6AWSqIAJEYB8CJKp9+LE0ESACJyBAojoBZKogAkRgHwIkqn34sTQRIAInIECiOgFkqiACRGAfAiSqffixNBEgAicgQKI6AWSqIAJEYB8CJKp9+LE0ESACJyBAojoBZKogAkRgHwIkqn34Xat0azeFa1n6d635cNX+FueTqLagdtUyJKqremaxC7tO6OO4rm31JawjUa26oba75GrBL2RYseW/EdWKXV9AIu4PpXeK/Yqug4SCqPgH28OAkqhWIfsfjbBm1IotJKoacEz/cQRIVKsOXCGH1fJHZlixhUR1JNiUdSEEDiOq4hw9t+f06z1nG+2iIVljdHSLxW5rXTIFmMVWt27LEWmDoSMWh22iWx632zX2BhdmehEjtlp5J3VEfLQrXHTZgjp449Q5eJPYUlkLdxvt6nMQLf8Z5brsCuVGdFh5gVGvzpYMoyopaTBOUHBVX+YflPJ7LPv95/2OqB+1jXbTb8rHOk51kAqVv3Z5CFFh69l0WIPY+F80fAdODLIMRGzElk41GZGZyY2HEyQboqrBAPSBJ46nXw4VcIdR5IcXDNkKG4Sdz2laPTSgyxY0BBySoQ8oqMznDNmvIrzLLt8WsQ+5O/zBYZj8UxyYsIJRl84VGaoa+S3KxsARjyPG6hAPlGn5FWW13JDucFkOzFAHS5h+Q5tJB4akPfmX8q/V441EvS5+uZ+oAL4iJH+Ag3mmXQIY/gJ54T5uzN8rE0HiDktQgLugjv5CvqhIZG7U4+U3hysPK/ClG+WKeuGAADPwhC3Vy86hn3uzqh5aJCNd9yH7a4Z12tXlzxVZ0YRWvtazKKB+MRwnnfqAdc0HA36DP/N96TvtqNf8sk92E1XZGEVda45BILhTeXEtnDcqs5lfmIOTWcxDCWCr0ZhaRNXUDZmxbnsDaaU89BV1SMML3XsZs1+CKa/bdo3paMtKWlv5Ws+ShOqVEZMxr4lxpz6UjfEQpCJ92G/lyxMEplVE+3/0YidRwUGP2J33Z+GFrn06r091k+UQ0I+rZU9oVCbyl04rfDIcgE5CSz6eDdQfNuAIr2wSr7BYJUBfpa4IeDNKQ082awyQN2C/smi5hRzLLjwb0NGFEeRaOtNxYct0xHv+jOAM/RaOwDjDsVMfymq5tXQPruU3TKGUdSdRNQM0HPCpJ/Nwr53qZMkDLDPHIQB7ZWIoKcnONDaennJcj2rU1sUuP8ci9xo3Tna2awB9ZYD6/MMBD3m9WNtW9ZJ5OivR0KdiZB0j2F7Bwr1i9AeCXpy3EFWPvpp/aukebpuoQEgc+tViMktfD5Yse7xBuRSwiavwrB6AUYy/GMi/KQBb8lvPcivNu3BAwtKAe+q7om844FfkmUZbiS05rWeWLJVWxWhAblWG0oXbTXGCwo6x3JFh6eOBP7/UPa75p5buRdpEFWWJ07fjZHpqTMKo377cOfRDF7TjWHKBU/Y2QFCIN2pzTkPIwWV3fgSE0AUZ0fHFs3aD6NYdFZUXwGM9vtq2xDqYguyAP8L+do9qW4xolEqMVrDQAjxPLORhwiPzb4oTKWC5LmyGXG1ALd2LsfyW6u6mV5Yvhe6lr5bjlCb9bMpuoooT1EUDD86SX91cEpwi1lKhscRurEFeEuHsS54IQD1R7NW93+mr3xycrr+64dhyN1Q16gH7dHx5m4Zsfc9PY/jRlC8rLub2TFuArfnQCngxt2LUe8FPfDVVtsjbZh2+hFFd516cR+OkU1/NP7V0D7DlN6R1THdIJ/3w9X6iEo3HDWGmaVkjEyfSH7K3hTeBTHPolYGBIFyX6conudZaLtluk1ys5wlddKw9Mhos3oz+jeU+FPiz65LXk8y1+qOeIh/mqgy9SUO6atoyHPCL3H77kx36qmnXUIz0Y1TX2S9D1wP3CZOeOOnUV/NPLd0bE2Tr+JBzvJgL9u3P2dv3ckFdf+H3EKJyFS1WhbuvWr73kD63uDx+PkYyR0ApBp1Y/9MjM4H8md8vLJgLc196ZbrPrPOhu1wJiKAgzTk42eUq725b9cpjfP1LFVm9qtqyJeCDtm77G9ZV7RrVMYBRVeeADLtKg3HSo6/mn1q6N8yOy0iksWMQFtHixadHDXYlfyb1MKL6mRrTUCLw6wg0Xviuanjpx6mUX6/vPM8kqhs4kVX4YwgEonJ/+1j+c18clxGF+bgs8BMpJKqfcBONJAISgTQnFudN/SJr8QVQz2nJ4j94TaL6QafRZCKAtVpx7VSYUJ/8h577bXdMomLMEwEicHkESFSXdxENJAJEgETFGCACRODyCJCoLu8iGkgEiACJijFABIjA5REgUV3eRTSQCBABEhVjgAgQgcsjQKK6vItoIBEgAiQqxgARIAKXR+C7RIW/Cj9zOT903ukPnS4fRjTwzyOAdveltk6i+vMRRgCIwAEIkKgGQQRg7FENAsfsRGAHAmh37FF1ggjASFSdgDEbETgAAbQ7ElUnmACMRNUJGLMRgQMQQLu7NlGV27ZOL3fo42s5IaNi/HLuGo4VWjb7WrYvrgNXbJmrtxuGTk1U2GNa2VKc/VY7ySPI9bsmfl7zE1u+utOe6+b6J6s2h/JDeGT2vOdXPJ7JHVDxTAdauIMrYKvbU/tZHgaLAzeWHSE/uSyHxzttJ62rOmSz37JaYOe3JnF7fL9nraHbL9ogcf9TuOutjEd96OodjulKp9Ise/PH47oENpnPDd1mGV9+W1uXqrdcHzKZjh0F4yZeU04+1sku2C7VH96Ak5VFg9I84yon9UyhDJwS81tEha1b1T7SyQZs4C/2XFeEFh37THmWvYDaJ4F02Sy2j+3GA0QV7Zlmf0p1xPA5v15hj3pH5i4fnq3WDXgkP1rb2ib8xCnI0JEd6hFCU/gB/nMHZej4SHJhR8Jc560F/a/ivtmH79ApkAesxHZonBlZjR/43Cij2uBiK/LjnALjRVhz0kD6fqKKwacabOsIKllGvUrdW9AfACGO0/L1Qbp706gKurdvfOlrosK9IikQTxn4la1coxz7SC1l0nLbazPyuTr34iHtyXok8kSex5wTDHaGVEFYleUjs+2Pbpthl9KtgYMtmkznil90eXcPPNdiBfm66+DfKOkcva/hDqzCKCPr3lR86EYMxukzkfTjmzwABpxdrzarR9pzvThRXOIlcW+1dZlvx/VuosKbK28QCgwVdCijsUM9rOdWGvJnv3CAE45rTVLizWDagHLyIdI0gWbK85tem9fymc9hj8LWWVANTvFMVi3iZMiSR5HJMqZNovrlczS+NlGV5YRQ1FkaIh7jsikDmdZioPYcNhhYHYn7sCxRr+wS9mrMkG7UoxYPwHWkrWe27LjZSVQrwWeCsVJGNKYEyHqZiEHUif2jy6OtZOOLQxAMP8Pe075XJ50IudrhUbG+6LV5PR+CNuEh3uyWPeHNl+UP5g3LEg02ydtoc3wjh3kp1Xvc5BcNezzjsU2ISVc93zBWR+I+Kgs4uHmq92uZBpCxrOOkGc/WEV0rPoc82WZg0wG//4Go0HUth3CoDwIkdT3Xy6BsfBs8X/MrzJekBoZcAD2Mq8UBjsuw0xhvwxHa4RBZ/PbavJ6vxONcooL+hONGm53ZrhGJeaxs4j+SzIBf7or7MFHpjyAKQx23zXgO/s1IB22mQuyQl5UpnLM54T8Q1UqFj+pRecegQemTmddtKBCFI7TDi4xI6NWxnq8kinOJquzyb7QZ0Ljf8IVqeTEg+NflShH2da+M9Xz/FfdBooKP3JxrNs9Zi9taugf1dkSVvsSZ7RdgKJYFqGYZ8VaVz9tlRMhCJwoHh7svknJOslseRGu5SG/89upo50ODUmTbsmcwyFMvVH+mcJWz9W+y2cAKZJDctfQEcG8UWU1q25aKt/PZ9W5idSTuQ7Jgax7jvqa1OKml+0IWUW1r6wntfVc7e1R+AmP5KqTIKDrUDav0s0geja9cqgwCupDlmtL7nd4ihgPMsrBB6QGc2ZdEl2jIRd7ar6k3ZM5shi2tr0/azpY9Q0Eu6mZ9AYJtWj/Su21267lKfxdkAblaX8RN9RgM8H8Od4uVh3xYI6r0pTRNowDI1/L10tI920SVvqaqJQiIRautG/7ZkrSfqMQbt1hHNT2X+Qgj6BCgrusfJ7Tj3IXxZlB6UKZrHZWYEJYOy2xwtsrJR70OCM4wHVuDHgHkegnlmiApKrMFE/stPFr2DAW5IKoJHyCwJiutkZG2orZjNqdhuFvUm60XUvGRyUVesaDVsgU2Lb8/hrtVoUEfRnKOcQZfhrkqraMVPzWiUm0wW0fVaOu5b7bdHUBUTrFj7hTUnrD8OCsEjApEmFqsHPYgt96YelWs661N89Otgo9Ca2+KtEJbrrQ2bfBv/ihxkdx0LJRbvx02h2KmLcbaGJ+9Zc9gkGe9Rb+SXfjS6AXJWo7ZrFbQe38L3wnBplzLL6JMfvljuOfGx7Vg6QNGygBS0s8+L7EwNiz8fGON0yFE5WzY1taT9duuDiKqbcpZ6iIItEjvIibSjL+NAInqb/t/qT2JilFwcQRIVBd30CnmkahOgZlKtiNAotqO3X1Kkqju48ub1oREdVPHslpE4E4IkKju5E3WhQjcFAES1U0dy2oRgTshQKK6kzdZFyJwUwRIVDd1LKtFBO6EAInqTt5kXYjATREgUd3UsawWEbgTAiSqO3mTdSECN0WARHVTx7JaROBOCJCo7uRN1oUI3BQBEtVNHctqEYE7IUCiupM3WRcicFMESFQ3dSyrRQTuhACJ6k7eZF2IwE0RIFHd1LGsFhG4EwIkqjt5k3UhAjdFgER1U8eyWkTgTgj8Az8FyrUUwvb5AAAAAElFTkSuQmCC;" parent="1" vertex="1">
          <mxGeometry x="357" y="660" width="298" height="110" as="geometry" />
        </mxCell>
        <mxCell id="tPqwYIOhlPdfrOhZ3rKq-46" value="" style="shape=image;verticalLabelPosition=bottom;labelBackgroundColor=#ffffff;verticalAlign=top;aspect=fixed;imageAspect=0;image=data:image/png,iVBORw0KGgoAAAANSUhEUgAAAXEAAABQCAYAAADvAEWDAAAOSklEQVR4Ae2dDbKjKhCFXZcLcj2uxs24GF41cvhpGqLG5IY3Z6qmkqDQ7dftCQK5TI7/SIAESIAEhiUwDes5HScBEiABEnAUcSYBCZAACQxMgCI+cPDoOgmQAAlQxJkDJEACJDAwAYr4wMGj6yRAAiRAEWcOkAAJkMDABCjiAwePrpMACZAARZw5QAIkQAIDE6CIDxw8uk4CJEACFHHmAAmQAAkMTIAiPnDw6DoJkAAJUMSZAyRAAiQwMAGK+MDBo+skQAIkMJaI77vbdcz21c3T5KZl00fan1FnXuv22rXaRyy/2mfzyNMEno7n0/5Z7cHnK3lrtcOyf57AAyK+uUVE1Pg/z4tbt0p270HflmBjcYVc37kZUOcJEW/5de8qWesOgSfjecf+nTrwmSJ+hx7rZAQeFPHZzcviFvyfk7A/kqcQSy28d24G1NFtZWBOv235dboBnvg2gSfj+bYzJxuAz4/cHCdtnj5td6u/f2e3PtQHO22aJ14m8KCIqx6yc27/hsDduRlQ5wkRv4ycFR4nMGI84TNF/PF0+Nca/KiIO4ehllrgHwN952ZAHYr4Y2H404ZGjCd8poj/aer8H4z/jYijh24lMJJbCyzKdZ1WuY/O7rZ1OSY+/Zj97OZ1czvqaBv+6WF1SzYUNE0yTLS1J0DRVsOvWZ5H982ty5zmDebFxamCfSvszUtjsnXf3bbM2bVMzs85NB9399KmnrNQ/u5bfd2LsDqb5Vf8C8xabNqP8NfjWbif23Waz+yWGJSs1p1cPZNHRd4oX2QuqQP+Sqysc3v5vC1pGFTPc6mUcUfbWV5PR05aGDOifPswgY+K+L6GAOvo37kxiqTPKLTKnXMpIedjrH4uE27SIg6/vHCH8X2po8/LzLuW/VAu8wR+9cwEH3CTLG5dw2TtfByb8eWh7W1hBU64Sfy8Q7wWa9wST0DHTSXnx7aDH/mEc4xTdt2Hz1P/2sHhqn9NNoiPdU034gn/8GrYPeZxYHdy/osF58srckLnsBxD7Kt4YRI+myfSeRTr4osZ+QFfbAaXYgXfs7gu2o/8WvHlE3N2yua51tTx8JcOP7NzkL/T5CxcyhQ/PkTgQRHPElYmN0NAzZ4lksuKdExu1SNFua7TKoeNSQ3lSM8XvdLi5rs5mdOyj3KxVfTkYecQ81I04Ju6gbfFCUfdw4k3tGKC8rJt2FVtw8+ChWSX9PwPH1Xzdepd9C+KX8VGdDGIgzZ6OZ61mz27Uax1vsCu9scjCl+uBbsGZ+0OuF9hgDqFPe+IEauTfmi//OcXdcFEWKknhjgPpjmadlj4BIEHRRw9TP06u0U/GyIJTt8YWa9H10Fiq3IIUClkARnqFDfDi8Rt0UZbyn4UjMLG0UhTqLIejm7ONN+wfVy7EutG2+Bk2mu0b/piFbbqo9xg0+IGP8/H03CoZ1eGV0LHo2BxOVfRTs2/8KjnS+MYGBT+oVHUiQdP+oH6xWu/bteP7Ak4ulK0zQ9PE3hQxFWPV0RDemih11sE9PKNcVXE+0nYEorUGwvj4KqXYcKvbp5wVqtcDofrtwQJAm8dczLuLGPXWMaJcfYCLoYdahFB2+l0cMoeiWPbMpwUesWW2FowTvoX+SdHstbC00hhE37W1+QrgnVRJ2sSb3GeaRfc1JDKnVxFHcynWHnU9aXH4EKszvgBNsVrj3fv2NEI8szM4cIOPzxB4KMi7h1EIuU3GMqsmwnJnZ8vDaFc1zHLXyQa6mgb/otHTfDlk5AWcbR1yq/QQLh+K8ntG0BNfIUvxjjxpGw32/A9zVwIwUk/PanPBqcSxTX/mrH0jfYELPc98wAxeOUnzlO80JLJ7U6unsmjri89Bio2OhcUg2pi81U+exjIC4t38K0zXAKOl35FjSDw9TKBz4s4kjUP+p0bA+3oG9As7yVh9oWgEr6gF1ZbHEJpJXM427Sf2dD+SrWLIo7HV5lgLcYgX9nOJkLjxGbhzwtOBZD2h9v+Fb6g/Z6ANeIADr14SvM4z7T7YE8cl+JtHquKqjzq+nKDQW7Ten82n33dXl70jh2GIeJWJ8VyjWXvEfgbEUcCWzdd6xjK9Q3YKIew6NM9LtSx7CueSEizHTkXbekTWuVS55KId24a00Y6X4ZDMJwlSyWtJYNdToqF/THZ01Mft9jgtwUqNl0/wUHVqfzFeTpW/kRch1pZgTpW271jyniVR6hr+mKJePqSMasoe62PlR/miWBhf2l2Y9GaWzDtsPAJAh8W8bTCoXy0wiOZSpLmypEbYonevr75cPPIY2hxTNZr17Pt/YS94ZdE7RERf8FWruVMhrQ4hbryOF70/qs2Wzd8y78OM9+2LWBgVsYsa6uKZ+Vo+sKVc4sVQ71fF1/N1ZN5hDw0FfkiAzNWJ/0wMElRN++RM73VKcW91TDC4kcIPCjiaolhttZ0MgQFSXL8mCafRAu9R50EraRvlWc9At8L9cseMVEXlkAWNnCzprXVWCZZCUeOvmW/VS51L4m4aA/W5IJx3sM2/oJjNqEcx8390IrUr0U5xSK7dkxqnljze9m/HptGT1yWPGL1yLl45kEK72F3Bj+9Nlv1wkO1xCfx91zRzp08gi9XRDwTV7EvP/Y6JrmRH7n/N/M5okKbiVHuamKSTbTGdeKqc2aEgkXPEXhQxI0JF/kRS/NXf/Wv745zG72QVtK3yj2jfDxS/MNyxyAIxc0nvTr1y0qsLujxbtlvlUtbF0VcquzFL0+PG3jDk0t+d+U3erzJj5s9jotP9U3mVxLFm/BgJSKx7dbSihrIFf+awyy+2Ub8/bGL8dRu5jHxv5SFUMlTWf0UlqpfzdUTeZT7kgyFdz0GYdXXmVjdyefMF/mFcOoE1L8iNXPG6CRkTfLtBwg8IOIf8IpN3ieAR10l7GgQveZ/ctKpK5wgxFcSGIsARXyseL32Fr18U8TTOLV5+HXrY59BER87fvTeJEARN7GMXJjGQuPYsf8BD8aB9YTuyNd60XeK+EVgPH0EAhTxEaJ01cewJjiNgR/zFbPMUWzGFndX2x/1fIr4qJGj3x0CFPEOHB4iARIggV8nQBH/9QjRPxIgARLoEKCId+DwEAmQAAn8OgGK+K9HiP6RAAmQQIcARbwDh4dIgARI4NcJUMR/PUL0jwRIgAQ6BCjiHTg8RAIkQAK/ToAi/usRon8kQAIk0CFAEe/A4SESIAES+HUCnxVx/EJO/7XAT1KBzV/44yDf8uVbdj4ZN7ZNAiRwiwBF/Ba2k5W+Ja7fsnPysnkaCZDA9whQxD/J+lvi+i07n2TFtkmABG4RoIjfwnay0rfE9Vt2Tl42TyMBEvgeAYr4J1l/S1y/ZeeTrNg2CZDALQIPiXi9fdUs27JBXBoTm7IJ7zLnW0Bh27H2tVRbQukt4GBTT2xi30nly+FDvrVcY0u50K7fEWcXv0OdeW1vSFz4srs13+5qrre78lfd25kH7alrKLc703aOPz/bJsojJEACIxN4RMTTpqlpU9W0N5+9CQG2CfMbvvpNC8LmxbITeWNz3tzOHOrM+nwIXS7iEEa1t2TyARvgLg7tVZsjQ8SzDaCPv9fd2VUevmBDXdnjM9+wWfnjEwm+5v4jw2J7qyt2vozl2PgB15O+IP/J7djAja8k8D8m8L6IQ3QmJWbYxFdEVvcc8zqFGh2bwB5fAKo91JENbVVApDe9oR0IGkQQn7Vgolz75hpbmOF863qUP/FjXmfZCuGNXyDwE5VwnbpcjqM97TPKxTdlB5syTzo+sMdXEiCBoQm8LeLoHZs9PYiLEh3UsXRKaFrHrTKTPGxK43ivBbxhI7aHermDKLsihqijrt/baR17R8QtO253axj6yS8nXivfkAAJDE3gTRGHQMxuRU84x2EK1Ys6vsN5DAOkL4bXdaLZaBNDC9bYM9qbHIZl/DAHhnUwdp2LItq9ooTdOmEvzNyGXMQ7It7wDV+AiWekxTckQAKDE/gDEcdGvvWwCFjWQw2v66Bu7H0va+yB1uKVRLwYuw/j67EsF9iuIEfr5Ztune+JOHjWHEp3+YkESGA8An8g4hDQRu/9qZ6475VC/CdXdlJf+1CFsivI1dlHQbfO90ScPfFGfFhMAv8DAm+KuD1+HblAxPIe7avx6MYYLoSoFONoKb2BTZyI4Qk1Ln66PbSs20V577VbpyHiqKOYeTOtYyjHNRc+4QtLf5EVJ/EDCZDAoATeFvE4hqtFB8JireaIwrqkVSUBoKwD98MZqj0MCVQrXaTnvm2pHdjNBM2s27CDOBYrXqTQaBfnNl+7dRoi7vD0oJ5Ueqt9YMdYndLi2fSZB0iABIYi8L6IZz3nSa+DnsPabyXIQgg9YRHsOLmIH9CoXvNBNPUoxQ7qYF131GwIWiw4akd7WXksEx/EVz+xmdZWZ6d+UcRzNrjO4BPWm2ue4ZpnHNdxaKy7HypT6SwJkIBJ4AERl3ZlbXUSPy/mfrlKEF4tOsGV6teXXpyzNd+Vy/qXobIGXf3CsiHiTnq4caldWkpj+iBr0fd0jnej2W7lZCro1mn1xKW6vk5cY6MORFyYS489fhkKH2t1TnKR70iABMYm8JCIjw2B3pMACZDAqAQo4qNGjn6TAAmQgHOOIs40IAESIIGBCVDEBw4eXScBEiABijhzgARIgAQGJkARHzh4dJ0ESIAEKOLMARIgARIYmABFfODg0XUSIAESoIgzB0iABEhgYAIU8YGDR9dJgARIgCLOHCABEiCBgQlQxAcOHl0nARIgAYo4c4AESIAEBiZAER84eHSdBEiABCjizAESIAESGJgARXzg4NF1EiABEqCIMwdIgARIYGACFPGBg0fXSYAESIAizhwgARIggYEJUMQHDh5dJwESIAGKOHOABEiABAYm8B9+Oldaz3RlMwAAAABJRU5ErkJggg==;" parent="1" vertex="1">
          <mxGeometry x="540" y="361" width="240" height="52.03" as="geometry" />
        </mxCell>
        <mxCell id="peMO83RvnMSNw07jAyci-1" value="&lt;font style=&quot;font-size: 25px&quot;&gt;&lt;b&gt;1&lt;/b&gt;&lt;/font&gt;" style="text;html=1;resizable=0;autosize=1;align=center;verticalAlign=middle;points=[];fillColor=none;strokeColor=none;rounded=0;glass=1;shadow=1;sketch=1;" vertex="1" parent="1">
          <mxGeometry x="185" y="224" width="30" height="20" as="geometry" />
        </mxCell>
        <mxCell id="peMO83RvnMSNw07jAyci-3" value="&lt;font style=&quot;font-size: 25px&quot;&gt;&lt;b&gt;2&lt;/b&gt;&lt;/font&gt;" style="text;html=1;resizable=0;autosize=1;align=center;verticalAlign=middle;points=[];fillColor=none;strokeColor=none;rounded=0;glass=1;shadow=1;sketch=1;" vertex="1" parent="1">
          <mxGeometry x="470" y="330" width="30" height="20" as="geometry" />
        </mxCell>
        <mxCell id="peMO83RvnMSNw07jAyci-4" value="&lt;font style=&quot;font-size: 25px&quot;&gt;&lt;b&gt;3&lt;/b&gt;&lt;/font&gt;" style="text;html=1;resizable=0;autosize=1;align=center;verticalAlign=middle;points=[];fillColor=none;strokeColor=none;rounded=0;glass=1;shadow=1;sketch=1;" vertex="1" parent="1">
          <mxGeometry x="700" y="426" width="30" height="20" as="geometry" />
        </mxCell>
        <mxCell id="peMO83RvnMSNw07jAyci-5" value="&lt;font style=&quot;font-size: 25px&quot;&gt;&lt;b&gt;4&lt;/b&gt;&lt;/font&gt;" style="text;html=1;resizable=0;autosize=1;align=center;verticalAlign=middle;points=[];fillColor=none;strokeColor=none;rounded=0;glass=1;shadow=1;sketch=1;" vertex="1" parent="1">
          <mxGeometry x="360" y="530" width="30" height="20" as="geometry" />
        </mxCell>
      </root>
    </mxGraphModel>
  </diagram>
</mxfile>
